<?xml version="1.0" encoding="utf-8"?>
<!-- Generator: Adobe Illustrator 28.0.0, SVG Export Plug-In . SVG Version: 6.00 Build 0)  -->
<svg version="1.1" id="Layer_1" xmlns="http://www.w3.org/2000/svg" xmlns:xlink="http://www.w3.org/1999/xlink" x="0px" y="0px"
	 viewBox="0 0 265 160" style="enable-background:new 0 0 265 160;" xml:space="preserve">
<style type="text/css">
	.st0{fill:#003C8F;}
	.st1{fill:#00A0E8;}
	.st2{fill:#6BB72D;}
	.st3{fill:#EA614B;}
</style>
<g>
	<path class="st0" d="M104.7,57.8h-3.4v9h-2.1v-8.9h-3.4v24.8h0.9c1.3,0,2.5-0.9,2.5-2.7V69.7h2.1v13.7h0.9c1.3,0,2.5-0.9,2.5-2.7
		V57.8z"/>
	<path class="st0" d="M90,59.8v-3h-3.5v3.7c0,0.8-0.4,1.1-0.9,1.1h-5.1v0.8c0,1.1,0.7,2,2.2,2h10.5c1.1,0,1.8-0.7,1.8-1.7v-1.1h-6.3
		C89.6,61.3,90,60.8,90,59.8z"/>
	<path class="st0" d="M88,65.5c-3.8,0-6.3,2.4-6.3,6.3S84.2,78,88,78s6.3-2.4,6.3-6.3C94.3,67.8,91.8,65.5,88,65.5z M88,75.2
		c-2,0-2.9-1.4-2.9-3.4s0.9-3.4,2.9-3.4s2.9,1.4,2.9,3.4S90,75.2,88,75.2z"/>
	<path class="st0" d="M112.6,76.5v9h17.1v-7.7c0-0.9-0.7-1.3-1.4-1.3H112.6z M126.1,82.5h-10v-3.1h10V82.5z"/>
	<path class="st0" d="M110.5,74.8h21.6c1.1,0,1.8-0.7,1.8-1.7v-1.2h-11.1v-2.6h7.1v-11h-3.6v3.3H116v-3.4h-3.6v11h6.7v2.6h-10.8v0.8
		C108.3,73.9,109,74.8,110.5,74.8z M116,66.4v-2h10.3v2H116z"/>
	<path class="st0" d="M160.1,80.7V57.8h-3.4v25.6h0.9C158.9,83.4,160.1,82.5,160.1,80.7z"/>
	<path class="st0" d="M146.1,66.4c0,1.1,0.7,2,2.2,2h3.3v14.3h0.9c1.3,0,2.5-0.9,2.5-2.7V57.9h-3.4v7.6h-5.5V66.4z"/>
	<path class="st0" d="M149.5,73.6v-1.3h-8V62h5c1.1,0,1.8-0.7,1.8-1.7v-1.2h-10.4v16.2h9.8C148.8,75.3,149.5,74.6,149.5,73.6z"/>
	<path class="st0" d="M180,66.6c0-4.4-2.4-8-7.3-8s-7.3,3.6-7.3,8s2.4,8,7.3,8S180,71,180,66.6z M172.8,71.6c-2.5,0-3.7-1.9-3.7-5
		s1.2-5,3.7-5s3.7,1.9,3.7,5S175.2,71.6,172.8,71.6z"/>
	<path class="st0" d="M187.3,80.7V57.8h-3.6v25.6h1.1C186.1,83.4,187.3,82.5,187.3,80.7z"/>
	<path class="st0" d="M211.4,65.5h-4.5v0.9c0,1.1,0.7,2,2.2,2h2.3v14.9h1.1c1.3,0,2.5-0.9,2.5-2.7V57.8h-3.6V65.5z"/>
	<path class="st0" d="M209.4,73.9v-1.3h-11.5v-4h5.9c1.1,0,1.8-0.7,1.8-1.7v-1.2h-7.7V62h6.5c1.1,0,1.8-0.7,1.8-1.7v-1.2h-12v16.5
		h13.3C208.6,75.6,209.4,74.9,209.4,73.9z"/>
	<path class="st0" d="M228.2,85.4c-2.2-3.9-3.4-8.9-3.4-13.5c0-4.5,1.2-9.6,3.4-13.5l-2.4-1.4c-3,3.8-4.6,9.4-4.6,14.9
		s1.6,11.1,4.6,14.9L228.2,85.4z"/>
	<path class="st0" d="M230,73.9c0,1.1,0.7,2,2.2,2h8.9v8.8h1.1c1.3,0,2.5-0.9,2.5-2.7v-6.1h9.1c1.1,0,1.8-0.7,1.8-1.7V73H230V73.9z"
		/>
	<path class="st0" d="M236.1,70.9c2.1-0.9,4.5-2.3,6.1-3.9c0.5-0.1,1.1-0.1,1.4,0.1l6.3,3.7c0.7,0.4,1.5,0.2,2-0.7l0.7-1.1l-6.6-4.6
		c-0.4-0.3-1.2-0.4-1.7-0.1c0.4-0.8,0.4-1.3,0.4-2.7h5.4c1.1,0,1.8-0.7,1.8-1.7v-1h-18v0.8c0,1.1,0.7,2,2.2,2h4.9
		c0,1-0.1,1.5-0.6,2.3c-1.4,2-4.3,3.7-7,4.8l-0.7,0.3l0.5,1C233.8,71.4,234.8,71.4,236.1,70.9z"/>
	<path class="st0" d="M259.8,57l-2.4,1.4c2.2,3.9,3.4,8.9,3.4,13.5c0,4.5-1.2,9.6-3.4,13.5l2.4,1.4c3-3.8,4.6-9.4,4.6-14.9
		S262.8,60.8,259.8,57z"/>
	<polygon class="st0" points="111.7,97 105.4,97 105.4,92 104.3,92 104.3,103.1 105.4,103.1 105.4,97.9 111.7,97.9 111.7,103.1 
		112.9,103.1 112.9,92 111.7,92 	"/>
	<path class="st0" d="M119,92l-4.4,11.1h1.2l1.1-2.9h5.4l1.1,2.9h1.2L120.2,92C120.2,92,119,92,119,92z M117.2,99.3l2.4-6.2l2.4,6.2
		H117.2z"/>
	<path class="st0" d="M127.4,97.9h5.6c0.4,0,0.5-0.2,0.5-0.4V97h-6.1v-4h5.8c0.4,0,0.5-0.2,0.5-0.4V92h-7.4v11.1h7.1
		c0.4,0,0.5-0.2,0.5-0.4v-0.5h-6.5C127.4,102.2,127.4,97.9,127.4,97.9z"/>
	<path class="st0" d="M142.4,97.3c0.8-0.4,1.3-1.2,1.3-2.3c0-1.8-1.3-2.9-3.4-2.9H136v11.1h4.7c2.4,0,3.6-1.2,3.6-3.1
		C144.3,98.5,143.5,97.7,142.4,97.3z M137.1,93h3.2c1.5,0,2.3,0.7,2.3,2s-0.8,2-2.3,2h-3.2V93z M140.6,102.2h-3.5v-4.3h3.5
		c1.6,0,2.5,0.8,2.5,2.2C143.1,101.4,142.2,102.2,140.6,102.2z"/>
	<path class="st0" d="M151.2,91.7c-3.2,0-5.4,2.3-5.4,5.8c0,3.6,2.3,5.8,5.4,5.8s5.4-2.3,5.4-5.8C156.6,94,154.3,91.7,151.2,91.7z
		 M151.2,102.5c-2.5,0-4.3-2-4.3-4.9s1.8-4.9,4.3-4.9s4.3,2,4.3,4.9S153.6,102.5,151.2,102.5z"/>
	<path class="st0" d="M169.1,92h-0.8l-4.2,7.3l-4.2-7.3h-1.3v11.1h1.1v-9.3l3.8,6.6h1.1l3.8-6.6v9.3h1.1V92.5
		C169.5,92.2,169.3,92,169.1,92z"/>
	<path class="st0" d="M179.8,92h-3.7v11.1h3.7c3.3,0,5.6-1.9,5.6-5.5C185.4,93.9,183.2,92,179.8,92z M179.8,102.2h-2.6V93h2.6
		c2.6,0,4.5,1.5,4.5,4.6S182.4,102.2,179.8,102.2z"/>
	<path class="st0" d="M190.3,92l-4.4,11.1h1.2l1.1-2.9h5.4l1.1,2.9h1.2L191.6,92C191.6,92,190.3,92,190.3,92z M188.6,99.3l2.4-6.2
		l2.4,6.2H188.6z"/>
	<path class="st0" d="M204.4,92.6V92h-9.1v0.4c0,0.3,0.2,0.6,0.7,0.6h3.3v10.1h1.1V93h3.5C204.3,93,204.4,92.8,204.4,92.6z"/>
	<path class="st0" d="M208.2,92l-4.4,11.1h1.2l1.1-2.9h5.4l1.1,2.9h1.2L209.5,92C209.5,92,208.2,92,208.2,92z M206.5,99.3l2.4-6.2
		l2.4,6.2H206.5z"/>
	<rect x="219.7" y="92" class="st0" width="1.1" height="11.1"/>
	<path class="st0" d="M227.2,94.9c-1.1,0-2,0.4-2.6,1.1v-0.9h-1.1v8.1h1.1v-4.9c0-1.5,1-2.3,2.4-2.3s2.4,0.9,2.4,2.4v4.8h1.1v-4.8
		C230.5,96.2,229.1,94.9,227.2,94.9z"/>
	<path class="st0" d="M239.1,101.8c-0.7,0.4-1.6,0.7-2.5,0.7c-1.7,0-3.1-1.2-3.1-3.3c0-2.1,1.4-3.3,3.1-3.3c0.8,0,1.6,0.3,2.2,0.6
		c0.3,0.2,0.5,0,0.6-0.2l0.2-0.4l-0.4-0.2c-0.6-0.4-1.6-0.7-2.7-0.7c-2.5,0-4.2,1.6-4.2,4.3c0,2.6,1.8,4.3,4.2,4.3
		c1.3,0,2.2-0.3,2.9-0.8l0.4-0.2l-0.2-0.4C239.6,101.8,239.4,101.6,239.1,101.8z"/>
	<circle class="st0" cx="241.9" cy="103" r="1"/>
</g>
<path class="st0" d="M58.9,79.2c-1.9,0-3.5-1.6-3.5-3.5s1.6-3.5,3.5-3.5s3.5,1.5,3.5,3.5C62.4,77.6,60.8,79.2,58.9,79.2z M58.9,74
	c-0.9,0-1.7,0.8-1.7,1.7c0,0.9,0.8,1.7,1.7,1.7s1.7-0.8,1.7-1.7C60.6,74.7,59.9,74,58.9,74z"/>
<path class="st0" d="M36.3,75.7c0,1.4-1.2,2.6-2.6,2.6c-1.4,0-2.6-1.2-2.6-2.6s1.2-2.6,2.6-2.6C35.1,73.1,36.3,74.3,36.3,75.7z"/>
<path class="st0" d="M0.6,78.1v9h2.5c0,0,0.6,0.1,1.7-1c0.5-0.6,0.7-1.5,0.7-1.5V78C3.6,78.7,2,78.6,0.6,78.1z"/>
<path class="st1" d="M18.5,67.7c-0.8-1.2-1.9-2.1-3.2-2.7s-2.8-1-4.4-1c-1.2,0-2.4,0.3-3.3,0.7C6.9,65,6.1,65.5,5.4,66V56H0.6v17.5
	v4.6c1.4,0.5,3,0.6,4.8-0.1v-3.5v-0.2c0-0.9,0.2-1.7,0.5-2.6c0.3-0.8,0.9-1.5,1.7-2.1c0.8-0.5,1.7-0.8,2.9-0.8
	c1.3,0,2.3,0.4,3.2,1.4c0.4,0.4,0.7,0.9,0.9,1.4c1.8-0.6,3.7-0.3,5.2,1.9v-1.7C19.7,70.3,19.3,68.9,18.5,67.7z"/>
<path class="st0" d="M14.5,71.6c0.3,0.7,0.4,1.5,0.4,2.3v2.6V87h2.2c0,0,0.5,0.2,1.8-0.9c0.7-0.6,0.9-2.1,0.9-2.1v-6.5v-4
	C18.2,71.3,16.3,71.1,14.5,71.6z"/>
<path class="st2" d="M45,74.4c-0.1-1.3-0.4-2.6-0.9-3.7c-0.6-1.3-1.4-2.5-2.5-3.5c-1-1-2.2-1.7-3.6-2.2c-1.3-0.5-2.7-0.7-4.2-0.7
	c-2.2,0-5,1.2-5,1.2s1.1,4.5,2,4.1s1.8-0.6,2.7-0.6c0.8,0,1.5,0.1,2.2,0.4c0.7,0.2,1.4,0.7,2,1.2c0.6,0.6,1.1,1.3,1.4,2.2
	c0.3,0.9,0.5,1.9,0.5,3.1c0,0.7-0.1,1.4-0.3,2.2C40.6,78,44.1,77.6,45,74.4z"/>
<path class="st2" d="M27.2,75.6V56.2H22v18.4c1.3,0.3,3.5,1.1,5.4,2.9C27.3,76.9,27.2,76.3,27.2,75.6z"/>
<path class="st0" d="M24.9,84c2,2.4,4.8,3.6,8.4,3.6c2.4,0,4.5-0.6,6.3-1.8c1.8-1.2,3.1-2.7,4-4.6s1.4-3.9,1.4-6c0-0.3,0-0.5,0-0.8
	c-1,3.1-4.4,3.6-5.5,3.7c0,0.1,0,0.1-0.1,0.2c-0.3,0.8-0.7,1.6-1.2,2.2s-1.2,1.2-2,1.6s-1.8,0.6-2.9,0.6c-1.9,0-3.4-0.6-4.5-1.9
	c-0.8-0.9-1.3-2-1.5-3.4c-1.9-1.8-4-2.5-5.4-2.9v0.6C22,78.7,23,81.7,24.9,84z"/>
<path class="st3" d="M53.6,71.4c0.2-0.3,0.4-0.5,0.7-0.8c0.6-0.6,1.3-1,2-1.2s1.5-0.4,2.2-0.4c1,0,1.9,0.2,2.7,0.6
	c0.9,0.4,2-4.1,2-4.1s-2.9-1.2-5-1.2c-1.4,0-2.8,0.2-4.2,0.7c-1.3,0.5-2.5,1.2-3.6,2.2c-1,1-1.9,2.1-2.5,3.5
	c-0.1,0.2-0.1,0.3-0.2,0.5C49.1,70.4,51.6,69.1,53.6,71.4z"/>
<path class="st3" d="M69.7,79.1c0.3-1.2,0.5-2.5,0.5-3.9v-19H65v19.4c0,0.7-0.1,1.4-0.2,2C66.4,77.2,68.4,77.1,69.7,79.1z"/>
<path class="st0" d="M48.5,81.3c0.9,1.9,2.3,3.4,4,4.6c1.8,1.2,3.9,1.8,6.3,1.8c3.6,0,6.5-1.2,8.4-3.6c1.2-1.4,2-3.1,2.4-4.9
	c-1.4-2-3.4-2-4.9-1.6c-0.2,1.3-0.7,2.4-1.5,3.3c-1.1,1.3-2.6,1.9-4.5,1.9c-1.1,0-2-0.2-2.9-0.6c-0.8-0.4-1.5-1-2-1.6
	c-0.5-0.7-0.9-1.4-1.2-2.2c-0.3-0.8-0.4-1.6-0.4-2.4c0-1.2,0.2-2.2,0.5-3.1c0.2-0.5,0.5-1,0.8-1.4c-2-2.3-4.5-1.1-5.8-0.2
	c-0.5,1.2-0.7,2.5-0.7,4C47.2,77.4,47.6,79.4,48.5,81.3z"/>
</svg>
