<?xml version="1.0" encoding="utf-8"?>
<!-- Generator: Adobe Illustrator 28.0.0, SVG Export Plug-In . SVG Version: 6.00 Build 0)  -->
<svg version="1.1" id="Layer_1" xmlns="http://www.w3.org/2000/svg" xmlns:xlink="http://www.w3.org/1999/xlink" x="0px" y="0px"
	 viewBox="0 0 265 50" style="enable-background:new 0 0 265 50;" xml:space="preserve">
<style type="text/css">
	.st0{fill:#FFFFFF;}
</style>
<g>
	<path class="st0" d="M104.7,2.8h-3.4v9h-2.1V2.9h-3.4v24.8h0.9c1.3,0,2.5-0.9,2.5-2.7V14.7h2.1v13.7h0.9c1.3,0,2.5-0.9,2.5-2.7V2.8
		z"/>
	<path class="st0" d="M90,4.8v-3h-3.5v3.7c0,0.8-0.4,1.1-0.9,1.1h-5.1v0.8c0,1.1,0.7,2,2.2,2h10.5c1.1,0,1.8-0.7,1.8-1.7V6.6h-6.3
		C89.6,6.3,90,5.8,90,4.8z"/>
	<path class="st0" d="M88,10.5c-3.8,0-6.3,2.4-6.3,6.3c0,3.9,2.5,6.2,6.3,6.2s6.3-2.4,6.3-6.3C94.3,12.8,91.8,10.5,88,10.5z
		 M88,20.2c-2,0-2.9-1.4-2.9-3.4s0.9-3.4,2.9-3.4s2.9,1.4,2.9,3.4S90,20.2,88,20.2z"/>
	<path class="st0" d="M129.7,22.8c0-0.9-0.7-1.3-1.4-1.3h-15.7v9h17.1V22.8z M126.1,27.5h-10v-3.1h10V27.5z"/>
	<path class="st0" d="M122.8,14.3h7.1v-11h-3.6v3.3H116V3.2h-3.6v11h6.7v2.6h-10.8v0.8c0,1.3,0.7,2.2,2.2,2.2h21.6
		c1.1,0,1.8-0.7,1.8-1.7v-1.2h-11.1V14.3z M116,11.4v-2h10.3v2H116z"/>
	<path class="st0" d="M160.1,25.7V2.8h-3.4v25.6h0.9C158.9,28.4,160.1,27.5,160.1,25.7z"/>
	<path class="st0" d="M146.1,11.4c0,1.1,0.7,2,2.2,2h3.3v14.3h0.9c1.3,0,2.5-0.9,2.5-2.7V2.9h-3.4v7.6h-5.5V11.4z"/>
	<path class="st0" d="M149.5,18.6v-1.3h-8V7h5c1.1,0,1.8-0.7,1.8-1.7V4.1h-10.4v16.2h9.8C148.8,20.3,149.5,19.6,149.5,18.6z"/>
	<path class="st0" d="M180,11.6c0-4.4-2.4-8-7.3-8s-7.3,3.6-7.3,8c0,4.4,2.4,8,7.3,8S180,16,180,11.6z M172.8,16.6
		c-2.5,0-3.7-1.9-3.7-5c0-3.1,1.2-5,3.7-5s3.7,1.9,3.7,5C176.5,14.7,175.2,16.6,172.8,16.6z"/>
	<path class="st0" d="M187.3,25.7V2.8h-3.6v25.6h1.1C186.1,28.4,187.3,27.5,187.3,25.7z"/>
	<path class="st0" d="M211.4,10.5h-4.5v0.9c0,1.1,0.7,2,2.2,2h2.3v14.9h1.1c1.3,0,2.5-0.9,2.5-2.7V2.8h-3.6V10.5z"/>
	<path class="st0" d="M209.4,18.9v-1.3h-11.5v-4h5.9c1.1,0,1.8-0.7,1.8-1.7v-1.2h-7.7V7h6.5c1.1,0,1.8-0.7,1.8-1.7V4.1h-12v16.5
		h13.3C208.6,20.6,209.4,19.9,209.4,18.9z"/>
	<path class="st0" d="M228.2,30.4c-2.2-3.9-3.4-8.9-3.4-13.5c0-4.5,1.2-9.6,3.4-13.5L225.8,2c-3,3.8-4.6,9.4-4.6,14.9
		s1.6,11.1,4.6,14.9L228.2,30.4z"/>
	<path class="st0" d="M230,18.9c0,1.1,0.7,2,2.2,2h8.9v8.8h1.1c1.3,0,2.5-0.9,2.5-2.7v-6.1h9.1c1.1,0,1.8-0.7,1.8-1.7V18H230V18.9z"
		/>
	<path class="st0" d="M236.1,15.9c2.1-0.9,4.5-2.3,6.1-3.9c0.5-0.1,1.1-0.1,1.4,0.1l6.3,3.7c0.7,0.4,1.5,0.2,2-0.7l0.7-1.1L246,9.4
		c-0.4-0.3-1.2-0.4-1.7-0.1c0.4-0.8,0.4-1.3,0.4-2.7h5.4c1.1,0,1.8-0.7,1.8-1.7v-1h-18v0.8c0,1.1,0.7,2,2.2,2h4.9
		c0,1-0.1,1.5-0.6,2.3c-1.4,2-4.3,3.7-7,4.8l-0.7,0.3l0.5,1C233.8,16.4,234.8,16.4,236.1,15.9z"/>
	<path class="st0" d="M259.8,2l-2.4,1.4c2.2,3.9,3.4,8.9,3.4,13.5c0,4.5-1.2,9.6-3.4,13.5l2.4,1.4c3-3.8,4.6-9.4,4.6-14.9
		S262.8,5.8,259.8,2z"/>
	<polygon class="st0" points="111.7,42 105.4,42 105.4,37 104.3,37 104.3,48.1 105.4,48.1 105.4,42.9 111.7,42.9 111.7,48.1 
		112.9,48.1 112.9,37 111.7,37 	"/>
	<path class="st0" d="M119,37l-4.4,11.1h1.2l1.1-2.9h5.4l1.1,2.9h1.2L120.2,37H119z M117.2,44.3l2.4-6.2l2.4,6.2H117.2z"/>
	<path class="st0" d="M127.4,42.9h5.6c0.4,0,0.5-0.2,0.5-0.4V42h-6.1v-4h5.8c0.4,0,0.5-0.2,0.5-0.4V37h-7.4v11.1h7.1
		c0.4,0,0.5-0.2,0.5-0.4v-0.5h-6.5V42.9z"/>
	<path class="st0" d="M142.4,42.3c0.8-0.4,1.3-1.2,1.3-2.3c0-1.8-1.3-2.9-3.4-2.9H136v11.1h4.7c2.4,0,3.6-1.2,3.6-3.1
		C144.3,43.5,143.5,42.7,142.4,42.3z M137.1,38h3.2c1.5,0,2.3,0.7,2.3,2s-0.8,2-2.3,2h-3.2V38z M140.6,47.2h-3.5v-4.3h3.5
		c1.6,0,2.5,0.8,2.5,2.2C143.1,46.4,142.2,47.2,140.6,47.2z"/>
	<path class="st0" d="M151.2,36.7c-3.2,0-5.4,2.3-5.4,5.8c0,3.6,2.3,5.8,5.4,5.8s5.4-2.3,5.4-5.8C156.6,39,154.3,36.7,151.2,36.7z
		 M151.2,47.5c-2.5,0-4.3-2-4.3-4.9c0-2.9,1.8-4.9,4.3-4.9s4.3,2,4.3,4.9C155.5,45.5,153.6,47.5,151.2,47.5z"/>
	<path class="st0" d="M169.1,37h-0.8l-4.2,7.3l-4.2-7.3h-1.3v11.1h1.1v-9.3l3.8,6.6h1.1l3.8-6.6v9.3h1.1V37.5
		C169.5,37.2,169.3,37,169.1,37z"/>
	<path class="st0" d="M179.8,37h-3.7v11.1h3.7c3.3,0,5.6-1.9,5.6-5.5C185.4,38.9,183.2,37,179.8,37z M179.8,47.2h-2.6V38h2.6
		c2.6,0,4.5,1.5,4.5,4.6C184.3,45.7,182.4,47.2,179.8,47.2z"/>
	<path class="st0" d="M190.3,37l-4.4,11.1h1.2l1.1-2.9h5.4l1.1,2.9h1.2L191.6,37H190.3z M188.6,44.3l2.4-6.2l2.4,6.2H188.6z"/>
	<path class="st0" d="M204.4,37.6V37h-9.1v0.4c0,0.3,0.2,0.6,0.7,0.6h3.3v10.1h1.1V38h3.5C204.3,38,204.4,37.8,204.4,37.6z"/>
	<path class="st0" d="M208.2,37l-4.4,11.1h1.2l1.1-2.9h5.4l1.1,2.9h1.2L209.5,37H208.2z M206.5,44.3l2.4-6.2l2.4,6.2H206.5z"/>
	<rect x="219.7" y="37" class="st0" width="1.1" height="11.1"/>
	<path class="st0" d="M227.2,39.9c-1.1,0-2,0.4-2.6,1.1v-0.9h-1.1v8.1h1.1v-4.9c0-1.5,1-2.3,2.4-2.3c1.4,0,2.4,0.9,2.4,2.4v4.8h1.1
		v-4.8C230.5,41.2,229.1,39.9,227.2,39.9z"/>
	<path class="st0" d="M239.1,46.8c-0.7,0.4-1.6,0.7-2.5,0.7c-1.7,0-3.1-1.2-3.1-3.3c0-2.1,1.4-3.3,3.1-3.3c0.8,0,1.6,0.3,2.2,0.6
		c0.3,0.2,0.5,0,0.6-0.2l0.2-0.4l-0.4-0.2c-0.6-0.4-1.6-0.7-2.7-0.7c-2.5,0-4.2,1.6-4.2,4.3c0,2.6,1.8,4.3,4.2,4.3
		c1.3,0,2.2-0.3,2.9-0.8l0.4-0.2l-0.2-0.4C239.6,46.8,239.4,46.6,239.1,46.8z"/>
	<circle class="st0" cx="241.9" cy="48" r="1"/>
	<path class="st0" d="M58.9,17.2c-1.9,0-3.5,1.6-3.5,3.5s1.6,3.5,3.5,3.5s3.5-1.6,3.5-3.5C62.4,18.8,60.8,17.2,58.9,17.2z
		 M58.9,22.4c-0.9,0-1.7-0.8-1.7-1.7c0-0.9,0.8-1.7,1.7-1.7c1,0,1.7,0.8,1.7,1.7C60.6,21.6,59.8,22.4,58.9,22.4z"/>
	<path class="st0" d="M36.3,20.7c0-1.4-1.2-2.6-2.6-2.6c-1.4,0-2.6,1.2-2.6,2.6c0,1.4,1.2,2.6,2.6,2.6
		C35.1,23.3,36.3,22.1,36.3,20.7z"/>
	<path class="st0" d="M15.3,10c-1.3-0.6-2.8-1-4.4-1C9.7,9,8.5,9.3,7.6,9.7C6.9,10,6.1,10.5,5.4,11V1H0.6v17.5v4.6v9h2.5
		c0,0,0.6,0.1,1.7-1c0.5-0.6,0.7-1.5,0.7-1.5V23c-1,0.4-1.8,0.5-2.6,0.5c0.8,0,1.6-0.2,2.5-0.5v-3.5v-0.2c0-0.9,0.2-1.7,0.5-2.6
		c0.3-0.8,0.9-1.5,1.7-2.1c0.8-0.5,1.7-0.8,2.9-0.8c1.3,0,2.3,0.4,3.2,1.4c0.4,0.4,0.7,0.9,0.9,1.4c0,0-0.1,0-0.1,0
		c0.3,0.7,0.4,1.5,0.4,2.3v2.6V32h2.2c0,0,0.5,0.2,1.8-0.9c0.7-0.6,0.9-2.1,0.9-2.1v-6.5v-4c-1.4-1.9-3.1-2.3-4.7-2
		c1.6-0.4,3.3,0.1,4.7,2v-1.7c-0.1-1.5-0.5-2.9-1.3-4.1S16.6,10.6,15.3,10z"/>
	<path class="st0" d="M41.6,12.2c-1-1-2.2-1.7-3.6-2.2c-1.3-0.5-2.7-0.7-4.2-0.7c-2.2,0-5,1.2-5,1.2s1.1,4.5,2,4.1
		c0.9-0.4,1.8-0.6,2.7-0.6c0.8,0,1.5,0.1,2.2,0.4c0.7,0.2,1.4,0.7,2,1.2c0.6,0.6,1.1,1.3,1.4,2.2c0.3,0.9,0.5,1.9,0.5,3.1
		c0,0.7-0.1,1.4-0.3,2.2c0.3,0,0.9-0.1,1.4-0.2c-0.5,0.1-0.9,0.2-1.2,0.2c0,0.1,0,0.1-0.1,0.2c-0.3,0.8-0.7,1.6-1.2,2.2
		s-1.2,1.2-2,1.6c-0.8,0.4-1.8,0.6-2.9,0.6c-1.9,0-3.4-0.6-4.5-1.9c-0.8-0.9-1.3-2-1.5-3.4c0,0,0.1,0.1,0.1,0.1
		c-0.1-0.6-0.2-1.2-0.2-1.9V1.2H22v18.3c0,0-0.1,0-0.1,0v0.6c0.1,3.6,1.1,6.6,3,8.9c2,2.4,4.8,3.6,8.4,3.6c2.4,0,4.5-0.6,6.3-1.8
		c1.8-1.2,3.1-2.7,4-4.6c0.9-1.9,1.4-3.9,1.4-6c0-0.3,0-0.5,0-0.8c-0.1-1.3-0.4-2.6-0.9-3.7C43.5,14.4,42.7,13.2,41.6,12.2z"/>
	<path class="st0" d="M53.6,16.4c0.2-0.3,0.4-0.5,0.7-0.8c0.6-0.6,1.3-1,2-1.2c0.7-0.2,1.5-0.4,2.2-0.4c1,0,1.9,0.2,2.7,0.6
		c0.9,0.4,2-4.1,2-4.1s-2.9-1.2-5-1.2c-1.4,0-2.8,0.2-4.2,0.7c-1.3,0.5-2.5,1.2-3.6,2.2c-1,1-1.9,2.1-2.5,3.5
		c-0.1,0.2-0.1,0.3-0.2,0.5C49.1,15.4,51.6,14.1,53.6,16.4z"/>
	<path class="st0" d="M65,20.6c0,0.7-0.1,1.4-0.2,2c0,0-0.1,0-0.1,0c-0.2,1.3-0.7,2.4-1.5,3.3c-1.1,1.3-2.6,1.9-4.5,1.9
		c-1.1,0-2-0.2-2.9-0.6c-0.8-0.4-1.5-1-2-1.6c-0.5-0.7-0.9-1.4-1.2-2.2c-0.3-0.8-0.4-1.6-0.4-2.4c0-1.2,0.2-2.2,0.5-3.1
		c0.2-0.5,0.5-1,0.8-1.4c-2-2.3-4.5-1.1-5.8-0.2c-0.5,1.2-0.7,2.5-0.7,4c0.2,2.1,0.6,4.1,1.5,6c0.9,1.9,2.3,3.4,4,4.6
		c1.8,1.2,3.9,1.8,6.3,1.8c3.6,0,6.5-1.2,8.4-3.6c1.2-1.4,2-3.1,2.4-4.9c-1-1.5-2.4-1.9-3.7-1.8c1.3-0.1,2.8,0.2,3.8,1.7
		c0.3-1.2,0.5-2.5,0.5-3.9v-19H65V20.6z"/>
</g>
</svg>
