<?xml version="1.0" encoding="utf-8"?>
<!-- Generator: Adobe Illustrator 28.0.0, SVG Export Plug-In . SVG Version: 6.00 Build 0)  -->
<svg version="1.1" id="Layer_1" xmlns="http://www.w3.org/2000/svg" xmlns:xlink="http://www.w3.org/1999/xlink" x="0px" y="0px"
	 viewBox="0 0 250 30" style="enable-background:new 0 0 250 30;" xml:space="preserve">
<style type="text/css">
	.st0{fill:#FFFFFF;}
</style>
<g>
	<path class="st0" d="M98.7,2.6h-3.2v8.5h-2V2.6h-3.2v23.5h0.9c1.2,0,2.4-0.9,2.4-2.6v-9.7h2v13h0.9c1.2,0,2.4-0.9,2.4-2.6V2.6z"/>
	<path class="st0" d="M84.8,4.4V1.6h-3.3v3.5c0,0.8-0.4,1-0.9,1h-4.8v0.8c0,1,0.7,1.9,2.1,1.9h9.9c1,0,1.7-0.7,1.7-1.6v-1h-6
		C84.4,5.9,84.8,5.4,84.8,4.4z"/>
	<path class="st0" d="M82.9,9.8c-3.6,0-6,2.3-6,6s2.4,5.9,6,5.9c3.6,0,6-2.3,6-6S86.5,9.8,82.9,9.8z M82.9,19
		c-1.9,0-2.7-1.3-2.7-3.2s0.9-3.2,2.7-3.2c1.9,0,2.7,1.3,2.7,3.2S84.8,19,82.9,19z"/>
	<path class="st0" d="M106.2,20.3v8.5h16.2v-7.3c0-0.9-0.7-1.2-1.3-1.2H106.2z M118.9,25.9h-9.5V23h9.5V25.9z"/>
	<path class="st0" d="M104.2,18.6h20.4c1,0,1.7-0.7,1.7-1.6v-1.1h-10.5v-2.5h6.7V3h-3.4v3.1h-9.7V2.9H106v10.4h6.3v2.5h-10.2v0.8
		C102.1,17.8,102.8,18.6,104.2,18.6z M109.4,10.7V8.8h9.7v1.9H109.4z"/>
	<path class="st0" d="M151.1,24.2V2.6h-3.2v24.2h0.9C150,26.8,151.1,25.9,151.1,24.2z"/>
	<path class="st0" d="M137.9,10.7c0,1,0.7,1.9,2.1,1.9h3.1v13.5h0.9c1.2,0,2.4-0.9,2.4-2.6V2.6h-3.2v7.2h-5.2V10.7z"/>
	<path class="st0" d="M141.1,17.5v-1.2h-7.6V6.5h4.7c1,0,1.7-0.7,1.7-1.6V3.8h-9.8v15.3h9.3C140.4,19.1,141.1,18.5,141.1,17.5z"/>
	<path class="st0" d="M170,10.9c0-4.2-2.3-7.6-6.9-7.6c-4.6,0-6.9,3.4-6.9,7.6s2.3,7.6,6.9,7.6C167.7,18.5,170,15,170,10.9z
		 M163.1,15.6c-2.4,0-3.5-1.8-3.5-4.7s1.1-4.7,3.5-4.7c2.4,0,3.5,1.8,3.5,4.7S165.4,15.6,163.1,15.6z"/>
	<path class="st0" d="M176.9,24.2V2.6h-3.4v24.2h1C175.7,26.8,176.9,25.9,176.9,24.2z"/>
	<path class="st0" d="M199.7,9.8h-4.3v0.9c0,1,0.7,1.9,2.1,1.9h2.2v14.1h1c1.2,0,2.4-0.9,2.4-2.6V2.6h-3.4V9.8z"/>
	<path class="st0" d="M197.8,17.8v-1.2h-10.9v-3.8h5.6c1,0,1.7-0.7,1.7-1.6V10h-7.3V6.5h6.2c1,0,1.7-0.7,1.7-1.6V3.8h-11.4v15.6H196
		C197,19.4,197.8,18.7,197.8,17.8z"/>
	<path class="st0" d="M215.6,28.7c-2.1-3.7-3.2-8.4-3.2-12.8c0-4.3,1.1-9.1,3.2-12.8l-2.3-1.3c-2.8,3.6-4.4,8.9-4.4,14.1
		s1.5,10.5,4.4,14.1L215.6,28.7z"/>
	<path class="st0" d="M217.3,17.8c0,1,0.7,1.9,2.1,1.9h8.4V28h1c1.2,0,2.4-0.9,2.4-2.6v-5.8h8.6c1,0,1.7-0.7,1.7-1.6v-1.1h-24.2
		V17.8z"/>
	<path class="st0" d="M223,15c2-0.9,4.3-2.2,5.8-3.7c0.5-0.1,1-0.1,1.3,0.1l6,3.5c0.7,0.4,1.4,0.2,1.9-0.7l0.7-1l-6.2-4.4
		c-0.4-0.3-1.1-0.4-1.6-0.1c0.4-0.8,0.4-1.2,0.4-2.6h5.1c1,0,1.7-0.7,1.7-1.6V3.6h-17v0.8c0,1,0.7,1.9,2.1,1.9h4.6
		c0,0.9-0.1,1.4-0.6,2.2c-1.3,1.9-4.1,3.5-6.6,4.5l-0.7,0.3l0.5,0.9C220.9,15.4,221.8,15.4,223,15z"/>
	<path class="st0" d="M245.5,1.8l-2.3,1.3c2.1,3.7,3.2,8.4,3.2,12.8c0,4.3-1.1,9.1-3.2,12.8l2.3,1.3c2.8-3.6,4.4-8.9,4.4-14.1
		S248.3,5.4,245.5,1.8z"/>
</g>
<g>
	<path class="st0" d="M55.3,22c-1.8,0-3.3-1.5-3.3-3.3s1.5-3.3,3.3-3.3c1.8,0,3.3,1.4,3.3,3.3C58.7,20.4,57.1,22,55.3,22z M55.3,17
		c-0.9,0-1.6,0.8-1.6,1.6c0,0.9,0.8,1.6,1.6,1.6c0.9,0,1.6-0.8,1.6-1.6C57,17.7,56.3,17,55.3,17z"/>
	<path class="st0" d="M34,18.6c0,1.3-1.1,2.5-2.5,2.5c-1.3,0-2.5-1.1-2.5-2.5s1.1-2.5,2.5-2.5C32.8,16.2,34,17.3,34,18.6z"/>
	<path class="st0" d="M0.2,20.9v8.5h2.4c0,0,0.6,0.1,1.6-0.9c0.5-0.6,0.7-1.4,0.7-1.4v-6.2C3,21.5,1.5,21.4,0.2,20.9z"/>
	<path class="st0" d="M17.1,11.1c-0.8-1.1-1.8-2-3-2.6s-2.6-0.9-4.2-0.9c-1.1,0-2.3,0.3-3.1,0.7C6.1,8.5,5.4,9,4.7,9.5V0H0.2v16.6
		v4.4c1.3,0.5,2.8,0.6,4.5-0.1v-3.3v-0.2c0-0.9,0.2-1.6,0.5-2.5c0.3-0.8,0.9-1.4,1.6-2c0.8-0.5,1.6-0.8,2.7-0.8c1.2,0,2.2,0.4,3,1.3
		c0.4,0.4,0.7,0.9,0.9,1.3c1.7-0.6,3.5-0.3,4.9,1.8V15C18.2,13.5,17.9,12.2,17.1,11.1z"/>
	<path class="st0" d="M13.3,14.8c0.3,0.7,0.4,1.4,0.4,2.2v2.5v9.9h2.1c0,0,0.5,0.2,1.7-0.9c0.7-0.6,0.9-2,0.9-2v-6.2v-3.8
		C16.8,14.5,15,14.3,13.3,14.8z"/>
	<path class="st0" d="M42.2,17.4c-0.1-1.2-0.4-2.5-0.9-3.5c-0.6-1.2-1.3-2.4-2.4-3.3C38,9.7,36.9,9,35.6,8.5c-1.2-0.5-2.6-0.7-4-0.7
		c-2.1,0-4.7,1.1-4.7,1.1s1,4.3,1.9,3.9c0.9-0.4,1.7-0.6,2.6-0.6c0.8,0,1.4,0.1,2.1,0.4c0.7,0.2,1.3,0.7,1.9,1.1
		c0.6,0.6,1,1.2,1.3,2.1c0.3,0.9,0.5,1.8,0.5,2.9c0,0.7-0.1,1.3-0.3,2.1C38,20.8,41.3,20.4,42.2,17.4z"/>
	<path class="st0" d="M25.3,18.5V0.2h-4.9v17.4c1.2,0.3,3.3,1,5.1,2.7C25.4,19.8,25.3,19.2,25.3,18.5z"/>
	<path class="st0" d="M23.2,26.5c1.9,2.3,4.5,3.4,7.9,3.4c2.3,0,4.3-0.6,6-1.7c1.7-1.1,2.9-2.6,3.8-4.4c0.9-1.8,1.3-3.7,1.3-5.7
		c0-0.3,0-0.5,0-0.8c-0.9,2.9-4.2,3.4-5.2,3.5c0,0.1,0,0.1-0.1,0.2c-0.3,0.8-0.7,1.5-1.1,2.1s-1.1,1.1-1.9,1.5
		c-0.8,0.4-1.7,0.6-2.7,0.6c-1.8,0-3.2-0.6-4.3-1.8c-0.8-0.9-1.2-1.9-1.4-3.2c-1.8-1.7-3.8-2.4-5.1-2.7v0.6
		C20.4,21.5,21.4,24.3,23.2,26.5z"/>
	<path class="st0" d="M50.3,14.6c0.2-0.3,0.4-0.5,0.7-0.8c0.6-0.6,1.2-0.9,1.9-1.1c0.7-0.2,1.4-0.4,2.1-0.4c0.9,0,1.8,0.2,2.6,0.6
		c0.9,0.4,1.9-3.9,1.9-3.9s-2.7-1.1-4.7-1.1c-1.3,0-2.6,0.2-4,0.7c-1.2,0.5-2.4,1.1-3.4,2.1c-0.9,0.9-1.8,2-2.4,3.3
		c-0.1,0.2-0.1,0.3-0.2,0.5C46.1,13.6,48.4,12.4,50.3,14.6z"/>
	<path class="st0" d="M65.6,21.9c0.3-1.1,0.5-2.4,0.5-3.7v-18h-4.9v18.4c0,0.7-0.1,1.3-0.2,1.9C62.4,20.1,64.3,20,65.6,21.9z"/>
	<path class="st0" d="M45.5,23.9c0.9,1.8,2.2,3.2,3.8,4.4c1.7,1.1,3.7,1.7,6,1.7c3.4,0,6.2-1.1,7.9-3.4c1.1-1.3,1.9-2.9,2.3-4.6
		c-1.3-1.9-3.2-1.9-4.6-1.5c-0.2,1.2-0.7,2.3-1.4,3.1c-1,1.2-2.5,1.8-4.3,1.8c-1,0-1.9-0.2-2.7-0.6c-0.8-0.4-1.4-0.9-1.9-1.5
		c-0.5-0.7-0.9-1.3-1.1-2.1c-0.3-0.8-0.4-1.5-0.4-2.3c0-1.1,0.2-2.1,0.5-2.9c0.2-0.5,0.5-0.9,0.8-1.3c-1.9-2.2-4.3-1-5.5-0.2
		c-0.5,1.1-0.7,2.4-0.7,3.8C44.3,20.3,44.7,22.1,45.5,23.9z"/>
</g>
</svg>
