<?xml version="1.0" encoding="utf-8"?>
<!-- Generator: Adobe Illustrator 28.0.0, SVG Export Plug-In . SVG Version: 6.00 Build 0)  -->
<svg version="1.1" id="Layer_1" xmlns="http://www.w3.org/2000/svg" xmlns:xlink="http://www.w3.org/1999/xlink" x="0px" y="0px"
	 viewBox="0 0 314 32" style="enable-background:new 0 0 314 32;" xml:space="preserve">
<style type="text/css">
	.st0{fill-rule:evenodd;clip-rule:evenodd;fill:#20366D;}
	.st1{fill-rule:evenodd;clip-rule:evenodd;fill:#36A9E1;}
</style>
<g>
	<path class="st0" d="M129.2,7.5l-7.6,11.1h10.7L129.2,7.5z M104.2,30.2l20.9-29.6h9.8l9,29.6h-8.3l-1.5-5.2h-17l-3.5,5.2H104.2z"/>
	<path class="st0" d="M99.8,0.6H79.7l-6.1,29.6H82l1.5-7.4h3.8l5.5,7.4h10.3l-6.6-7.4h2.1c6,0,7.7-5.1,8.5-9.5l0.5-2.6
		C108.8,5,107.8,0.6,99.8,0.6z M100.1,10.6l-0.4,1.9c-0.4,1.7-1.3,3.2-3.3,3.2H85l1.7-8.3h10.7C99.9,7.4,100.5,8.6,100.1,10.6z"/>
	<polygon class="st0" points="0.2,30.2 8.7,30.2 14.7,0.6 6.3,0.6 	"/>
	<polygon class="st0" points="11.7,15.4 21.5,30.2 32.4,30.2 21.8,15.1 36.7,0.6 26.3,0.6 	"/>
	<path class="st1" d="M33.6,30.2c0,0,2.3-15.6,20.4-15.4c17.4,0,18.8-14.2,18.8-14.2H62.5c0,0-0.9,10.6-8.5,14.2
		c-9.3,4-9.9,15.4-9.9,15.4H33.6z"/>
	<path class="st1" d="M65.3,30.2l4.1-17.4c-3.6,3.2-8.4,3.8-10.8,3.8l-3.2,13.6H65.3z"/>
	<path class="st1" d="M41.3,0.6l-4.1,16.6c3.6-3,8.1-4,11-4.2l2.9-12.4C51.1,0.6,41.3,0.6,41.3,0.6z"/>
	<path d="M190.7,20.4V15h-10.9v-1.9h5.3v-2.8h-7.2V8.4H190c0.5-0.7,0.7-2.2,0.7-2.6V3.3c0-0.5-0.3-0.7-0.9-0.7h-9.5V0.8h10.7
		c1.4,0,2.6,0.1,2.6,2.2v2.8c0,0.9-0.3,1.8-0.8,2.6h3.6v1.9H188v2.8h4.4c0.9,0,1.3,0.2,1.3,1.1V19c0,0.7-0.4,1.4-1.3,1.4L190.7,20.4
		L190.7,20.4z"/>
	<path d="M173.8,6.4h3.3v1.8h-3.3v5.5c0,0.7-0.4,1.4-1.4,1.4h-1.6V0.4h3V6.4z"/>
	<path d="M163.4,17.5c0,0.7,0.2,0.9,0.6,0.9h10.2v1.8h-11.4c-1.3,0-2.4-0.6-2.4-2.4v-3.3h3V17.5z"/>
	<polygon points="164.5,2.5 164.5,0 162,0 162,2.5 157.2,2.5 157.2,4.3 169.2,4.3 169.2,2.5 	"/>
	<path d="M213.9,20.4V10.3h-1.7V19c0,0.7-0.4,1.4-1.3,1.4h-1.3V0.6h2.6v7.8h1.7V0.6h2.8V19c0,0.7-0.4,1.4-1.3,1.4H213.9z"/>
	<path d="M163.2,4.8c-2.8,0-5.1,2-5.1,4.6s2.3,4.6,5.1,4.6c2.8,0,5.1-2,5.1-4.6S166,4.8,163.2,4.8 M163.2,11.5c-1.3,0-2.4-1-2.4-2.2
		s1.1-2.2,2.4-2.2c1.3,0,2.4,1,2.4,2.2S164.6,11.5,163.2,11.5"/>
	<polygon points="248.8,15.8 248.8,10.9 245.8,10.9 245.8,15.8 238.1,15.8 238.1,17.7 256.5,17.7 256.5,15.8 	"/>
	<path d="M203.6,4.8c-2.8,0-5.1,2-5.1,4.6s2.3,4.6,5.1,4.6c2.8,0,5.1-2,5.1-4.6C208.7,6.8,206.4,4.8,203.6,4.8 M203.6,11.5
		c-1.3,0-2.4-1-2.4-2.2s1.1-2.2,2.4-2.2c1.3,0,2.4,1,2.4,2.2C206.1,10.5,205,11.5,203.6,11.5"/>
	<polygon points="204.9,2.5 204.9,0 202.4,0 202.4,2.5 202.3,2.5 198.1,2.5 198.1,4.3 209.2,4.3 209.2,2.5 	"/>
	<path d="M237.8,4.4V2.6h-3.3V0.4h-3V12h1.6c1,0,1.4-0.6,1.4-1.4V8.4h3.3V6.6h-3.3V4.4L237.8,4.4L237.8,4.4z"/>
	<path d="M227.8,11.6c-3.1,0-5.6,2-5.6,4.6s2.5,4.6,5.6,4.6c3.1,0,5.6-2,5.6-4.6S230.9,11.6,227.8,11.6 M227.8,18.2
		c-1.6,0-3-0.9-3-2.1c0-1.1,1.3-2.1,3-2.1c1.6,0,3,0.9,3,2.1S229.5,18.2,227.8,18.2"/>
	<path d="M223.9,0.7c-2.8,0-5.1,2.1-5.1,4.8s2.3,4.8,5.1,4.8c2.8,0,5.1-2.1,5.1-4.8S226.7,0.7,223.9,0.7 M223.9,7.8
		c-1.3,0-2.4-1-2.4-2.3s1.1-2.3,2.4-2.3c1.3,0,2.4,1,2.4,2.3S225.3,7.8,223.9,7.8"/>
	<path d="M249.1,5.3c0,0-0.2-0.5-0.2-1.3V3.3h5.3V1.4h-13.8v1.8h5.3V4c0,0.9-0.2,1.3-0.2,1.3c-0.7,2.2-3.3,4-6.3,4.6l0.4,1
		c0.2,0.7,0.7,0.7,1.2,0.6c2.1-0.4,5.1-1.7,6.5-3.7c1.4,2,4.4,3.3,6.5,3.7c0.5,0.1,1,0.1,1.2-0.6l0.4-1
		C252.4,9.3,249.8,7.5,249.1,5.3z"/>
	<path d="M273.1,8.4h3.3v1.8h-3.3V19c0,0.7-0.4,1.4-1.3,1.4h-1.7V0.6h3V8.4z"/>
	<path d="M291.1,0.4v5.2h-2.7v1.8h2.7v1.8h-2.7v1.8h2.7v1.4h1.7c1,0,1.3-0.6,1.3-1.4V0.4H291.1z"/>
	<path d="M288.6,2.7h-4.7V0.2h-2.5v2.5h-4.5v1.8h3c-1.2,0.8-1.9,2-1.9,3.4c0,2.4,2.1,4.3,4.8,4.3c2.6,0,4.7-1.9,4.7-4.3
		c0-1.4-0.7-2.6-1.9-3.4h3.1V2.7z M282.7,9.9c-1.2,0-2.3-0.9-2.3-2c0-1.1,1-2,2.3-2c1.2,0,2.3,0.9,2.3,2
		C284.9,9,283.9,9.9,282.7,9.9z"/>
	<path d="M310.6,0.6v13.9h-6v-2.3c1.8-0.6,3.2-2.2,3.2-4c0-1.2-0.5-2.2-1.4-3h0.9h2.1V3.4h-3.6h-1.5V1h-2.5v2.5h-5.1v1.8h2.3h0.7
		c-0.8,0.8-1.4,1.8-1.4,3c0,1.9,1.4,3.5,3.4,4.1v2.2h-5.5v1.8h14.5v4h1.7c1,0,1.3-1.1,1.3-1.8V0.6H310.6z M300.8,8.3
		c0-1.1,1-2,2.3-2s2.3,0.9,2.3,2s-1,2-2.3,2C301.8,10.3,300.8,9.3,300.8,8.3z"/>
	<path d="M280.7,18.9c0,0.7,0.6,1.3,1.3,1.3h9.5c1.7,0,2.5-0.6,2.5-2.2v-5.2h-3v1.8h-7.2v-1.8h-3L280.7,18.9L280.7,18.9z M291,17.9
		c0,0.4-0.2,0.5-0.4,0.5h-6.4c-0.4,0-0.4-0.3-0.4-0.6v-1.4h7.2V17.9z"/>
	<path d="M264.1,1.4l0.1,2.5c0.1,7.9,4.7,8.5,4.7,8.5l-0.7,1.1c-0.5,0.8-1.1,0.6-1.5,0.5c-1.6-0.5-3.2-2.1-4-4.1
		c-0.8,1.9-2.4,3.5-4,4.1c-0.4,0.1-1,0.3-1.5-0.5l-0.7-1.1c0,0,4.6-0.6,4.7-8.5l0.1-2.5C261.3,1.4,264.1,1.4,264.1,1.4z"/>
	<path d="M183.3,26.8v-2.3h1.1v5.1c0,0.3-0.1,0.5-0.5,0.5h-0.6v-2.6h-2.2v2.1c0,0.3-0.1,0.5-0.5,0.5h-0.6v-5.6h1.1v2.3H183.3z"/>
	<path d="M185.5,26.3c0.4,0,0.5,0.2,0.6,0.5l0.8,2.1l1.1-2.6h1.1l-2.1,4.7c-0.3,0.7-0.7,1-1.2,1c-0.2,0-0.6-0.1-0.8-0.2v-0.6
		c0.7,0.2,1,0.1,1.3-0.6l0.2-0.5l-1.6-3.7C184.8,26.3,185.5,26.3,185.5,26.3z"/>
	<path d="M190.9,30.2c-1.2,0.1-1.9-0.8-1.9-2c0-1.2,0.7-2,1.9-2c0.2,0,0.5,0.1,0.7,0.2v-2.2h1.1V30h-1.1v-0.2
		C191.5,30,191.2,30.1,190.9,30.2 M191.7,27.2c-0.2-0.2-0.4-0.3-0.7-0.3c-0.6,0-0.8,0.6-0.8,1.3c0,0.7,0.2,1.3,0.8,1.3
		c0.3,0,0.6-0.1,0.7-0.4V27.2z"/>
	<path d="M193.3,30v-3.7h1.1v0.4c0.1-0.1,0.4-0.3,0.6-0.4c0.2-0.1,0.8-0.2,1.1,0.1V27c-0.5-0.2-0.7-0.2-1.1-0.1
		c-0.2,0.1-0.4,0.2-0.6,0.4v2.2c0,0.3-0.2,0.6-0.5,0.6C193.9,30,193.3,30,193.3,30z"/>
	<path d="M200.1,28.2c0,1.2-0.8,2-2,2c-1.3,0-2.1-0.8-2.1-2c0-1.2,0.8-2,2.1-2C199.4,26.1,200.1,27,200.1,28.2 M198.1,29.5
		c0.7,0,1-0.7,1-1.3c0-0.7-0.3-1.3-1-1.3c-0.7,0-1,0.7-1,1.3C197.1,28.8,197.4,29.5,198.1,29.5"/>
	<path d="M205.1,30v-3.7h1.1v0.4c0.1-0.1,0.4-0.3,0.6-0.4c0.2-0.1,0.8-0.2,1.1,0.1V27c-0.5-0.2-0.7-0.2-1.1-0.1
		c-0.2,0.1-0.4,0.2-0.6,0.4v2.2c0,0.3-0.2,0.6-0.5,0.6C205.7,30,205.1,30,205.1,30z"/>
	<path d="M212,31.8v-5.5h1.1v0.2c0.2-0.2,0.5-0.3,0.7-0.3c1.2-0.1,1.9,0.8,1.9,2c0,1.2-0.7,2-2,2c-0.2,0-0.5-0.1-0.7-0.2v1.4
		c0,0.3-0.1,0.5-0.5,0.5L212,31.8L212,31.8z M213.1,27.2v2c0.1,0.2,0.4,0.3,0.7,0.3c0.6,0,0.9-0.6,0.9-1.3c0-0.7-0.3-1.4-0.8-1.3
		C213.5,26.8,213.3,27,213.1,27.2"/>
	<path d="M218.9,30v-2.7c0-0.4-0.3-0.6-0.6-0.6c-0.4,0-0.7,0.1-1,0.3v2.3c0,0.3-0.2,0.6-0.5,0.6h-0.6v-5.8h1.1v2.2
		c0.3-0.2,0.8-0.3,1.1-0.3c0.8,0,1.6,0.4,1.6,1.2v2.1c0,0.3-0.2,0.6-0.5,0.6H218.9z"/>
	<path d="M220.8,26.3c0.4,0,0.5,0.2,0.6,0.5l0.8,2.1l1.1-2.6h1.1l-2.1,4.7c-0.3,0.7-0.7,1-1.2,1c-0.2,0-0.6-0.1-0.8-0.2v-0.6
		c0.7,0.2,1,0.1,1.3-0.6l0.2-0.5l-1.6-3.7H220.8z"/>
	<path d="M204.3,26.2c-0.2-0.1-0.4-0.1-0.7-0.2c-0.2,0-0.5-0.1-0.9-0.1c-0.7,0-1.3,0.2-1.7,0.6c-0.4,0.4-0.6,1-0.6,1.7
		s0.1,1.2,0.4,1.6c0.3,0.4,0.8,0.5,1.3,0.5c0.3,0,0.6,0,0.8-0.1c0.1-0.1,0.3-0.1,0.4-0.2v0.1c0,0.2,0,0.4,0,0.5
		c0,0.1-0.1,0.2-0.2,0.3c-0.1,0.1-0.2,0.1-0.4,0.2c-0.1,0-0.4,0.1-0.6,0.1c-0.1,0-0.2,0-0.3,0c-0.1,0-0.2,0-0.3-0.1
		c-0.1,0-0.2,0-0.2-0.1c-0.1,0-0.1-0.1-0.2-0.1l-0.1,0l-0.2,0.8l0.1,0c0.2,0.1,0.4,0.1,0.6,0.2c0.2,0,0.5,0.1,0.8,0.1
		c0.6,0,1.1-0.1,1.4-0.4c0.3-0.3,0.5-0.7,0.5-1.2L204.3,26.2L204.3,26.2z M201.8,27.2c0.2-0.2,0.5-0.4,0.8-0.4c0.2,0,0.4,0,0.5,0
		c0.1,0,0.2,0,0.3,0.1v1.9c-0.1,0.2-0.2,0.4-0.3,0.6c-0.1,0.1-0.4,0.2-0.6,0.2c-0.4,0-0.6-0.1-0.7-0.3c-0.1-0.2-0.2-0.5-0.2-1
		C201.5,27.7,201.6,27.4,201.8,27.2"/>
	<path d="M158.3,30v-5.6h1.1v2.3l2-2.3h1.2l-2.1,2.4l2.2,3.2h-1.2l-1.7-2.5l-0.4,0.5v1.5c0,0.3-0.1,0.5-0.5,0.5L158.3,30L158.3,30z"
		/>
	<path d="M166.6,28.2c0,1.2-0.8,2-2,2c-1.3,0-2.1-0.8-2.1-2c0-1.2,0.8-2,2.1-2C165.8,26.1,166.6,27,166.6,28.2 M164.5,29.5
		c0.7,0,1-0.7,1-1.3c0-0.7-0.3-1.3-1-1.3s-1,0.7-1,1.3C163.5,28.8,163.9,29.5,164.5,29.5"/>
	<path d="M167,30v-3.7h1.1v0.4c0.1-0.1,0.4-0.3,0.6-0.4c0.2-0.1,0.7-0.2,1.1,0.1V27c-0.5-0.2-0.7-0.2-1.1-0.1
		c-0.2,0.1-0.4,0.2-0.6,0.4v2.2c0,0.3-0.2,0.6-0.5,0.6C167.6,30,167,30,167,30z"/>
	<path d="M173.4,29.1v0.7c-0.5,0.3-1,0.4-1.4,0.4c-1.4,0-2.1-1-2.1-2c0-1.1,0.7-2,1.9-2s1.9,1,1.9,2c0,0.1,0,0.2,0,0.3H171
		c0.1,0.6,0.4,1.1,1,1.1C172.4,29.5,172.9,29.4,173.4,29.1 M171,27.8h1.7c-0.1-0.6-0.4-1-0.8-1C171.4,26.8,171.1,27.2,171,27.8"/>
	<path d="M176.5,29.7c-0.3,0.3-0.7,0.5-1.2,0.5c-0.6,0-1.3-0.3-1.3-1.1c0-0.9,0.9-1.1,1.7-1.2c0.4-0.1,0.6-0.1,0.8-0.3v0
		c0-0.5-0.1-0.7-0.6-0.7c-0.4,0-1,0.2-1.4,0.6v-0.7c0.3-0.2,0.9-0.5,1.4-0.5c1.1,0,1.7,0.5,1.7,1.3V30h-1L176.5,29.7L176.5,29.7z
		 M176.5,29.1v-0.9c-0.2,0.1-0.4,0.2-0.8,0.2c-0.4,0.1-0.6,0.3-0.6,0.5c0,0.4,0.3,0.6,0.6,0.5C176,29.4,176.3,29.3,176.5,29.1"/>
	<path d="M228.4,29.7c-0.3,0.4-0.7,0.5-1.2,0.5c-0.6,0-1.3-0.3-1.3-1.1c0-0.9,1-1.1,1.7-1.2c0.4-0.1,0.7-0.1,0.8-0.3v0
		c0-0.5-0.1-0.7-0.6-0.7c-0.4,0-1,0.3-1.4,0.6v-0.7c0.3-0.2,0.9-0.5,1.4-0.5c1.1,0,1.7,0.5,1.7,1.4V30h-1.1L228.4,29.7L228.4,29.7z
		 M228.4,29.1v-0.9c-0.2,0.1-0.4,0.2-0.8,0.3c-0.4,0.1-0.6,0.3-0.6,0.5c0,0.4,0.3,0.6,0.6,0.5C227.9,29.4,228.3,29.2,228.4,29.1"/>
	<path d="M232.7,30v-2.7c0-0.4-0.3-0.6-0.6-0.6c-0.4,0-0.6,0.1-0.9,0.4v2.3c0,0.3-0.2,0.6-0.5,0.6h-0.6v-3.8h1.1v0.2
		c0.4-0.3,0.8-0.4,1.1-0.4c0.9-0.1,1.6,0.4,1.6,1.2v2.2c0,0.3-0.2,0.6-0.5,0.6H232.7z"/>
	<path d="M236.2,30.2c-1.2,0.1-1.9-0.8-1.9-2s0.7-2,1.9-2c0.3,0,0.5,0.1,0.7,0.2v-2.2h1.1V30h-1.1v-0.2
		C236.7,30,236.5,30.1,236.2,30.2 M236.9,27.1c-0.2-0.2-0.4-0.4-0.7-0.4c-0.6,0-0.9,0.6-0.9,1.3c0,0.7,0.3,1.3,0.9,1.3
		c0.3,0,0.6-0.1,0.7-0.4V27.1z"/>
	<path d="M240.9,30v-5.7h1.8c1.5,0,2.2,0.7,2.2,1.8c0,0.7-0.4,1.3-0.9,1.5c0.3,0.2,0.5,0.5,0.7,1l0.5,1.5H244l-0.4-1.3
		c-0.1-0.3-0.2-0.8-0.6-0.8h-1v1.6c0,0.3-0.1,0.5-0.5,0.5L240.9,30L240.9,30z M242.7,27.3c0.8,0,1.1-0.5,1.1-1.2
		c0-0.7-0.4-1.1-1.1-1.1H242v2.3H242.7z"/>
	<path d="M248.9,29v0.7c-0.5,0.3-1,0.5-1.4,0.5c-1.5,0-2.2-1-2.2-2c0-1.1,0.7-2,2-2s1.9,1,1.9,2c0,0.1,0,0.2,0,0.3h-2.8
		c0.1,0.7,0.4,1.1,1.1,1.1C247.9,29.5,248.3,29.3,248.9,29 M246.5,27.7h1.7c-0.1-0.6-0.4-1-0.8-1C246.8,26.8,246.5,27.2,246.5,27.7"
		/>
	<path d="M252.5,26.5v0.8c-0.4-0.3-0.8-0.6-1.3-0.6c-0.5,0-0.6,0.1-0.6,0.4c0,0.3,0.4,0.4,0.8,0.6c0.7,0.3,1.3,0.6,1.3,1.3
		c0,0.7-0.6,1.1-1.7,1.1c-0.4,0-1.1-0.2-1.6-0.6v-0.8c0.4,0.5,1,0.8,1.6,0.8c0.3,0,0.6-0.2,0.6-0.4c0-0.4-0.7-0.7-1-0.8
		c-0.7-0.3-1.1-0.6-1.1-1.1c0-0.8,0.8-1,1.6-1C251.7,26.1,252.1,26.2,252.5,26.5"/>
	<path d="M256.6,29v0.7c-0.5,0.3-1,0.5-1.4,0.5c-1.5,0-2.2-1-2.2-2c0-1.1,0.7-2,2-2s1.9,1,1.9,2c0,0.1,0,0.2,0,0.3h-2.8
		c0.1,0.7,0.4,1.1,1.1,1.1C255.6,29.5,256.1,29.3,256.6,29 M254.2,27.7h1.7c-0.1-0.6-0.4-1-0.8-1C254.6,26.8,254.3,27.2,254.2,27.7"
		/>
	<path d="M259.7,29.7c-0.3,0.4-0.7,0.5-1.2,0.5c-0.6,0-1.3-0.3-1.3-1.1c0-0.9,1-1.1,1.7-1.2c0.4-0.1,0.7-0.1,0.8-0.3v0
		c0-0.5-0.1-0.7-0.6-0.7c-0.4,0-1,0.3-1.4,0.6v-0.7c0.3-0.2,0.9-0.5,1.4-0.5c1.1,0,1.7,0.5,1.7,1.4V30h-1.1L259.7,29.7L259.7,29.7z
		 M259.7,29.1v-0.9c-0.2,0.1-0.4,0.2-0.8,0.3c-0.4,0.1-0.6,0.3-0.6,0.5c0,0.4,0.3,0.6,0.6,0.5C259.2,29.4,259.5,29.2,259.7,29.1"/>
	<path d="M261.3,30v-3.8h1.1v0.4c0.1-0.1,0.4-0.3,0.6-0.4c0.2-0.1,0.8-0.2,1.1,0.1V27c-0.5-0.2-0.8-0.2-1.1-0.1
		c-0.2,0.1-0.4,0.2-0.7,0.4v2.3c0,0.3-0.2,0.6-0.5,0.6L261.3,30L261.3,30z"/>
	<path d="M267.4,29.8c-0.4,0.2-0.8,0.3-1.2,0.3c-1.3,0-2.2-0.7-2.2-2s0.8-2,2.2-2c0.3,0,0.8,0.1,1.2,0.2v0.8
		c-0.3-0.3-0.7-0.4-1.1-0.4c-0.7,0-1.1,0.5-1.1,1.3c0,0.8,0.4,1.3,1.1,1.3c0.4,0,0.9-0.1,1.2-0.4L267.4,29.8L267.4,29.8z"/>
	<path d="M267.9,30v-5.9h1.1v2.2c0.3-0.2,0.8-0.3,1.1-0.3c0.9,0,1.6,0.4,1.6,1.2v2.2c0,0.3-0.2,0.6-0.5,0.6h-0.6v-2.7
		c0-0.4-0.3-0.6-0.6-0.6c-0.4,0-0.7,0.1-1,0.3v2.4c0,0.3-0.2,0.6-0.5,0.6C268.4,30,267.9,30,267.9,30z"/>
	<path d="M276.2,24.3h0.7c0.3,0,0.4,0.1,0.5,0.4l1.7,5.3H278l-0.5-1.5h-1.8l-0.3,1c-0.1,0.2-0.2,0.5-0.6,0.5h-0.7L276.2,24.3z
		 M276.1,27.8h1.3l-0.7-2.2L276.1,27.8z"/>
	<path d="M282.4,26.5v0.8c-0.4-0.3-0.8-0.6-1.3-0.6c-0.5,0-0.6,0.1-0.6,0.4c0,0.3,0.4,0.4,0.8,0.6c0.7,0.3,1.3,0.6,1.3,1.3
		c0,0.7-0.6,1.1-1.7,1.1c-0.4,0-1.1-0.2-1.6-0.6v-0.8c0.4,0.5,1,0.8,1.6,0.8c0.3,0,0.6-0.2,0.6-0.4c0-0.4-0.7-0.7-1-0.8
		c-0.7-0.3-1.1-0.6-1.1-1.1c0-0.8,0.8-1,1.6-1C281.6,26.1,282,26.2,282.4,26.5"/>
	<path d="M285.9,26.5v0.8c-0.4-0.3-0.8-0.6-1.3-0.6s-0.6,0.1-0.6,0.4c0,0.3,0.4,0.4,0.8,0.6c0.7,0.3,1.3,0.6,1.3,1.3
		c0,0.7-0.6,1.1-1.7,1.1c-0.4,0-1.1-0.2-1.6-0.6v-0.8c0.4,0.5,1,0.8,1.6,0.8c0.3,0,0.6-0.2,0.6-0.4c0-0.4-0.7-0.7-1-0.8
		c-0.7-0.3-1.1-0.6-1.1-1.1c0-0.8,0.8-1,1.6-1C285.1,26.1,285.5,26.2,285.9,26.5"/>
	<path d="M290.7,28.1c0,1.2-0.8,2-2.1,2c-1.3,0-2.1-0.8-2.1-2c0-1.2,0.8-2,2.1-2C289.9,26.1,290.7,27,290.7,28.1 M288.6,29.5
		c0.7,0,1-0.7,1-1.3c0-0.7-0.3-1.4-1-1.4c-0.7,0-1,0.7-1,1.4C287.6,28.8,287.9,29.5,288.6,29.5"/>
	<path d="M294.3,29.8c-0.4,0.2-0.8,0.3-1.2,0.3c-1.3,0-2.2-0.7-2.2-2s0.8-2,2.2-2c0.3,0,0.8,0.1,1.2,0.2v0.8
		c-0.3-0.3-0.7-0.4-1.1-0.4c-0.7,0-1.1,0.5-1.1,1.3c0,0.8,0.4,1.3,1.1,1.3c0.4,0,0.9-0.1,1.2-0.4L294.3,29.8L294.3,29.8z"/>
	<path d="M294.9,30v-3.8h1.1v3.2c0,0.3-0.2,0.6-0.5,0.6L294.9,30L294.9,30z M295.4,24.1c0.4,0,0.6,0.3,0.6,0.6
		c0,0.4-0.3,0.6-0.6,0.6s-0.6-0.3-0.6-0.6C294.8,24.4,295,24.1,295.4,24.1"/>
	<path d="M299,29.7c-0.3,0.4-0.7,0.5-1.2,0.5c-0.6,0-1.3-0.3-1.3-1.1c0-0.9,1-1.1,1.7-1.2c0.4-0.1,0.7-0.1,0.8-0.3v0
		c0-0.5-0.1-0.7-0.6-0.7c-0.4,0-1,0.3-1.4,0.6v-0.7c0.3-0.2,0.9-0.5,1.4-0.5c1.1,0,1.7,0.5,1.7,1.4V30h-1.1L299,29.7L299,29.7z
		 M299,29.1v-0.9c-0.2,0.1-0.4,0.2-0.8,0.3c-0.4,0.1-0.6,0.3-0.6,0.5c0,0.4,0.3,0.6,0.6,0.5C298.5,29.4,298.7,29.2,299,29.1"/>
	<path d="M301.1,26.9h-0.7v-0.7h0.7v-1.7h1.1v1.7h0.9v0.7h-0.9v1.8c0,0.6,0.1,0.8,0.9,0.5v0.7c-0.2,0.1-0.6,0.2-0.8,0.2
		c-0.7,0-1.2-0.1-1.2-1.4L301.1,26.9L301.1,26.9z"/>
	<path d="M303.7,30v-3.8h1.1v3.2c0,0.3-0.2,0.6-0.5,0.6L303.7,30L303.7,30z M304.2,24.1c0.4,0,0.6,0.3,0.6,0.6
		c0,0.4-0.3,0.6-0.6,0.6s-0.6-0.3-0.6-0.6C303.6,24.4,303.9,24.1,304.2,24.1"/>
	<path d="M309.5,28.1c0,1.2-0.8,2-2.1,2s-2.1-0.8-2.1-2c0-1.2,0.8-2,2.1-2C308.7,26.1,309.5,27,309.5,28.1 M307.5,29.5
		c0.7,0,1-0.7,1-1.3c0-0.7-0.3-1.4-1-1.4c-0.7,0-1,0.7-1,1.4C306.4,28.8,306.8,29.5,307.5,29.5"/>
	<path d="M312.7,30v-2.7c0-0.4-0.3-0.6-0.6-0.6c-0.4,0-0.6,0.1-0.9,0.4v2.3c0,0.3-0.2,0.6-0.5,0.6H310v-3.8h1.1v0.2
		c0.4-0.3,0.8-0.4,1.1-0.4c0.9-0.1,1.6,0.4,1.6,1.2v2.2c0,0.3-0.2,0.6-0.5,0.6H312.7z"/>
	<path d="M210.4,29.7c-0.3,0.3-0.7,0.5-1.2,0.5c-0.6,0-1.3-0.3-1.3-1.1c0-0.9,0.9-1.1,1.7-1.2c0.4-0.1,0.6-0.1,0.8-0.3v0
		c0-0.5-0.1-0.7-0.6-0.7c-0.4,0-1,0.2-1.4,0.6v-0.7c0.3-0.2,0.9-0.5,1.4-0.5c1.1,0,1.7,0.5,1.7,1.3V30h-1V29.7z M210.4,29.1v-0.9
		c-0.2,0.1-0.4,0.2-0.8,0.2c-0.4,0.1-0.6,0.3-0.6,0.5c0,0.4,0.3,0.6,0.6,0.5C209.9,29.4,210.3,29.3,210.4,29.1"/>
</g>
</svg>
