<?xml version="1.0" encoding="utf-8"?>
<!-- Generator: Adobe Illustrator 28.0.0, SVG Export Plug-In . SVG Version: 6.00 Build 0)  -->
<svg version="1.1" id="Layer_1" xmlns="http://www.w3.org/2000/svg" xmlns:xlink="http://www.w3.org/1999/xlink" x="0px" y="0px"
	 viewBox="0 0 314 32" style="enable-background:new 0 0 314 32;" xml:space="preserve">
<style type="text/css">
	.st0{fill:#0073AB;}
	.st1{fill:#00A1D4;}
	.st2{fill:url(#SVGID_1_);}
</style>
<g>
	<g>
		<g>
			<path class="st0" d="M228.1,18v13.7h1c0.4,0,0.7-0.3,0.7-1.1V18H228.1z"/>
			<path class="st0" d="M219.3,27.3c2.9-1.8,4.7-4.6,4.7-7.2h-4.4v-1.4h5.5c0.7,0,0.7,0.5,0.7,1c0,4.3-3,7.7-5.5,9L219.3,27.3z"/>
		</g>
		<g>
			<path class="st0" d="M242.5,23.6h-11.3V25h5.5V26H233v1.3h7.4v0.5c0,0.2-0.1,0.3-0.2,0.3H233v2.1c0,0.5,0.1,0.9,0.5,1.1
				c0.3,0.2,0.7,0.3,1.3,0.3h6.6c0.5,0,0.7-0.2,0.7-0.5v-0.8h-7c-0.2,0-0.3-0.1-0.3-0.3v-0.6h6c0.4,0,1-0.1,1.2-0.6
				c0.2-0.3,0.2-0.9,0.2-1.2v-0.8c0-0.5-0.2-0.7-0.7-0.7h-3V25h4.4c0.5,0,0.7-0.2,0.7-0.5v-0.9H242.5z"/>
			<path class="st0" d="M238.4,18.2V18h-1.7v0.1c0,2.1-2.5,3-4.2,3.3l0.5,1.3c1.4-0.2,3.5-0.7,4.6-2.5c1.1,1.8,3.2,2.3,4.6,2.5
				l0.5-1.3C240.9,21.1,238.4,20.2,238.4,18.2z"/>
		</g>
		<g>
			<path class="st0" d="M203.6,22.8V18h-1.7v13.7h1c0.4,0,0.7-0.3,0.7-1.1v-6.4h1.1c0.5,0,0.7-0.2,0.7-0.6v-0.9
				C205.4,22.8,203.6,22.8,203.6,22.8z"/>
			<path class="st0" d="M198.2,26h1.5c0.5-1.8,0.6-4,0.6-6.3c0-0.4,0-1-0.7-1h-6.3v1.4h5.4C198.7,21.6,198.7,24,198.2,26z"/>
			<path class="st0" d="M196.7,27.6v-3.8h-1.7v3.8h-2.3V29h7.5c0.5,0,0.7-0.2,0.7-0.5v-0.8L196.7,27.6L196.7,27.6z"/>
		</g>
		<g>
			<g>
				<path class="st0" d="M152.7,23.8L152.7,23.8l0,1.4h5.2V27h-3.7v1.4h7.3v3.3h1c0.4,0,0.6-0.3,0.6-1.1v-3c0-0.5-0.2-0.7-0.7-0.7
					h-2.9v-1.7h4.3c0.5,0,0.7-0.2,0.7-0.5v-0.9L152.7,23.8L152.7,23.8z"/>
			</g>
			<path class="st0" d="M161.2,23.1h1.6c0.3-0.6,0.5-2.5,0.5-3.5c0-0.4,0-1-0.7-1h-8.3v1.4h7.3C161.6,21,161.4,22.3,161.2,23.1z"/>
		</g>
		<g>
			<path class="st0" d="M170.1,19.7V18h-1.7v1.7h-2.3v1.4h5.5c0.5,0,0.7-0.2,0.7-0.6v-0.8H170.1z"/>
			<path class="st0" d="M176.2,18v4.3H175V18h-1.6v13.7h1c0.4,0,0.7-0.3,0.7-1.1v-6.9h1.2v8h1c0.4,0,0.7-0.3,0.7-1.1V18H176.2z"/>
			<path class="st0" d="M169.3,21.9c-1.6,0-2.8,1.4-2.8,3.4s1.3,3.3,2.8,3.3c1.6,0,2.8-1.4,2.8-3.3
				C172.1,23.2,170.9,21.9,169.3,21.9z M169.3,27.1c-0.7,0-1.3-0.8-1.3-1.9c0-1.1,0.6-1.9,1.3-1.9c0.7,0,1.3,0.8,1.3,1.9
				C170.6,26.3,170,27.1,169.3,27.1z"/>
		</g>
		<g>
			<path class="st0" d="M191.1,20.9c0.5,0,0.7-0.2,0.7-0.6v-0.8h-1.9V18h-1.7v8h1c0.4,0,0.7-0.3,0.7-1.1v-1.4h1.2
				c0.5,0,0.7-0.2,0.7-0.6v-0.8h-1.9v-1.3L191.1,20.9L191.1,20.9z"/>
			<g>
				<path class="st0" d="M185.6,26c-2.6,0-4.2,1.3-4.2,3s1.7,3,4.2,3c2.6,0,4.2-1.3,4.2-3C189.8,27.3,188.2,26,185.6,26z
					 M185.6,30.6c-1.6,0-2.5-0.7-2.5-1.6s1-1.6,2.5-1.6s2.5,0.7,2.5,1.6C188.1,29.9,187.1,30.6,185.6,30.6z"/>
				<path class="st0" d="M186.5,21.7c0-1.9-1.4-3.4-3.5-3.4s-3.5,1.5-3.5,3.4c0,1.9,1.4,3.4,3.5,3.4
					C185.1,25.1,186.5,23.6,186.5,21.7z M181.2,21.7c0-1.1,0.7-2,1.8-2s1.8,0.9,1.8,2s-0.7,2-1.8,2S181.2,22.9,181.2,21.7z"/>
			</g>
		</g>
		<g>
			<path class="st0" d="M253.7,18v8h-2.2v1.4h2.2v0.8h1c0.4,0,0.7-0.3,0.7-1.1V18H253.7z"/>
			<path class="st0" d="M244.5,24v1.4h3.3v1.9h1c0.4,0,0.7-0.3,0.7-0.8v-1.1h2.7c0.5,0,0.7-0.2,0.7-0.5V24H244.5z"/>
			<path class="st0" d="M248.7,30.1c-0.3,0-0.5-0.1-0.5-0.5V28h-1.7v2.1c0,0.5,0.1,0.9,0.4,1.1s0.7,0.3,1.3,0.3h6.6
				c0.5,0,0.7-0.2,0.7-0.5v-0.9L248.7,30.1L248.7,30.1z"/>
			<path class="st0" d="M248.6,18c-2,0-3.4,1.2-3.4,2.7c0,1.5,1.4,2.7,3.4,2.7c2,0,3.4-1.2,3.4-2.7C252,19.2,250.6,18,248.6,18z
				 M248.6,22.1c-1,0-1.8-0.6-1.8-1.4c0-0.8,0.7-1.4,1.8-1.4c1,0,1.8,0.6,1.8,1.4S249.6,22.1,248.6,22.1z"/>
		</g>
		<g>
			<path class="st0" d="M215.9,26.7h-7.6v1.4h6.7v3.6h1c0.4,0,0.6-0.3,0.6-1v-3.3C216.6,27,216.4,26.7,215.9,26.7z"/>
			<path class="st0" d="M216.6,21v-3h-1.7v8h1c0.4,0,0.7-0.3,0.7-1.1v-2.6h0.7c0.5,0,0.7-0.2,0.7-0.5V21L216.6,21L216.6,21z"/>
			<path class="st0" d="M210.1,19.8c-1.9,0-3.2,1.3-3.2,3c0,1.6,1.3,3,3.2,3c1.9,0,3.2-1.3,3.2-3C213.3,21.1,211.9,19.8,210.1,19.8z
				 M210.1,24.3c-1,0-1.7-0.7-1.7-1.6c0-0.8,0.7-1.6,1.7-1.6c1,0,1.7,0.7,1.7,1.6C211.8,23.6,211.1,24.3,210.1,24.3z"/>
			<path class="st0" d="M213.1,20.5c0.5,0,0.7-0.2,0.7-0.5v-0.8H211V18h-1.7v1.1h-2.7v1.3L213.1,20.5z"/>
		</g>
		<g>
			<path class="st0" d="M150.2,21.3V18h-1.7v9.9h1c0.4,0,0.7-0.3,0.7-1.1v-4.2h1.2c0.5,0,0.7-0.2,0.7-0.6v-0.8
				C152.1,21.3,150.2,21.3,150.2,21.3z"/>
			<path class="st0" d="M143.7,30.1c-0.3,0-0.5-0.1-0.5-0.5v-2.2h-1.7v2.6c0,0.5,0.1,0.9,0.4,1.1c0.3,0.2,0.7,0.3,1.3,0.3h6.6
				c0.5,0,0.7-0.2,0.7-0.5v-0.9H143.7z"/>
			<path class="st0" d="M143.5,19.9c-1.9,0-3.2,1.4-3.2,3.1s1.3,3.1,3.2,3.1s3.2-1.4,3.2-3.1C146.7,21.3,145.4,19.9,143.5,19.9z
				 M143.5,24.7c-1,0-1.6-0.8-1.6-1.8s0.7-1.8,1.6-1.8s1.6,0.8,1.6,1.8S144.4,24.7,143.5,24.7z"/>
			<path class="st0" d="M146.4,20.6c0.5,0,0.7-0.2,0.7-0.6v-0.8h-2.9V18h-1.7v1.2h-2.7v1.4L146.4,20.6z"/>
		</g>
	</g>
	<g>
		<path class="st1" d="M114.9,18c-0.5,0-17,0-17.5,0c-1.4,0-3.7,0.3-4.8,2c-1.2,1.8-0.6,4.3,2.6,5.2c0,0,2.7,0.8,3.7,1.2
			c0.7,0.3,1.2,0.8,0.9,1.7c-0.3,1-1.9,1-3,1c-0.1,0-1.4,0-1.7,0c-2.1,0-3.6,2-3.5,2.5c0,0.1,0.1,0.1,0.2,0.1c0.9,0,5.2,0,5.6,0
			c1.9,0,4.6-0.1,5.6-2c0.8-1.6,0.6-3.7-3.1-4.9c-1.6-0.5-2.4-0.8-3.5-1.2c-0.9-0.3-1.3-1-1.1-1.6c0.4-1.2,2.3-1.3,3-1.3
			c0.2,0,4,0,7.8,0v10.8c0,0.1,0.1,0.2,0.2,0.2h2.5c0.3,0,0.6-0.2,0.6-0.6V20.7c0.1,0,2.9,0,2.9,0c1.7,0,2.9-1.9,2.9-2.6
			C115.2,18,115.1,18,114.9,18z"/>
		<path class="st1" d="M75.5,18h-2.3c-0.3,0-0.5,0.2-0.5,0.5V30c0,0.6-0.2,0.9-1.4,0.5c-1.4-0.5-6-3-7.3-6.2c1.8-2.3,4-3.7,6.8-5.2
			c1.1-0.6,0.8-1,0.4-1h-3c-0.6,0-1.2,0-1.9,0.4c-1.6,1-3.8,3.5-4.6,5v-4.9c0-0.3-0.2-0.6-0.6-0.6h-2.2c-0.3,0-0.6,0.2-0.6,0.6v12.6
			c0,0.3,0.2,0.6,0.6,0.6h2.2c0.3,0,0.6-0.2,0.6-0.6v-5.8c0.4,1,1.1,2.2,1.9,3.4c1.9,2.6,3.8,3,5.6,3c0,0,5.1,0,5.5,0
			c1.2,0,1.3-0.7,1.3-1.7V18.6C76,18.3,75.8,18,75.5,18z"/>
		<g>
			<path class="st0" d="M132.5,22.9c-2.4-6.9-10.3-4.3-15.2-9.8c-2.5-2.7-3.2-4.8-3.5-5.8l0,0c-0.1-0.4-0.1-0.2-0.1,0.1
				c0.1,1.8,0.8,4.3,2.1,6.9c0.4,0.7,0.6,1.4,0.8,2c1.3,4,1,8.1-0.6,11.5c2.1-2.4,3.2-5.5,3.9-7.8c3.3,3.4,8.1,6.2,14.4,6.6
				C133.6,26,133,24.2,132.5,22.9z"/>
			<path class="st1" d="M127.8,0.1c-0.3,0.8-0.5,1.4-1.6,2.6c-1.8,2-3.8,3-5.6,5.5c-1.5,2.1-1.3,4.5-1.3,5.2c0.1-0.7,0-2.7,1.7-5.1
				c0.7-1.1,1.9-2.2,2.9-3.1c1.3-1.2,1.9-1.8,2.7-2.7c0.2-0.3,0.6-0.7,0.7-1c-0.1,0.2-0.3,0.6-0.5,0.9c-0.8,1.2-1.3,1.8-2.6,3.1
				c-1,1-2,2.1-2.7,3.1c-0.7,1.1-1.6,2.5-1.9,5c0.4-1.5,1-3.3,2.2-4.9c0.6-0.8,1.8-2.1,2.6-2.9c1.3-1.3,2.3-2.6,2.8-3.7
				c0.4-0.6,0.5-1.2,0.5-1.2s-0.1,0.5-0.4,1.1c-0.4,1-1.3,2.5-2.7,4.2c-0.8,1-1.6,1.9-2.3,2.9c-1,1.2-2,3.2-2.4,4.8
				c0.1-0.2,0.9-2.5,2.7-4.6c0.8-1,1.7-1.9,2.3-2.8c1.3-1.7,2.1-3.1,2.6-4.4c0.3-0.8,0.4-1.4,0.4-1.4s0,0.7-0.2,1.4
				c-0.3,1-0.7,2.5-2.4,4.9c-0.6,0.8-1.3,1.7-2.1,2.7c-1.4,1.7-2.5,3.7-3,4.5c0.4-0.6,1.5-2.3,3.2-4.3c0.6-0.7,1.4-1.7,2-2.6
				c1.4-2.1,2-3.8,2.3-5.1c0.1-0.6,0.2-0.7,0.2-1c0,0.3,0,0.7-0.1,1.1c-0.3,2.2-1.4,4.7-2.3,5.8c-2.4,3.2-3.6,4.3-5.1,6.2
				c1.4-1.5,4-3.8,5.7-6.4c0.8-1.3,1.6-3.2,1.8-5.2c0.1-0.5,0.1-0.6,0.1-1.1c0,0.4,0,1,0,1.6c-0.1,1.5-0.5,3.3-1.4,5
				c-0.7,1.3-2.4,3.3-5.8,6.2c1.8-1.3,4.5-3.2,6.1-6c0.8-1.4,1.2-3.2,1.3-4.5c0.1-0.6,0.1-1.8,0.1-1.8c0.1,0.7,0.1,1.6,0.1,2.5
				c0,1.6-0.4,3-1,4.1c-0.6,1.2-2.2,3.4-6.2,5.7c4.5-2.3,5.9-4.3,6.6-5.6c0.5-1,0.8-2.4,0.8-4c0-2.3-0.4-4.5-0.5-4.9
				C128,0,127.9-0.1,127.8,0.1z"/>
		</g>
		<g>
			
				<linearGradient id="SVGID_1_" gradientUnits="userSpaceOnUse" x1="80.8352" y1="-46.1006" x2="80.8352" y2="-54.07" gradientTransform="matrix(1 0 0 -1 0 -25.4)">
				<stop  offset="0" style="stop-color:#00A1D4"/>
				<stop  offset="1" style="stop-color:#0073AB"/>
			</linearGradient>
			<path class="st2" d="M77.4,23.3c-0.2,1.2,0,2.5,0.5,3.4c0.9,1.5,2.5,2.5,4.5,2.5c0.4,0,0.7,0,1-0.1c0.5-0.1,0.5-0.4,0.1-0.5
				c-1.7-0.4-3.6-2-3.1-4.8c0.4-1.9,2-3.3,4-3.3v-3.1C80.9,17.5,78,20,77.4,23.3z"/>
		</g>
		<g>
			<path class="st1" d="M85.8,17.7c-0.5-0.1-1-0.1-1.5-0.1c0,0-0.1,0-0.1,0v3.1c0.1,0,0.1,0,0.2,0c0.3,0,0.5,0,0.8,0.1
				c2.3,0.5,3.6,2.5,3.2,4.9c-0.1,0.6-0.4,1.4-0.7,1.9c-1.3,2.3-3.9,3.3-7.7,2.2c-0.7-0.2-0.4,0.2-0.1,0.5c0.3,0.3,1.1,1.1,2.6,1.4
				c0.5,0.1,1.2,0.2,1.7,0.2c3.4,0,6.3-2.4,7-5.7C92.2,22.3,89.7,18.5,85.8,17.7z"/>
		</g>
	</g>
</g>
</svg>
