<?xml version="1.0" encoding="utf-8"?>
<!-- Generator: Adobe Illustrator 28.0.0, SVG Export Plug-In . SVG Version: 6.00 Build 0)  -->
<svg version="1.1" id="Layer_1" xmlns="http://www.w3.org/2000/svg" xmlns:xlink="http://www.w3.org/1999/xlink" x="0px" y="0px"
	 viewBox="0 0 314 32" style="enable-background:new 0 0 314 32;" xml:space="preserve">
<style type="text/css">
	.st0{fill:#C71D1B;}
	.st1{fill:#5D5859;}
</style>
<g>
	<path class="st0" d="M98.8,31.4c-8.5,0-15.4-6.9-15.4-15.4S90.3,0.5,98.8,0.5s15.4,6.9,15.4,15.5C114.2,24.5,107.3,31.4,98.8,31.4
		 M98.8,0c-8.8,0-16,7.2-16,16s7.2,16,16,16s16-7.2,16-16C114.7,7.2,107.6,0,98.8,0"/>
	<path class="st0" d="M106.7,12.3c-0.1-0.2-0.2-0.4-0.5-0.7c-0.7-0.7-1.7-0.4-1.7-0.4c-0.1,0-0.2,0-0.4,0c-0.7-0.5-1.3-0.1-1.6,0.1
		c1.3,1.1,2.2,2.8,2.2,4.7c0,0.5-0.1,1-0.2,1.5c0.3,0,1,0,1.3-0.8c0-0.1,0.1-0.2,0.3-0.2c0,0,1-0.2,1.2-1.3c0-0.4,0-0.6,0-0.8
		c-0.1-0.4-0.1-0.7,0.1-1.1C107.1,12.8,106.9,12.6,106.7,12.3 M108.4,13C108.4,13.1,108.4,13.1,108.4,13c-0.4,0.6-0.4,0.7-0.3,1
		c0,0.2,0.1,0.6,0,1.1c-0.2,1.2-1.1,1.7-1.6,1.8c-0.3,0.6-0.7,1-1.2,1.1c0.3,0.4,0.4,0.9,0.3,1.6c0.2,0.4,0.7,1.3,0.2,2.4
		c-0.2,0.5-0.5,0.7-0.6,0.9c-0.2,0.2-0.4,0.3-0.4,1v0.1v0l0,0l0,0l0,0v0l0,0l0,0l0,0l0,0l0,0l0,0c0,0-0.1,0-0.1,0c0,0-0.1,0-0.1,0
		c-0.6-0.1-0.7-0.1-1,0.1c-0.2,0.1-0.5,0.3-1,0.4c-1.2,0.2-1.9-0.6-2.2-0.9c-0.7-0.1-1.1-0.4-1.4-0.8c-0.3,0.4-0.7,0.7-1.4,0.8
		c-0.3,0.4-1,1.1-2.2,0.9c-0.5-0.1-0.8-0.2-1-0.4c-0.3-0.1-0.4-0.2-1-0.1c-0.1,0-0.3,0-0.4-0.1l0,0l0,0c0,0,0-0.1,0-0.1
		c0-0.6-0.1-0.7-0.4-1c-0.2-0.2-0.4-0.4-0.6-0.8c-0.6-1.1-0.1-2,0.2-2.4c-0.1-0.7,0-1.2,0.3-1.6c-0.4-0.1-0.9-0.5-1.2-1.1
		c-0.4-0.1-1.4-0.6-1.6-1.8c-0.1-0.5,0-0.8,0-1.1c0-0.3,0.1-0.5-0.2-1c0-0.1-0.1-0.1-0.1-0.2v0v0c0,0,0,0,0-0.1
		c0-0.1,0.1-0.2,0.2-0.2c0.6-0.2,0.6-0.4,0.8-0.6c0.1-0.2,0.2-0.5,0.6-0.9c0.8-0.8,1.9-0.7,2.3-0.5c0.6-0.3,1.2-0.3,1.6-0.2
		c0-0.5,0.2-1,0.7-1.4c0-0.5,0.1-1.5,1.3-2c0.5-0.2,0.8-0.3,1.1-0.3c0.3,0,0.5-0.1,0.8-0.5h0c0,0,0,0,0-0.1h0c0,0,0,0,0,0h0l0,0h0
		l0,0h0h0l0,0C98.9,5.9,99,6,99,6c0,0,0,0.1,0.1,0.1c0.4,0.5,0.5,0.5,0.8,0.5c0.2,0,0.6,0.1,1.1,0.3c1.1,0.5,1.2,1.6,1.3,2
		c0.5,0.5,0.7,1,0.7,1.4c0.4-0.1,1-0.1,1.6,0.2c0.4-0.1,1.5-0.3,2.3,0.6c0.4,0.4,0.5,0.7,0.6,0.9c0.1,0.3,0.2,0.4,0.8,0.6
		c0,0,0.1,0,0.1,0c0.1,0,0.1,0.1,0.1,0.2v0L108.4,13L108.4,13C108.5,12.9,108.5,13,108.4,13 M98.8,4.5c-6.3,0-11.5,5.1-11.5,11.4
		s5.1,11.5,11.5,11.5c6.3,0,11.4-5.1,11.4-11.5C110.2,9.7,105.1,4.5,98.8,4.5 M98.7,9.8c1.2,0,2.3,0.4,3.3,1c0.1-0.3,0.2-1-0.4-1.5
		c-0.1-0.1-0.1-0.2-0.1-0.4c0,0,0.1-1.1-0.8-1.5c-0.4-0.2-0.6-0.2-0.8-0.2c-0.4,0-0.7-0.1-1.1-0.5c-0.4,0.4-0.7,0.4-1,0.5
		c-0.2,0-0.5,0.1-0.8,0.2C96,7.9,96.1,8.9,96.1,9c0,0.1,0,0.2-0.1,0.4c-0.7,0.5-0.6,1.2-0.4,1.5C96.5,10.2,97.6,9.8,98.7,9.8
		 M102,15.7l0.5-0.1l0.1-0.5l0.3,0.4h0.5l-0.3,0.4l0.1,0.5l-0.5-0.2l-0.4,0.3V16L102,15.7z M101.2,13.5l0.5-0.1l0.2-0.5l0.3,0.4h0.5
		l-0.3,0.4l0.2,0.5L102,14l-0.4,0.3l0-0.5L101.2,13.5z M101.1,20.5c0,0.1-0.1,0.2-0.1,0.2h-4.3c-0.1,0-0.1-0.1-0.1-0.2v-0.1
		c0-0.1,0.1-0.2,0.1-0.2h4.3c0.1,0,0.1,0.1,0.1,0.2V20.5z M96,14.3L95.6,14l-0.5,0.2l0.2-0.5L95,13.3h0.5l0.3-0.4l0.2,0.5l0.5,0.1
		L96,13.8V14.3z M95.2,16.5l-0.4-0.3l-0.5,0.2l0.1-0.5l-0.3-0.4h0.5L95,15l0.1,0.5l0.5,0.1L95.3,16L95.2,16.5L95.2,16.5z M96.7,19.5
		c0-0.1,0.1-0.1,0.1-0.1h3.9c0.1,0,0.1,0.1,0.1,0.1v0.2c0,0.1-0.1,0.2-0.1,0.2h-3.9c-0.1,0-0.1-0.1-0.1-0.2V19.5z M96.9,18.6
		c0-0.1,0.1-0.1,0.2-0.1h3.5c0.1,0,0.2,0.1,0.2,0.1v0.2c0,0.1-0.1,0.2-0.2,0.2h-3.5c-0.1,0-0.2-0.1-0.2-0.2V18.6z M97.4,11.9
		l0.3-0.4l0.1,0.5l0.5,0.1L98,12.4v0.5l-0.4-0.3l-0.5,0.2l0.1-0.5L97,11.9C97,11.9,97.4,11.9,97.4,11.9z M100,14.2
		c0.1,0,0.2,0.1,0.2,0.1v0.2c0,0.1-0.1,0.2-0.2,0.2h-2.6c-0.1,0-0.2-0.1-0.2-0.2v-0.2c0-0.1,0.1-0.1,0.2-0.1H100z M97.4,17.6h2.7
		c0.1,0,0.1,0.1,0.1,0.1v0.2c0,0.1-0.1,0.2-0.1,0.2h-2.7c-0.1,0-0.1-0.1-0.1-0.2v-0.2C97.3,17.7,97.3,17.6,97.4,17.6 M100,15.5h-2.6
		c-0.1,0-0.2-0.1-0.2-0.2v-0.2c0-0.1,0.1-0.1,0.2-0.1h2.6c0.1,0,0.2,0.1,0.2,0.1v0.2C100.2,15.4,100.2,15.5,100,15.5 M97.6,16.2V16
		c0-0.1,0.1-0.1,0.2-0.1h2c0.1,0,0.2,0.1,0.2,0.1v0.2c0,0.1-0.1,0.2-0.2,0.2h-2C97.7,16.4,97.6,16.3,97.6,16.2 M97.6,16.8h2.3
		c0.1,0,0.1,0.1,0.1,0.1v0.2c0,0.1-0.1,0.2-0.1,0.2h-2.3c-0.1,0-0.1-0.1-0.1-0.2v-0.2C97.5,16.8,97.5,16.8,97.6,16.8 M99.7,12
		l0.1-0.5l0.3,0.4h0.5l-0.3,0.4l0.1,0.5l-0.5-0.2l-0.4,0.3v-0.5l-0.4-0.3L99.7,12z M104.2,16c0-3-2.4-5.4-5.4-5.4
		c-3,0-5.4,2.4-5.4,5.4s2.4,5.4,5.4,5.4C101.7,21.4,104.2,19,104.2,16 M93.1,18.3c-0.3,0.2-0.7,0.6-0.5,1.4c0,0.1,0,0.2-0.1,0.4
		c0,0-0.7,0.8-0.2,1.7c0.2,0.4,0.4,0.5,0.5,0.7c0.3,0.3,0.5,0.5,0.6,1c0.5-0.1,0.8,0,1.1,0.2c0.2,0.1,0.4,0.2,0.8,0.3
		c1,0.1,1.5-0.7,1.6-0.7C96.9,23,97,23,97.2,23c0.8,0,1.1-0.6,1.2-0.9C96,21.9,93.9,20.4,93.1,18.3 M105,19.6
		c0.2-0.8-0.2-1.3-0.5-1.4c-0.8,2.1-2.9,3.7-5.3,3.9c0.1,0.3,0.4,0.8,1.2,0.9c0.1,0,0.2,0.1,0.3,0.2c0,0,0.6,0.9,1.6,0.7
		c0.4-0.1,0.6-0.2,0.8-0.3c0.3-0.2,0.6-0.3,1.1-0.2c0.1-0.5,0.3-0.7,0.5-1c0.2-0.2,0.3-0.4,0.5-0.7c0.5-0.9-0.2-1.7-0.2-1.7
		C104.9,19.9,104.9,19.8,105,19.6 M92.8,17.4c-0.1-0.5-0.2-1-0.2-1.5c0-1.9,0.9-3.6,2.2-4.7c-0.2-0.2-0.8-0.5-1.5,0
		c-0.1,0.1-0.2,0.1-0.4,0c0,0-1-0.4-1.7,0.3c-0.3,0.3-0.4,0.5-0.5,0.7c-0.1,0.3-0.3,0.6-0.8,0.8c0.2,0.5,0.2,0.8,0.1,1.2
		c0,0.2-0.1,0.4,0,0.8c0.2,1,1.1,1.3,1.2,1.3c0.1,0,0.2,0.1,0.3,0.2C91.9,17.4,92.5,17.5,92.8,17.4"/>
	<polygon class="st0" points="89.2,23.4 88.7,24.8 89.2,24.7 89.9,24.2 90.2,24.6 88,26.4 87.7,26 88.6,25.2 87.1,25.3 86.7,24.8 
		88.1,24.8 88.8,23 	"/>
	<polygon class="st0" points="87.3,22.5 88.3,22 88.5,22.4 87.5,23 86.5,24.5 86.2,24 86.9,23 85.7,23.2 85.5,22.7 	"/>
	<path class="st0" d="M87.5,20.3c0.2,0.5,0,1.1-0.6,1.2l-1.7,0.6L85,21.6l1.7-0.6c0.3-0.1,0.4-0.4,0.3-0.6c-0.1-0.2-0.3-0.4-0.6-0.2
		l-1.7,0.6l-0.2-0.5l1.7-0.6C86.8,19.5,87.4,19.8,87.5,20.3"/>
	<polygon class="st0" points="86.8,17.4 85.3,18.7 87,18.5 87.1,19 84.3,19.4 84.3,18.9 85.8,17.7 84.1,17.9 84,17.4 86.8,17 	"/>
	<path class="st0" d="M86.5,14.9c0.2,0.2,0.3,0.5,0.3,0.7c0,0.3-0.1,0.5-0.4,0.7c-0.3,0.2-0.6,0.2-1.1,0.2c-0.5,0-0.8,0-1.1-0.3
		c-0.2-0.2-0.3-0.4-0.3-0.7c0-0.6,0.5-0.9,0.9-1l0,0.5c-0.2,0-0.4,0.2-0.4,0.4c0,0.1,0.1,0.2,0.1,0.4c0.1,0.1,0.2,0.1,0.8,0.1
		c0.5,0,0.7,0,0.8-0.1c0.1-0.1,0.2-0.2,0.2-0.4c0-0.2,0-0.3-0.1-0.4c-0.1-0.1-0.2-0.1-0.4-0.1h-0.1l0,0.5h-0.5l0-1h0.4
		C86.1,14.7,86.3,14.8,86.5,14.9"/>
	<path class="st0" d="M84.9,12.9l-0.1,0.5l0.7,0.1l0.1-0.5c0-0.2-0.1-0.4-0.3-0.4C85.1,12.5,84.9,12.7,84.9,12.9 M86.1,13.1L86,13.6
		l1,0.2l-0.1,0.5l-2.7-0.6l0.2-1c0.1-0.5,0.6-0.7,1.1-0.6C85.9,12.2,86.2,12.6,86.1,13.1"/>
	<path class="st0" d="M85.8,10.3c-0.1,0-0.2,0.1-0.2,0.2c-0.1,0.1-0.1,0.2,0,0.4c0.1,0.1,0.2,0.2,0.7,0.4c0.5,0.2,0.6,0.2,0.8,0.2
		c0.1,0,0.2-0.1,0.2-0.2c0.1-0.1,0-0.3,0-0.4c-0.1-0.1-0.2-0.2-0.7-0.4C86.1,10.3,86,10.3,85.8,10.3 M87.7,10.7
		c0.1,0.2,0.1,0.5,0,0.8c-0.1,0.3-0.3,0.4-0.6,0.5c-0.4,0.1-0.7,0-1.1-0.2s-0.8-0.3-0.9-0.6c-0.1-0.2-0.1-0.5,0-0.8
		c0.1-0.3,0.3-0.4,0.6-0.5c0.4-0.1,0.7,0,1.1,0.2C87.3,10.2,87.6,10.3,87.7,10.7"/>
	<path class="st0" d="M87.1,8.1c-0.1,0-0.2,0.1-0.3,0.2c-0.1,0.1-0.1,0.2,0,0.4c0,0.1,0.1,0.2,0.6,0.5c0.4,0.3,0.6,0.4,0.7,0.3
		c0.1,0,0.2-0.1,0.3-0.2c0.1-0.1,0.1-0.2,0-0.4c0-0.1-0.1-0.2-0.6-0.5C87.4,8.1,87.3,8,87.1,8.1 M88.9,8.8c0.1,0.3,0,0.5-0.1,0.7
		c-0.2,0.2-0.4,0.4-0.6,0.4C87.7,10,87.5,9.8,87,9.6c-0.4-0.2-0.7-0.4-0.8-0.8c-0.1-0.2,0-0.5,0.1-0.7c0.2-0.2,0.4-0.4,0.6-0.4
		c0.4-0.1,0.6,0.1,1.1,0.4S88.8,8.4,88.9,8.8"/>
	<polygon class="st0" points="90.5,7.3 89.2,6.9 89.3,7.5 89.9,8.1 89.5,8.4 87.5,6.5 87.9,6.1 88.7,7 88.5,5.5 88.9,5 89.1,6.4 
		91,6.9 	"/>
	<polygon class="st0" points="93,5.6 91.2,4.7 92.1,6.1 91.7,6.3 90.2,4 90.6,3.8 92.3,4.7 91.4,3.2 91.9,3 93.4,5.3 	"/>
	<path class="st0" d="M93.9,3L94,4.1l0.6-0.2L93.9,3z M95.1,4.6l-0.3-0.4L94,4.6l0,0.5l-0.5,0.2l-0.1-2.9l0.4-0.1l1.9,2.3L95.1,4.6z
		"/>
	<polygon class="st0" points="96.3,2 96.8,4.2 96.3,4.3 95.9,2.1 95.2,2.2 95.1,1.7 96.9,1.4 97,1.8 	"/>
	<polygon class="st0" points="97.7,4.1 97.5,1.3 98,1.3 98.3,4.1 	"/>
	<path class="st0" d="M100,1.9c-0.1-0.1-0.2-0.2-0.3-0.2c-0.1,0-0.2,0-0.3,0.1c-0.1,0.1-0.1,0.2-0.2,0.8c0,0.5,0,0.6,0.1,0.8
		c0.1,0.1,0.2,0.2,0.3,0.2c0.1,0,0.2,0,0.3-0.1c0.1-0.1,0.1-0.2,0.2-0.8C100.1,2.2,100.1,2,100,1.9 M100.3,3.8
		c-0.2,0.2-0.4,0.3-0.7,0.2c-0.3,0-0.5-0.1-0.7-0.4c-0.2-0.3-0.2-0.6-0.2-1.1c0-0.5,0-0.8,0.3-1.1c0.2-0.2,0.4-0.3,0.7-0.2
		c0.3,0,0.5,0.1,0.7,0.4c0.2,0.3,0.2,0.6,0.2,1.1C100.6,3.2,100.5,3.6,100.3,3.8"/>
	<polygon class="st0" points="102.4,4.5 101.8,2.6 101.4,4.3 100.9,4.2 101.6,1.5 102,1.6 102.6,3.5 103,1.8 103.5,2 102.8,4.7 	"/>
	<path class="st0" d="M104.9,3.4l-0.7,0.8l0.6,0.3L104.9,3.4z M104.6,5.5l0.1-0.5l-0.8-0.4L103.5,5L103,4.7l2-2.1l0.4,0.2l-0.3,2.9
		L104.6,5.5z"/>
	<polygon class="st0" points="105.2,5.8 106.8,3.5 107.2,3.8 105.9,5.7 106.9,6.4 106.6,6.8 	"/>
	<path class="st0" d="M107.9,8.1c-0.4-0.4-0.4-1,0.1-1.4l1.4-1.2l0.3,0.4l-1.3,1.2c-0.2,0.2-0.3,0.5-0.1,0.7c0.2,0.2,0.4,0.2,0.7,0
		l1.3-1.2l0.4,0.4l-1.4,1.2C108.8,8.6,108.2,8.5,107.9,8.1"/>
	<polygon class="st0" points="109.6,10.5 110.5,8.7 109,9.6 108.8,9.1 111.1,7.8 111.4,8.1 110.4,9.9 111.9,9 112.2,9.4 109.8,10.9 
			"/>
	<polygon class="st0" points="109.9,11.3 112.5,10.3 112.7,10.7 110.1,11.8 	"/>
	<polygon class="st0" points="110.6,13.1 110.4,12.8 112.9,11.2 113.1,11.7 111.4,12.7 113.3,12.7 113.5,13.2 	"/>
	<polygon class="st0" points="110.8,14.1 113.6,13.8 113.7,15.5 113.3,15.6 113.1,14.4 112.5,14.4 112.6,15.4 112.1,15.5 112,14.5 
		111.3,14.6 111.5,15.8 111,15.8 	"/>
	<path class="st0" d="M113.2,17.3l0-0.5l-0.7-0.1l0,0.5c0,0.2,0.1,0.4,0.4,0.4C113,17.7,113.2,17.5,113.2,17.3 M110.9,17.5l1.2-0.4
		l0-0.4l-1.1-0.1l0-0.5l2.8,0.2l-0.1,1c0,0.5-0.4,0.8-0.9,0.8c-0.4,0-0.6-0.3-0.7-0.5l-1.2,0.5V17.5z"/>
	<path class="st0" d="M110.6,19.1c0.1-0.4,0.3-0.6,0.6-0.8l0.2,0.4c-0.2,0.1-0.3,0.3-0.4,0.5c-0.1,0.3,0,0.5,0.2,0.5
		c0.1,0,0.2,0,0.2,0c0.1,0,0.1-0.1,0.1-0.2l0.1-0.3c0.1-0.2,0.2-0.4,0.4-0.4c0.1-0.1,0.3-0.1,0.6,0c0.5,0.1,0.7,0.5,0.6,1.1
		c-0.1,0.4-0.2,0.6-0.5,0.7l-0.2-0.4c0.2-0.1,0.3-0.3,0.3-0.5c0.1-0.3-0.1-0.4-0.2-0.5c-0.1,0-0.1,0-0.2,0c-0.1,0-0.1,0.1-0.2,0.2
		l-0.1,0.3c-0.1,0.2-0.2,0.3-0.4,0.4c-0.2,0.1-0.4,0.1-0.6,0C110.6,20.1,110.4,19.6,110.6,19.1"/>
	<polygon class="st0" points="110.2,20.3 112.8,21.3 112.6,21.8 110,20.8 	"/>
	<polygon class="st0" points="111.4,23.2 109.4,22.1 109.6,21.6 111.6,22.7 112,22.1 112.4,22.3 111.5,24 111.1,23.8 	"/>
	<polygon class="st0" points="109.2,24.4 108.3,23.7 108.6,23.3 109.5,24 111.3,24.3 111,24.8 109.8,24.5 110.4,25.6 110.1,26 	"/>
	<path class="st0" d="M96.6,30l-0.2,1l-0.4-0.1l0.2-0.8l-2-0.5l0.1-0.4l1,0.3l0.1-0.3l-1.1-0.3l0.1-0.4l2.7,0.7l-0.1,0.3l-1.2-0.3
		l-0.1,0.3l0.8,0.2C96.5,29.7,96.6,29.7,96.6,30"/>
	<path class="st0" d="M96.6,28.2l0,0.2L95,28.1l0-0.2L96.6,28.2z M94.7,28.3l2.2,0.6l0.3-1.1l-0.4-0.1l-0.1,0.2l-1.6-0.4l0.1-0.2
		l-0.4-0.1l-0.2,1C94.6,28.1,94.5,28.3,94.7,28.3"/>
	<path class="st0" d="M97.9,30.3h1V30H98v-1.7h0.8v-0.4h-1.2v2.1C97.6,30.1,97.6,30.3,97.9,30.3"/>
	<polygon class="st0" points="99.9,28.8 99.5,28.8 99.5,27.9 99.1,27.9 99.1,30.4 99.5,30.4 99.5,29.2 99.9,29.2 99.9,30.4 
		100.3,30.4 100.3,27.9 99.9,27.9 	"/>
	<polygon class="st0" points="106.5,27.9 105.9,27 105.5,27.2 106.1,28.1 105.7,28.4 105.1,27.5 104.8,27.7 105.3,28.6 104.8,28.9 
		105,29.2 107.6,27.7 107.3,27.4 	"/>
	<path class="st0" d="M106.3,26l0.6,1.1l-0.4,0.2l-0.6-1l-1.8,1l-0.2-0.3l2-1.1C105.9,25.9,106.1,25.8,106.3,26"/>
	<path class="st0" d="M101.8,28.4c0.2-0.1,0.4,0,0.5,0.2c0,0.2-0.1,0.4-0.3,0.4c-0.2,0.1-0.4,0-0.5-0.2
		C101.5,28.6,101.6,28.4,101.8,28.4 M101.5,28.1c-0.3,0.2-0.5,0.5-0.4,0.8c0.1,0.4,0.5,0.6,1,0.5c0.4-0.1,0.7-0.5,0.6-0.9
		c-0.1-0.3-0.4-0.5-0.7-0.5l0-0.1l0.6-0.2l-0.1-0.4l-0.6,0.2l-0.1-0.2l-0.4,0.1l0.1,0.2l-0.6,0.1l0.1,0.4L101.5,28.1L101.5,28.1
		L101.5,28.1z M103.4,27.8l-0.2-0.7l-0.4,0.1l0.5,1.8l0.4-0.1l-0.2-0.7l0.4-0.1l-0.1-0.4L103.4,27.8z M103.6,29.2l-2.1,0.6l0.1,0.4
		l1.9-0.5l0.2,0.8l0.4-0.1l-0.2-1C103.7,29.1,103.6,29.2,103.6,29.2"/>
	<path class="st0" d="M92.1,29.2c-0.3-0.1-0.5-0.5-0.4-0.7s0.5-0.3,0.8-0.1c0.3,0.1,0.5,0.4,0.4,0.7C92.8,29.3,92.4,29.3,92.1,29.2
		 M93.3,29.3L93.3,29.3c0.2-0.4-0.1-0.9-0.6-1.2c-0.5-0.2-1.1-0.1-1.3,0.2c-0.2,0.4,0.1,0.9,0.6,1.2C92.5,29.7,93.1,29.6,93.3,29.3"
		/>
	<path class="st0" d="M93.9,26.8l-0.1,0.3l-0.6-0.3L93,27.1l0.6,0.3l-0.1,0.2l-0.6-0.3l-0.1,0.4l0.6,0.3l-0.2,0.4l0.4,0.2l0.7-1.6
		L93.9,26.8z M93.1,26.5L91.9,26l-0.1,0.3l0.9,0.4c0,0-0.1,0.1-0.2,0.2c-0.5,0.5-1.2,0.3-1.2,0.3l-0.1,0.3c1.5,0.5,2-0.8,2-0.8
		C93.2,26.5,93.1,26.5,93.1,26.5"/>
	<path class="st1" d="M169.2,23.2h6.9v-2.6h-5.9V8.9h5.5V6.3h-8.6v15C167.1,21.3,167.1,23.2,169.2,23.2"/>
	<polygon class="st1" points="223.9,20.9 223.9,13.3 220.9,13.3 220.9,20.9 217.5,20.9 217.5,13.3 214.5,13.3 214.5,20.9 
		210.5,20.9 210.5,23.5 231.2,23.5 231.2,20.9 	"/>
	<path class="st1" d="M163.3,22v7h-3v-6h-14.4v-2.5h7.2v-2.1h-8.2V16h19.7v2.4H156v2.1h6C162,20.5,163.3,20.5,163.3,22"/>
	<path class="st1" d="M147,14.2h16.3V6.1h-3v1.7h-11.3V6.1h-3V13C145.9,13,145.9,14.2,147,14.2 M160.3,11.7h-11.3v-1.6h11.3V11.7z"
		/>
	<polygon class="st1" points="183.1,12.2 180.4,12.2 180.4,6 177.4,6 177.4,23.8 180.4,23.8 180.4,14.8 183.1,14.8 183.1,23.8 
		186.2,23.8 186.2,6 183.1,6 	"/>
	<path class="st1" d="M229.6,8.1v9.2h-3V9h-15V6.4h16.2C227.8,6.4,229.6,6.3,229.6,8.1"/>
	<path class="st1" d="M206,20.8h-15.7v2.6h14V29h3v-7C207.3,20.7,206,20.8,206,20.8 M207.3,11.4V6h-3v13.3h3v-5.4h2.7v-2.5H207.3z
		 M193.5,10c-2.3,0.6-4,2.5-4,4.7c0,2.7,2.5,4.9,5.6,4.9c3,0,5.6-2.2,5.6-4.9c0-2.3-1.9-4.3-4.3-4.8V9.2h4.7V6.7h-4.6V5.2h-3v1.5
		h-4.3v2.5h4.4v0.7L193.5,10z M195.1,12.3c1.5,0,2.7,1.1,2.7,2.4c0,1.3-1.2,2.4-2.7,2.4c-1.4,0-2.7-1-2.7-2.4
		C192.4,13.4,193.6,12.3,195.1,12.3"/>
	<path class="st1" d="M142.2,23.5L142.2,23.5c0-3-3.4-5.5-7.6-5.5s-7.6,2.5-7.6,5.5c0,3,3.4,5.5,7.6,5.5
		C138.8,28.9,142.2,26.4,142.2,23.5 M134.7,26.6c-2.4,0-4.5-1.4-4.5-3.1c0-1.7,2.1-3.2,4.5-3.2c2.1,0,4.6,1.2,4.6,3.2
		C139.3,25.4,136.7,26.6,134.7,26.6"/>
	<path class="st1" d="M132.8,6.3h-9.3v2.4h6.9c0,0.4-0.1,1-0.4,1.8c-1.6,4.7-6.9,5.6-6.9,5.6l0.1,2.3c10.9-1.5,10.3-11.2,10.3-11.2
		C133.6,6.3,132.8,6.3,132.8,6.3 M139,5.9v2.4h-4.7v2.6h4.7v1.8h-4.8v2.5h4.8v3h3.1V5.9H139z"/>
</g>
</svg>
