<?xml version="1.0" encoding="utf-8"?>
<!-- Generator: Adobe Illustrator 28.0.0, SVG Export Plug-In . SVG Version: 6.00 Build 0)  -->
<svg version="1.1" id="Layer_1" xmlns="http://www.w3.org/2000/svg" xmlns:xlink="http://www.w3.org/1999/xlink" x="0px" y="0px"
	 viewBox="0 0 314 32" style="enable-background:new 0 0 314 32;" xml:space="preserve">
<style type="text/css">
	.st0{fill:#005CB9;}
	.st1{fill:#002F87;}
	.st2{fill:#004B93;}
</style>
<g>
	<g>
		<path class="st0" d="M62.6,0.6c-7,1-13,4.9-14.6,11.5c0,0.3-0.2,1.2,0.5,1.5c0.4,0.2,1.1,0,1.9-0.7c3-2.5,2.7-0.8,2.7,2.9
			s-0.7,4.1-2.6,2.7c-0.8-0.6-1.7-1.3-2.2-1.2c-0.5,0.1-0.6,0.7-0.5,1.4c1.4,6.8,7.5,11.3,14.7,11.9c9.5,0.8,15.1-6.8,15.1-15.1
			C77.7,7.4,73-0.8,62.6,0.6z M61.9,20.6c-2.7,0-4.9-2.2-4.9-4.9s2.3-4.8,5-5.1c3.9-0.4,5.3,2.1,5.3,4.9
			C67.4,18.5,65,20.6,61.9,20.6z"/>
		<path class="st0" d="M106.8,2.4c0-2.3-10.1-2.6-15.1-1.4s-7,3.6-7.5,7.3c-0.2,1.7-0.5,3.8-0.5,3.8c-0.5,1.3-4.1,1.1-4.1,3.2
			c0,1.7,3.6,1.7,4.1,3.2c0,0,0.2,1.8,0.5,4.5c0.4,3.7,2,5.9,6.5,6.9c5,1.2,14.4,1,14.4-0.6c0-2.9-13.9-6.6-14.4-10.2
			c-0.2-1.5,0.9-2.3,3.1-2.3c2.6,0,7.5,5.1,9.2-1.7c1.9-7.6-7-0.9-9.2-0.9c-1.8,0-3-0.8-3-2.1C90.7,8.5,106.8,5.6,106.8,2.4z"/>
		<g>
			<path class="st1" d="M138.9,13c0,0.4,0,0.7,0,1.1c0,3.5-1.5,5.6-3.3,5.6c-1.8,0-2.5-1.7-2.4-3.6c0.1-1.9-0.1-3.3-1.5-3.3
				c-1.7,0-2.9,1.8-4.9,4.1c-1.6,1.9-3.4,3.3-4.7,3.3c-1.2,0-1.8-1.1-1.8-3.4s-0.2-3.2-1.5-3.2c-1.3,0-2.5,1.3-4.1,3.2
				c-1.5,2-2.5,3.4-4.1,3.4c-1.3,0-2.7-0.7-3.2-2.2c-0.5,3.2-0.4,6.1-0.3,7.7c0.1,2.4,0.8,4,2.4,4c1.6,0,2.5-1.4,4.1-3.4
				c1.5-2,2.7-3.2,4.1-3.2c1.3,0,1.5,0.9,1.5,3.2s0.6,3.4,1.8,3.4c1.2,0,3.1-1.4,4.7-3.3c1.9-2.3,3.1-4.1,4.9-4.1
				c1.4,0,1.6,1.4,1.5,3.3c-0.1,1.9,0,3.6,1.8,3.6c1.8,0,3.8-2.9,4.4-6.3C138.7,20.4,138.9,16.5,138.9,13z"/>
			<path class="st0" d="M110.6,20.1c1.6,0,2.5-1.4,4.1-3.4c1.5-2,2.7-3.2,4.1-3.2c1.3,0,1.5,0.9,1.5,3.2s0.6,3.4,1.8,3.4
				c1.2,0,3.1-1.4,4.7-3.3c1.9-2.3,3.1-4.1,4.9-4.1c1.4,0,1.6,1.4,1.5,3.3c-0.1,1.9,0.6,3.6,2.4,3.6c1.8,0,3.3-2.1,3.3-5.6
				c0-0.3,0-0.7,0-1.1c0-1.9-0.1-3.7-0.2-5c-0.3-2.5-0.5-6.3-3.8-6.8c-5.4-0.8-8.4,7.1-12.7,7.3c-3,0.1-2.1-5.4-6.1-4.9
				c-1.4,0.1-3.4,1.1-5.2,4.1c-2,3.2-3,7-3.5,10.4C107.9,19.5,109.3,20.1,110.6,20.1z"/>
		</g>
		<g>
			<g>
				<g>
					<path class="st0" d="M46.4,25.8c-0.1-1.1-0.8-2.1-2-2.9L42,21.5c-2.6-1.4-6.5-3.5-6.5-5.3c0-2.4,3.5-5.4,6.9-7.3
						c2.1-1.1,3.3-2.6,3.5-4.2c0-0.1,0-0.2,0-0.3c0-1.1-0.6-2.2-1.7-3c-1.3-1-3.1-1.3-4.9-0.9C37.4,1,36,2.1,35.3,3.6
						c-2,4.8-3.7,6.6-6.8,9.4c0-1.9,0.8-3.8,1.6-5.5c0.4-1,0.8-1.9,1-2.6c0.1-0.6,0.2-1.2,0.2-1.7c0-0.9-0.2-1.6-0.7-2.1
						c-0.7-0.8-2-1.2-4.1-1.2c-3.2,0-6.1,2.4-6.1,4.9l0.2,6.3l0.2,5l-0.2,11.2c0,2.8,3.2,3.1,5.7,3.1c2.6,0,4.4-1.1,4.8-3.1
						c0-0.2,0.1-0.4,0.1-0.6c0-1-0.4-2-0.8-3.2c-0.4-1.1-0.9-2.4-1.1-3.7c0,0,0-0.1,0-0.2c0,0,0.2,0,0.7,0.2
						c2.6,1.1,4.8,3.2,6.4,5.9c1.3,2.2,3,3.6,4.9,3.8c1.4,0.2,2.7-0.2,3.7-1.1c1-0.8,1.5-1.8,1.5-2.7C46.4,26,46.4,25.9,46.4,25.8z"
						/>
				</g>
				<path class="st0" d="M39.6,13.5c-0.8,0-1.5,0.7-1.5,1.5s0.7,1.5,1.5,1.5c0.8,0,1.5-0.7,1.5-1.5C41,14.1,40.4,13.5,39.6,13.5z"/>
			</g>
		</g>
	</g>
	<g>
		<g>
			<path class="st2" d="M234.9,18c-1.7,0-3.2,0.6-4.5,1.8c-1.2,1.2-1.8,2.7-1.8,4.3c0,1.7,0.6,3.1,1.8,4.3c1.2,1.2,2.7,1.8,4.5,1.8
				c1.8,0,3.3-0.6,4.5-1.8c1.2-1.2,1.8-2.6,1.8-4.3c0-1.7-0.6-3.1-1.8-4.3C238.2,18.6,236.7,18,234.9,18z M236.8,26.5
				c-0.5,0.6-1.2,0.9-1.9,0.9c-0.7,0-1.3-0.3-1.9-0.9c-0.5-0.6-0.8-1.4-0.8-2.3c0-1,0.3-1.7,0.8-2.3c0.5-0.6,1.1-0.9,1.9-0.9
				s1.4,0.3,1.9,0.9c0.5,0.6,0.8,1.4,0.8,2.3C237.6,25.2,237.3,25.9,236.8,26.5z M256.2,18.5c-1.7,0-3.2,0.6-4.4,1.8
				c-1.2,1.2-1.8,2.6-1.8,4.3c0,1.7,0.6,3.1,1.8,4.3c1.2,1.2,2.7,1.8,4.4,1.8c1.7,0,3.2-0.6,4.4-1.8s1.8-2.6,1.8-4.3
				c0-1.7-0.6-3.1-1.8-4.3C259.4,19.1,257.9,18.5,256.2,18.5z M258,26.7c-0.5,0.6-1.1,0.8-1.8,0.8c-0.7,0-1.2-0.3-1.8-0.8
				c-0.5-0.6-0.8-1.3-0.8-2.1s0.3-1.6,0.8-2.1c0.5-0.6,1.1-0.8,1.8-0.8c0.7,0,1.3,0.3,1.8,0.8c0.5,0.6,0.8,1.3,0.8,2.1
				C258.8,25.4,258.6,26.1,258,26.7z M167.8,4.4h-0.7c-0.7,0-1.2,0.5-1.3,1.2c0,0.5,0,1,0,1.5c0,0,0,5.3,0,5.7h-1.4V5.7
				c0-0.7-0.6-1.3-1.4-1.4h-0.7c-0.7,0-1.3,0.6-1.3,1.4V9h-4.8V6.5c0-0.7-0.6-1.3-1.3-1.3h-1.1c-0.7,0-1.3,0.6-1.3,1.3V9h-1.8
				c-0.7,0-1.3,0-1.3,0h-0.7c-0.6,0-1,0.5-1,1V11c0,0.6,0.5,1,1,1h1c-0.2,0.4-0.4,0.7-0.6,1.2c-0.2,0.6-0.3,1.2-0.3,1.8
				c0,1.6,0.5,3,1.6,4.2s2.4,1.8,4,1.8s2.9-0.6,4-1.8c1.1-1.2,1.6-2.6,1.6-4.2c0-0.6-0.1-1.3-0.2-1.8c-0.1-0.5-0.4-0.8-0.6-1.2h1.9
				v15.3c0,1.7,0,2.7,0,2.7v0.5c0,0.7,0.6,1.3,1.3,1.4h0.7c0.7,0,1.4-0.6,1.4-1.4v-3.3V15.9h1.4v13.3c0,0.6,0,1.1,0,1.6
				c0.1,0.7,0.6,1.2,1.3,1.2h0.7c0.7,0,1.3-0.6,1.3-1.3v-25C169,5,168.5,4.4,167.8,4.4z M155.7,17.3c-0.4,0.5-0.8,0.8-1.3,0.8
				c-0.5,0-1-0.3-1.3-0.8l0,0c-0.4-0.6-0.6-1.3-0.6-2.2s0.2-1.6,0.6-2.1c0.4-0.6,0.8-0.8,1.4-0.8c0.5,0,0.9,0.3,1.3,0.8
				c0.4,0.6,0.6,1.3,0.6,2.2C156.3,16,156.1,16.7,155.7,17.3z M241.3,4.4h-1c-0.7,0-1.3,0.6-1.3,1.3v2.7c-0.5,0-1.2,0-1.2,0v0.1
				l0-0.1H236c-0.6,0-1,0.5-1,1.1v0.7c0,0.6,0.5,1,1,1.1h1.8c0,0,0.2,0,0.5,0h0.7V13c-0.5,0-1.2,0-1.2,0v0.1l0-0.1H236
				c-0.6,0-1,0.5-1,1.1v0.7c0,0.6,0.5,1,1,1.1h1.8c0,0,0.2,0,0.5,0h0.7c0,0.5,0,0.6,0,0.6v1.7c0,0.7,0.6,1.3,1.3,1.3h1
				c0.7,0,1.3-0.6,1.3-1.3V5.7C242.6,5,242,4.4,241.3,4.4z M184.3,18c-1.7,0-3.2,0.6-4.5,1.8c-1.2,1.2-1.9,2.7-1.9,4.3
				c0,1.7,0.6,3.1,1.9,4.3c1.2,1.2,2.7,1.8,4.5,1.8c1.8,0,3.2-0.6,4.5-1.8c1.2-1.2,1.8-2.6,1.8-4.3c0-1.7-0.6-3.1-1.8-4.3
				C187.6,18.6,186.1,18,184.3,18z M186.2,26.5c-0.5,0.6-1.1,0.9-1.9,0.9c-0.7,0-1.4-0.3-1.9-0.9c-0.5-0.6-0.8-1.4-0.8-2.3
				c0-1,0.3-1.7,0.8-2.3c0.5-0.6,1.1-0.9,1.9-0.9s1.4,0.3,1.9,0.9c0.5,0.6,0.8,1.4,0.8,2.3C187,25.2,186.7,25.9,186.2,26.5z
				 M182.9,16c1.2-1.2,1.9-2.7,1.9-4.5s-0.6-3.3-1.9-4.5c-1.2-1.2-2.8-1.9-4.5-1.9s-3.3,0.6-4.5,1.9c-1.2,1.2-1.9,2.7-1.9,4.5
				s0.6,3.3,1.9,4.5c1.2,1.2,2.7,1.9,4.5,1.9S181.7,17.2,182.9,16z M176.4,13.9c-0.6-0.7-0.8-1.5-0.8-2.4c0-1,0.3-1.8,0.8-2.4
				s1.2-1,1.9-1c0.7,0,1.4,0.3,1.9,1c0.6,0.7,0.8,1.5,0.8,2.4s-0.3,1.8-0.8,2.4c-0.6,0.7-1.2,1-1.9,1
				C177.6,14.9,177,14.6,176.4,13.9z M216.5,26.8h-1.7l0,0h-9.2c-0.1,0-0.1-0.1-0.1-0.1v-3.1l0,0c0-0.7-0.6-1.3-1.3-1.4h-1
				c-0.7,0-1.3,0.6-1.3,1.4v3.8c0,0.8,0.2,1.4,0.6,1.9c0.4,0.4,1,0.6,1.8,0.6h9.8c0,0,0,0,0,0l0,0h0c0,0,0,0,0,0h2.4
				c0.6,0,1.1-0.5,1.1-1.1V28C217.6,27.3,217.1,26.9,216.5,26.8z M193.9,7.5h-1.1l0,0c0,0-0.8,0-1.2,0V5.7c0-0.7-0.5-1.3-1.3-1.3h-1
				c-0.7,0-1.3,0.6-1.4,1.3v12.4c0,0.7,0.6,1.3,1.4,1.3h1c0.7,0,1.3-0.6,1.3-1.3v-1.3c0,0,0-0.2,0-0.5v-1.2h0.4c0.4,0,0.9,0,0.9,0
				h1.1c0.5,0,1-0.5,1-1v-0.8c0-0.5-0.5-1-1-1h-1.1l0,0c0,0-0.8,0-1.2,0v-1.8h0.4c0.4,0,0.9,0,0.9,0h1.1c0.5,0,1-0.5,1-1V8.6
				C194.9,8,194.5,7.6,193.9,7.5z M219.6,11h-2l0,0h-0.2V5.7c0-0.7-0.6-1.3-1.3-1.3h-1c-0.7,0-1.3,0.6-1.3,1.3v11.9
				c-0.3,0.2-0.7,0.4-1.1,0.5c-0.5,0.1-1.2,0.2-2,0.2c0,0-3.1,0-3.6,0v-1c1-0.4,1.8-0.9,2.4-1.7c0.7-0.9,1-1.9,1-3
				c0-0.5-0.1-1-0.2-1.5c0,0-0.2-0.5-0.4-0.9c0.6,0,0.9,0,0.9,0h0.6c0.6,0,1-0.5,1-1.1V8.4c0-0.6-0.5-1-1-1.1h-0.6l0,0
				c0,0-3.2,0-3.7,0V5.5c0-0.7-0.6-1.3-1.3-1.3h-1.1c-0.7,0-1.3,0.6-1.3,1.3v1.8c-0.5,0-4.5,0-4.5,0l0,0h-0.2c-0.6,0-1,0.5-1,1.1
				v0.7c0,0.6,0.5,1,1,1.1h0.2c0,0,1,0,1.6,0c-0.2,0.4-0.4,0.9-0.4,0.9c-0.2,0.5-0.2,1-0.2,1.5c0,1.1,0.4,2.1,1,3
				c0.6,0.8,1.4,1.4,2.4,1.7v1h-3.4c-0.3,0-0.4,0-0.4,0h-1.4c-0.6,0-1,0.5-1.1,1.1v0.8c0,0.6,0.5,1.1,1.1,1.1h11.7l2.8-0.1
				c0.6-0.1,1-0.2,1.4-0.5c0,0.5,0,0.6,0,0.6v1.4c0,0.7,0.6,1.3,1.3,1.3h1c0.7,0,1.3-0.6,1.3-1.3v-1.4c0,0,0-0.4,0-0.8V14h0.2
				c0.4,0,0.6,0,0.6,0h1.4c0.6,0,1-0.5,1-1V12C220.6,11.5,220.1,11,219.6,11z M206.3,14.2c-0.3,0.4-0.7,0.6-1.3,0.6s-1-0.2-1.3-0.7
				c-0.4-0.5-0.5-1-0.5-1.7c0-0.6,0.2-1.2,0.5-1.7c0.3-0.5,0.7-0.7,1.3-0.7s1,0.2,1.3,0.7c0.3,0.5,0.5,1.1,0.5,1.7
				C206.8,13.2,206.6,13.7,206.3,14.2z M292.7,11.1h-1.6l0,0c0,0-0.2,0-0.7,0V5.7c0-0.7-0.6-1.3-1.3-1.3h-1c-0.7,0-1.3,0.6-1.3,1.3
				v9.2c-0.4,0.2-0.7,0.4-1.2,0.5c-0.5,0.1-1.3,0.2-2.2,0.2h-8.6l-0.1-0.1l-0.1-0.2c0,0,0-5.6,0-6.1h4.9h0c0,0,0,0,0,0h2.4
				c0.6,0,1.1-0.5,1.1-1.1V7.4c0-0.6-0.5-1.1-1.1-1.1h-1.4l0,0h-8.2c-0.7,0-1.3,0.6-1.3,1.4v7.4c0,1.2,0.3,2.1,0.8,2.7
				c0.6,0.6,1.4,0.9,2.5,0.9h8.1c1.2,0,2.2-0.1,2.9-0.2c0.6-0.1,1-0.3,1.5-0.6c0,0.7,0,2,0,2h3.6c0,0,0-5.4,0-5.9h2.2
				c0.6,0,1-0.5,1-1v-0.9C293.7,11.6,293.2,11.1,292.7,11.1z M266.6,15h-0.7l0,0c0,0-8.3,0-8.9,0v-1.6c0-0.4,0-0.7,0-0.7v-1.3l0,0
				c0-0.7-0.6-1.4-1.4-1.4h-1c-0.7,0-1.4,0.6-1.4,1.4v1.3l0,0V15c-0.5,0-6.2,0-6.2,0l0,0h-1.3c-0.6,0-1,0.5-1,1v0.9
				c0,0.6,0.5,1,1,1.1h20.9c0.6,0,1-0.5,1-1.1V16C267.6,15.5,267.1,15,266.6,15z M289.8,26.8h-1.7l0,0h-9.2c-0.1,0-0.1-0.1-0.1-0.1
				V22l0,0c0-0.7-0.6-1.4-1.3-1.4h-1c-0.7,0-1.3,0.6-1.3,1.4v5.3c0,0.8,0.2,1.4,0.6,1.9c0.4,0.4,1,0.6,1.8,0.6h9.7h0c0,0,0,0,0,0
				h2.6c0.6,0,1.1-0.5,1.1-1.1V28C290.8,27.3,290.4,26.9,289.8,26.8z M233.7,12.7c0.7-1.4,1.1-3.1,1.1-5V6.8c0-0.7-0.6-1.3-1.3-1.3
				h-7.9l0,0h-1.2c-0.6,0-1.1,0.5-1.1,1.1v0.8c0,0.6,0.5,1.1,1.1,1.1h6.4c0,0,0,0.1,0,0.1c0,1-0.2,2-0.6,3c-0.4,0.9-1,1.8-1.6,2.5
				c-0.8,0.8-1.7,1.6-2.8,2.1c-1.1,0.6-2.3,1-3.6,1.2c-0.2,0.1-0.3,0.2-0.3,0.3l0,0.3l1.6,2l0.2,0c1.1-0.1,2.3-0.5,3.6-1.1
				c1.4-0.6,2.7-1.4,3.9-2.5C232.1,15.3,233,14.1,233.7,12.7z"/>
			<path class="st2" d="M286.8,16.3v5.4c0,0.7,0.6,1.3,1.3,1.3h1c0.7,0,1.3-0.6,1.3-1.3v-9.2"/>
		</g>
		<path class="st2" d="M264.3,13.8c0.3-0.6,0.5-1.1,0.6-1.7c0,0,0.2-1.2,0.2-1.9s0-3.5,0-3.5c0-0.7-0.6-1.3-1.3-1.3h-13.6l0,0h-1.9
			c-0.6,0-1.1,0.5-1.1,1.1v0.8c0,0.6,0.5,1.1,1.1,1.1h13l0.2,0c0,0,0,0,0,0c0,0.1,0,0.2,0,0.2v1.3l-0.1,2c-0.1,0.6-0.3,1.3-0.7,2
			c-0.1,0.3,0,0.4,0.2,0.4h2.8C264,14.2,264.2,14,264.3,13.8z"/>
	</g>
</g>
</svg>
