<?xml version="1.0" encoding="utf-8"?>
<!-- Generator: Adobe Illustrator 28.0.0, SVG Export Plug-In . SVG Version: 6.00 Build 0)  -->
<svg version="1.1" id="Layer_1" xmlns="http://www.w3.org/2000/svg" xmlns:xlink="http://www.w3.org/1999/xlink" x="0px" y="0px"
	 viewBox="0 0 314 32" style="enable-background:new 0 0 314 32;" xml:space="preserve">
<style type="text/css">
	.st0{fill:#003863;}
	.st1{fill:#E4032E;}
	.st2{fill:#575756;}
</style>
<g>
	<g>
		<g>
			<g>
				<g>
					<g>
						<g>
							<path class="st0" d="M127.4,15.3c-2.8-1.9-6.4-1.1-8.2,1.7c-1.6,2.4-3.9,2.7-4.8,2.7c-3,0-5-2.1-5.6-4.3l0,0c0,0,0,0,0-0.1
								c0,0,0,0,0-0.1c-0.2-0.9-0.3-1.3-0.3-2.3c0-5.2,5.3-10.9,12.9-10.9c7.8,0,12.3,6,13.5,9.3c0-0.1,0-0.1-0.1-0.2
								C132.6,4.7,126.4,0,119.1,0c-9.1,0-16.5,7.4-16.5,16.5c0,8.1,5.9,15.1,14,15.1c6.5,0,10.9-3.6,12.9-8.7
								C130.6,20.2,129.9,17,127.4,15.3z"/>
						</g>
						<g>
							<path class="st1" d="M134.9,11.6c-1-3.2-5.5-9.6-13.6-9.6c-7.7,0-12.9,5.8-12.9,10.9c0,1,0.1,1.4,0.3,2.3
								c-0.1-0.4-0.1-0.8-0.1-1.2c0-5.4,5.4-9.1,10.9-9.1C127,5,133,11.1,133,18.6c0,5.9-3.4,11-8.3,13.4l0,0
								c6.4-2.3,10.9-8.4,10.9-15.5C135.7,14.8,135.4,13.3,134.9,11.6z"/>
						</g>
					</g>
				</g>
			</g>
		</g>
	</g>
	<g>
		<path class="st2" d="M151.4,11.7v1.4h-7.3v-1.4h2.8v-1.6h1.8v1.6H151.4z M151.1,17c0,0.4-0.1,0.8-0.3,1.2s-0.4,0.7-0.7,1
			c-0.3,0.3-0.7,0.5-1.1,0.7c-0.4,0.2-0.8,0.2-1.3,0.2c-0.5,0-0.9-0.1-1.3-0.2c-0.4-0.2-0.7-0.4-1.1-0.7c-0.3-0.3-0.6-0.6-0.7-1
			c-0.2-0.4-0.3-0.8-0.3-1.2s0.1-0.8,0.3-1.2c0.2-0.4,0.4-0.7,0.7-1c0.3-0.3,0.6-0.5,1.1-0.7c0.4-0.2,0.8-0.2,1.3-0.2
			c0.5,0,0.9,0.1,1.3,0.2c0.4,0.2,0.7,0.4,1.1,0.7c0.3,0.3,0.5,0.6,0.7,1C151,16.2,151.1,16.6,151.1,17z M149.5,17
			c0-0.5-0.2-0.9-0.5-1.2c-0.4-0.4-0.7-0.5-1.2-0.5s-0.9,0.2-1.2,0.5c-0.4,0.4-0.5,0.7-0.5,1.2s0.2,0.9,0.5,1.2
			c0.4,0.4,0.7,0.5,1.2,0.5s0.9-0.2,1.2-0.5C149.4,17.9,149.5,17.5,149.5,17z M155.2,9.9h1.6v13.2h-1.6V17h-1.6v6h-1.5V9.9h1.5v5.6
			h1.6V9.9z"/>
		<path class="st2" d="M165.3,13.3c0,0.5-0.1,0.8-0.3,1.3c-0.2,0.4-0.4,0.7-0.7,1c-0.3,0.3-0.7,0.5-1.1,0.7
			c-0.4,0.2-0.8,0.2-1.3,0.2c-0.5,0-0.9-0.1-1.3-0.2c-0.4-0.2-0.8-0.4-1.1-0.7c-0.3-0.3-0.6-0.6-0.7-1c-0.2-0.4-0.3-0.8-0.3-1.3
			s0.1-0.8,0.3-1.3c0.2-0.4,0.4-0.7,0.7-1c0.3-0.3,0.7-0.5,1.1-0.7c0.4-0.2,0.9-0.3,1.3-0.3c0.5,0,0.9,0.1,1.3,0.3
			c0.4,0.2,0.8,0.4,1.1,0.7c0.3,0.3,0.6,0.6,0.7,1S165.3,12.8,165.3,13.3z M163.7,13.3c0-0.5-0.2-1-0.5-1.3s-0.8-0.5-1.3-0.5
			c-0.5,0-1,0.2-1.3,0.5s-0.5,0.8-0.5,1.3c0,0.5,0.2,1,0.5,1.3s0.8,0.5,1.3,0.5c0.5,0,1-0.2,1.3-0.5S163.7,13.8,163.7,13.3z
			 M168.6,20.3c0,0.5-0.1,0.8-0.3,1.2s-0.4,0.7-0.7,1c-0.3,0.3-0.7,0.5-1.1,0.7c-0.4,0.2-0.8,0.2-1.3,0.2s-0.9-0.1-1.3-0.2
			c-0.4-0.2-0.8-0.4-1.1-0.7c-0.3-0.3-0.6-0.6-0.7-1c-0.2-0.4-0.3-0.8-0.3-1.2c0-0.5,0.1-0.8,0.3-1.2c0.2-0.4,0.4-0.7,0.7-1
			c0.3-0.3,0.7-0.5,1.1-0.7c0.4-0.2,0.8-0.2,1.3-0.2s0.9,0.1,1.3,0.2c0.4,0.2,0.8,0.4,1.1,0.7c0.3,0.3,0.6,0.6,0.7,1
			C168.5,19.4,168.6,19.9,168.6,20.3z M167,20.3c0-0.5-0.2-0.9-0.5-1.3s-0.8-0.5-1.3-0.5c-0.5,0-0.9,0.2-1.3,0.5
			c-0.4,0.4-0.5,0.8-0.5,1.3c0,0.5,0.2,0.9,0.5,1.3c0.4,0.4,0.8,0.5,1.3,0.5c0.5,0,0.9-0.2,1.3-0.5C166.8,21.2,167,20.8,167,20.3z
			 M169.2,16.8h-1.6V9.9h1.6v1.2h1.9v1.4h-1.9V14h1.9v1.4h-1.9V16.8z"/>
		<path class="st2" d="M184,18.1v1.4h-5.3v3.5h-1.6v-3.5h-5.2v-1.4H184z M177.9,9.9l5.4,5.9l-1.2,1l-4.3-4.6l-4.2,4.6l-1.2-1
			L177.9,9.9z"/>
		<path class="st2" d="M189.3,9.8l4.1,6.5l-1.3,0.8l-2.8-4.5l-2.7,4.7l-1.3-0.8L189.3,9.8z M187.7,18.5v3h8.9v1.4h-10.5v-4.4H187.7z
			 M196.3,18.4h-1.6V9.9h1.6v3h1.9v1.6h-1.9V18.4z"/>
		<path class="st2" d="M199.2,18.2h12.1v1.4h-5.2v3.4h-1.6v-3.4h-5.2L199.2,18.2L199.2,18.2z M201.8,11.8h6.9v-1.7h1.6v6.4h-10.2
			v-6.4h1.6L201.8,11.8L201.8,11.8z M208.8,13.2h-6.9v1.8h6.9V13.2z"/>
	</g>
</g>
</svg>
