<?xml version="1.0" encoding="utf-8"?>
<!-- Generator: Adobe Illustrator 28.0.0, SVG Export Plug-In . SVG Version: 6.00 Build 0)  -->
<svg version="1.1" id="Layer_1" xmlns="http://www.w3.org/2000/svg" xmlns:xlink="http://www.w3.org/1999/xlink" x="0px" y="0px"
	 viewBox="0 0 314 32" style="enable-background:new 0 0 314 32;" xml:space="preserve">
<style type="text/css">
	.st0{fill:url(#SVGID_1_);}
	.st1{fill:url(#SVGID_00000013905198306954030000000014207882728125385660_);}
	.st2{fill:url(#SVGID_00000066478360647228313610000011390406408880175025_);}
	.st3{fill:#575756;}
</style>
<g>
	<g>
		
			<linearGradient id="SVGID_1_" gradientUnits="userSpaceOnUse" x1="117.9623" y1="-53.6015" x2="135.7236" y2="-38.1214" gradientTransform="matrix(1 0 0 -1 0 -25.4)">
			<stop  offset="0" style="stop-color:#F9B233"/>
			<stop  offset="1" style="stop-color:#E63323"/>
		</linearGradient>
		<path class="st0" d="M130.2,16.5c1.3,1.9,0.8,5.3-5,6.9c-5.2,1.5-12.1,2.3-16.5,2.2c-0.6,0-0.5,0.2,0,0.3c5.6,1.4,13.7,2,18.6,1.1
			c6.4-1.1,11.5-4.5,12.9-8.8c-3-4.1-10.2-5.6-17.5-3.4c0,0,0,0,0,0C125.5,13.9,128.4,14,130.2,16.5z"/>
		<g>
			
				<linearGradient id="SVGID_00000160165509533781998160000014963695265893103775_" gradientUnits="userSpaceOnUse" x1="66.4263" y1="-46.1322" x2="139.342" y2="-43.7018" gradientTransform="matrix(1 0 0 -1 0 -25.4)">
				<stop  offset="0" style="stop-color:#0BBBEF"/>
				<stop  offset="0.6181" style="stop-color:#005DA4"/>
				<stop  offset="1" style="stop-color:#28367F"/>
			</linearGradient>
			<path style="fill:url(#SVGID_00000160165509533781998160000014963695265893103775_);" d="M140.1,12.6c-2.4-6.6-13.4-7.5-21.7-3
				c-6,3.2-10.1,5.5-11.3,6.2c-2.7,1.6-5.3,3-9,4.6c-4.3,1.9-6.5,2.7-10.8,3.6c-3.1,0.6-5.8,0.6-7.9,0.1c-6.7-1.7-9.7-5.4-13.5-9.7
				l-9.5-2.1c5.9,8.3,12.4,14.8,17,17.2c6.7,3.5,11.5,3.2,20-0.3c4.1-1.8,16.9-8.6,19.7-10c2.3-1.2,5.6-2.8,8-3.8
				c0.5-0.2,1.1-0.4,1.6-0.6c0,0,0,0,0,0c7.3-2.3,14.5-0.7,17.5,3.4C140.8,16.4,140.8,14.6,140.1,12.6z"/>
			
				<linearGradient id="SVGID_00000166641956708626644600000012061084207781468054_" gradientUnits="userSpaceOnUse" x1="66.2706" y1="-33.874" x2="97.9841" y2="-37.966" gradientTransform="matrix(1 0 0 -1 0 -25.4)">
				<stop  offset="0" style="stop-color:#0BBBEF"/>
				<stop  offset="1" style="stop-color:#00975F"/>
			</linearGradient>
			<path style="fill:url(#SVGID_00000166641956708626644600000012061084207781468054_);" d="M65.6,14.1c-1.1-1.2-0.2-1.3,0.9-0.8
				c13.9,5.2,26.7,4.2,32.5,3.6c0.5,0,0.3-0.4-0.3-0.5C78.8,12.2,67.3,7.8,51.5,0.3C50-0.6,49.3,0.6,50,1.9
				c1.9,3.6,4.1,7.1,6.4,10.4l9.5,2.1C65.8,14.3,65.7,14.2,65.6,14.1z"/>
		</g>
	</g>
	<g>
		<g>
			<path class="st3" d="M154,28.6c-0.3-0.6-0.6-1.2-0.9-1.8c0,0,0-0.1,0-0.1c0-0.1-0.1-0.1-0.1-0.2v3.3c0,0.1,0,0.2,0,0.3
				s0,0.2,0,0.3h-0.7c0-0.1,0-0.2,0-0.4c0-0.1,0-0.2,0-0.4v-3.4c0-0.1,0-0.2,0-0.4c0-0.1,0-0.2,0-0.4h1l1.7,3.4c0,0.1,0,0.1,0.1,0.2
				c0,0.1,0.1,0.1,0.1,0.2v-3c0-0.1,0-0.2,0-0.4c0-0.1,0-0.2,0-0.4h0.7c0,0.1,0,0.3,0,0.4s0,0.3,0,0.4V30c0,0.1,0,0.1,0,0.2
				s0,0.1,0,0.2h-0.9C154.5,29.8,154.2,29.2,154,28.6z"/>
			<path class="st3" d="M159.4,29.2h-1.8l-0.4,1.2h-0.7l1.6-4.9h0.8l1.6,4.9h-0.7L159.4,29.2z M159.1,28.5l-0.7-2.2l-0.7,2.2H159.1z
				"/>
			<path class="st3" d="M162.7,29.6c0,0.1,0,0.2,0,0.4s0,0.2,0,0.4H162c0-0.1,0-0.2,0-0.4s0-0.3,0-0.4v-3.5h-1c-0.1,0-0.1,0-0.2,0
				s-0.1,0-0.2,0v-0.7c0,0,0.1,0,0.1,0c0,0,0.1,0,0.1,0c0,0,0.1,0,0.1,0c0,0,0.1,0,0.1,0h2.7c0,0,0.1,0,0.1,0c0.1,0,0.1,0,0.1,0v0.7
				c-0.1,0-0.2,0-0.3,0s-0.2,0-0.3,0h-0.7L162.7,29.6L162.7,29.6z"/>
			<path class="st3" d="M165.7,30.1c0,0.1,0,0.2,0,0.2H165c0-0.1,0-0.2,0-0.4c0-0.1,0-0.2,0-0.4v-3.4c0-0.1,0-0.2,0-0.4
				c0-0.1,0-0.2,0-0.4h0.7c0,0,0,0.1,0,0.1s0,0.1,0,0.1c0,0.1,0,0.1,0,0.1c0,0,0,0.1,0,0.1v3.8C165.7,29.9,165.7,30,165.7,30.1z"/>
			<path class="st3" d="M166.8,27.9c0-0.3,0-0.6,0.1-1c0.1-0.3,0.2-0.6,0.4-0.8c0.2-0.2,0.4-0.4,0.6-0.6c0.2-0.1,0.5-0.2,0.8-0.2
				c0.3,0,0.6,0.1,0.8,0.2s0.5,0.3,0.6,0.6c0.2,0.2,0.3,0.5,0.4,0.8c0.1,0.3,0.1,0.6,0.1,1c0,0.3,0,0.6-0.1,1
				c-0.1,0.3-0.2,0.6-0.4,0.8c-0.2,0.2-0.4,0.4-0.6,0.6c-0.2,0.1-0.5,0.2-0.9,0.2c-0.3,0-0.6-0.1-0.8-0.2s-0.5-0.3-0.6-0.6
				c-0.2-0.2-0.3-0.5-0.4-0.8C166.8,28.6,166.8,28.3,166.8,27.9z M167.5,27.9c0,0.2,0,0.4,0.1,0.6c0,0.2,0.1,0.4,0.2,0.6
				c0.1,0.2,0.2,0.3,0.4,0.5c0.2,0.1,0.4,0.2,0.6,0.2c0.2,0,0.4-0.1,0.6-0.2c0.1-0.1,0.3-0.2,0.4-0.4s0.2-0.4,0.2-0.6
				c0-0.2,0.1-0.5,0.1-0.7s0-0.4-0.1-0.6c0-0.2-0.1-0.4-0.2-0.6c-0.1-0.2-0.2-0.3-0.4-0.5c-0.1-0.1-0.4-0.2-0.6-0.2
				c-0.2,0-0.4,0.1-0.6,0.2c-0.2,0.1-0.3,0.2-0.4,0.4c-0.1,0.2-0.2,0.4-0.2,0.6C167.5,27.5,167.5,27.7,167.5,27.9z"/>
			<path class="st3" d="M173.2,28.6c-0.3-0.6-0.6-1.2-0.9-1.8c0,0,0-0.1,0-0.1c0-0.1-0.1-0.1-0.1-0.2v3.3c0,0.1,0,0.2,0,0.3
				s0,0.2,0,0.3h-0.7c0-0.1,0-0.2,0-0.4c0-0.1,0-0.2,0-0.4v-3.4c0-0.1,0-0.2,0-0.4c0-0.1,0-0.2,0-0.4h1l1.7,3.4c0,0.1,0,0.1,0.1,0.2
				c0,0.1,0,0.1,0.1,0.2v-3c0-0.1,0-0.2,0-0.4c0-0.1,0-0.2,0-0.4h0.7c0,0.1,0,0.3,0,0.4s0,0.3,0,0.4V30c0,0.1,0,0.1,0,0.2
				s0,0.1,0,0.2h-0.9C173.8,29.8,173.5,29.2,173.2,28.6z"/>
			<path class="st3" d="M178.6,29.2h-1.8l-0.4,1.2h-0.7l1.6-4.9h0.8l1.6,4.9H179L178.6,29.2z M178.4,28.5l-0.7-2.2l-0.7,2.2H178.4z"
				/>
			<path class="st3" d="M182.6,29.7c0.1,0,0.1,0,0.2,0c0.1,0,0.2,0,0.2,0v0.7c-0.1,0-0.1,0-0.2,0c-0.1,0-0.1,0-0.2,0h-2.2
				c0-0.1,0-0.2,0-0.4c0-0.1,0-0.2,0-0.4v-3.4c0-0.1,0-0.2,0-0.4c0-0.1,0-0.2,0-0.4h0.7c0,0.1,0,0.2,0,0.3c0,0.1,0,0.2,0,0.3v3.6
				L182.6,29.7L182.6,29.7z"/>
			<path class="st3" d="M185.2,27.9c0-0.3,0-0.6,0.1-1c0.1-0.3,0.2-0.6,0.4-0.8c0.2-0.2,0.4-0.4,0.6-0.6c0.2-0.1,0.5-0.2,0.8-0.2
				s0.6,0.1,0.8,0.2s0.4,0.3,0.6,0.6c0.1,0.2,0.3,0.5,0.4,0.8s0.1,0.6,0.1,1c0,0.3,0,0.6-0.1,1c-0.1,0.3-0.2,0.6-0.4,0.8
				c-0.1,0.2-0.4,0.4-0.6,0.6c-0.2,0.1-0.5,0.2-0.9,0.2c-0.3,0-0.6-0.1-0.8-0.2c-0.2-0.1-0.4-0.3-0.6-0.6c-0.2-0.2-0.3-0.5-0.4-0.8
				C185.3,28.6,185.2,28.3,185.2,27.9z M185.9,27.9c0,0.2,0,0.4,0.1,0.6c0,0.2,0.1,0.4,0.2,0.6s0.2,0.3,0.4,0.5
				c0.1,0.1,0.4,0.2,0.6,0.2c0.2,0,0.4-0.1,0.6-0.2s0.3-0.2,0.4-0.4c0.1-0.2,0.2-0.4,0.2-0.6c0-0.2,0.1-0.5,0.1-0.7s0-0.4-0.1-0.6
				c0-0.2-0.1-0.4-0.2-0.6c-0.1-0.2-0.2-0.3-0.4-0.5c-0.2-0.1-0.4-0.2-0.6-0.2c-0.2,0-0.4,0.1-0.6,0.2c-0.1,0.1-0.3,0.2-0.4,0.4
				S186,27,186,27.3C186,27.5,185.9,27.7,185.9,27.9z"/>
			<path class="st3" d="M193.1,26.4c-0.2-0.1-0.3-0.2-0.5-0.2c-0.1-0.1-0.3-0.1-0.5-0.1c-0.2,0-0.5,0-0.6,0.1
				c-0.2,0.1-0.4,0.2-0.5,0.4c-0.1,0.2-0.2,0.4-0.3,0.6c-0.1,0.2-0.1,0.5-0.1,0.7c0,0.2,0,0.5,0.1,0.7c0.1,0.2,0.2,0.4,0.3,0.6
				c0.1,0.2,0.3,0.3,0.5,0.4c0.2,0.1,0.4,0.1,0.7,0.1c0.1,0,0.3,0,0.5-0.1c0.2,0,0.4-0.1,0.5-0.2l0,0.8c-0.2,0.1-0.4,0.1-0.6,0.2
				c-0.2,0-0.4,0-0.5,0c-0.3,0-0.6-0.1-0.9-0.2c-0.3-0.1-0.5-0.3-0.7-0.5c-0.2-0.2-0.4-0.5-0.5-0.8c-0.1-0.3-0.2-0.7-0.2-1.1
				c0-0.4,0-0.7,0.1-1c0.1-0.3,0.2-0.6,0.5-0.8c0.2-0.2,0.4-0.4,0.7-0.5s0.6-0.2,1-0.2c0.2,0,0.4,0,0.5,0c0.1,0,0.3,0.1,0.5,0.2
				L193.1,26.4z"/>
			<path class="st3" d="M194.8,29.7h1.7c0,0,0.1,0,0.2,0s0.1,0,0.2,0v0.7c-0.2,0-0.4,0-0.6,0h-2.1c0-0.1,0-0.2,0-0.4
				c0-0.1,0-0.3,0-0.4V26c0-0.1,0-0.2,0-0.3s0-0.2,0-0.3h2.4c0,0,0.1,0,0.1,0c0.1,0,0.1,0,0.2,0v0.7c-0.1,0-0.2,0-0.3,0
				c-0.1,0-0.2,0-0.3,0h-1.3v1.4h1.5c0,0,0.1,0,0.2,0s0.1,0,0.2,0v0.7c-0.2,0-0.4,0-0.6,0h-1.2L194.8,29.7L194.8,29.7z"/>
			<path class="st3" d="M200.3,29.2h-1.8l-0.4,1.2h-0.7l1.6-4.9h0.8l1.6,4.9h-0.7L200.3,29.2z M200.1,28.5l-0.7-2.2l-0.7,2.2H200.1z
				"/>
			<path class="st3" d="M203.9,28.6c-0.3-0.6-0.6-1.2-0.9-1.8c0,0,0-0.1,0-0.1c0-0.1-0.1-0.1-0.1-0.2v3.3c0,0.1,0,0.2,0,0.3
				s0,0.2,0,0.3h-0.7c0-0.1,0-0.2,0-0.4c0-0.1,0-0.2,0-0.4v-3.4c0-0.1,0-0.2,0-0.4c0-0.1,0-0.2,0-0.4h1l1.7,3.4c0,0.1,0,0.1,0.1,0.2
				c0,0.1,0,0.1,0.1,0.2v-3c0-0.1,0-0.2,0-0.4c0-0.1,0-0.2,0-0.4h0.7c0,0.1,0,0.3,0,0.4s0,0.3,0,0.4V30c0,0.1,0,0.1,0,0.2
				s0,0.1,0,0.2h-0.9C204.5,29.8,204.2,29.2,203.9,28.6z"/>
			<path class="st3" d="M211,26.3c-0.2-0.1-0.4-0.1-0.5-0.2c-0.1,0-0.3-0.1-0.5-0.1c-0.1,0-0.2,0-0.3,0s-0.2,0.1-0.3,0.1
				c-0.1,0-0.1,0.1-0.2,0.2c0,0.1-0.1,0.2-0.1,0.3s0,0.2,0.1,0.2c0,0.1,0.1,0.1,0.2,0.2c0.1,0.1,0.2,0.1,0.3,0.2s0.2,0.1,0.4,0.2
				c0.1,0.1,0.3,0.1,0.4,0.2c0.1,0.1,0.2,0.2,0.4,0.3c0.1,0.1,0.2,0.2,0.2,0.4s0.1,0.3,0.1,0.5c0,0.2-0.1,0.5-0.1,0.7
				c-0.1,0.2-0.2,0.4-0.4,0.5c-0.2,0.1-0.4,0.2-0.6,0.2s-0.4,0.1-0.7,0.1c-0.2,0-0.3,0-0.5-0.1s-0.4-0.1-0.5-0.2l0.1-0.7
				c0.1,0,0.1,0.1,0.2,0.1c0.1,0,0.2,0.1,0.3,0.1c0.1,0,0.2,0.1,0.3,0.1s0.2,0,0.2,0c0.1,0,0.2,0,0.3,0s0.2-0.1,0.3-0.1
				c0.1-0.1,0.2-0.1,0.2-0.2c0.1-0.1,0.1-0.2,0.1-0.4c0-0.1,0-0.2-0.1-0.3c-0.1-0.1-0.1-0.2-0.2-0.2s-0.2-0.1-0.3-0.2
				c-0.1-0.1-0.2-0.1-0.3-0.2c-0.1-0.1-0.3-0.1-0.4-0.2s-0.2-0.2-0.4-0.3c-0.1-0.1-0.2-0.2-0.3-0.4c-0.1-0.1-0.1-0.3-0.1-0.5
				c0-0.2,0-0.4,0.1-0.6s0.2-0.3,0.3-0.4c0.1-0.1,0.3-0.2,0.5-0.2c0.2-0.1,0.4-0.1,0.6-0.1c0.1,0,0.3,0,0.5,0c0.2,0,0.4,0.1,0.6,0.1
				L211,26.3z"/>
			<path class="st3" d="M215.1,26.4c-0.2-0.1-0.3-0.2-0.5-0.2s-0.3-0.1-0.5-0.1c-0.2,0-0.5,0-0.6,0.1c-0.2,0.1-0.4,0.2-0.5,0.4
				c-0.1,0.2-0.2,0.4-0.3,0.6c-0.1,0.2-0.1,0.5-0.1,0.7c0,0.2,0,0.5,0.1,0.7c0.1,0.2,0.2,0.4,0.3,0.6c0.1,0.2,0.3,0.3,0.5,0.4
				c0.2,0.1,0.4,0.1,0.7,0.1c0.1,0,0.3,0,0.5-0.1c0.2,0,0.4-0.1,0.5-0.2l0,0.8c-0.2,0.1-0.4,0.1-0.6,0.2s-0.4,0-0.5,0
				c-0.3,0-0.6-0.1-0.9-0.2c-0.3-0.1-0.5-0.3-0.7-0.5c-0.2-0.2-0.4-0.5-0.5-0.8c-0.1-0.3-0.2-0.7-0.2-1.1c0-0.4,0-0.7,0.2-1
				c0.1-0.3,0.2-0.6,0.5-0.8c0.2-0.2,0.4-0.4,0.7-0.5s0.6-0.2,1-0.2c0.2,0,0.4,0,0.5,0c0.1,0,0.3,0.1,0.5,0.2L215.1,26.4z"/>
			<path class="st3" d="M216.9,30.1c0,0.1,0,0.2,0,0.2h-0.7c0-0.1,0-0.2,0-0.4c0-0.1,0-0.2,0-0.4v-3.4c0-0.1,0-0.2,0-0.4
				c0-0.1,0-0.2,0-0.4h0.7c0,0,0,0.1,0,0.1s0,0.1,0,0.1c0,0.1,0,0.1,0,0.1c0,0,0,0.1,0,0.1v3.8C216.9,29.9,216.9,30,216.9,30.1z"/>
			<path class="st3" d="M218.8,29.7h1.6c0,0,0.1,0,0.2,0s0.1,0,0.2,0v0.7c-0.2,0-0.4,0-0.6,0h-2.1c0-0.1,0-0.2,0-0.4
				c0-0.1,0-0.3,0-0.4V26c0-0.1,0-0.2,0-0.3s0-0.2,0-0.3h2.4c0,0,0.1,0,0.2,0s0.1,0,0.2,0v0.7c-0.1,0-0.2,0-0.3,0
				c-0.1,0-0.2,0-0.3,0h-1.3v1.4h1.5c0,0,0.1,0,0.2,0s0.1,0,0.2,0v0.7c-0.2,0-0.4,0-0.6,0h-1.2L218.8,29.7L218.8,29.7z"/>
			<path class="st3" d="M223.5,28.6c-0.3-0.6-0.6-1.2-0.9-1.8c0,0,0-0.1,0-0.1c0-0.1-0.1-0.1-0.1-0.2v3.3c0,0.1,0,0.2,0,0.3
				s0,0.2,0,0.3h-0.7c0-0.1,0-0.2,0-0.4c0-0.1,0-0.2,0-0.4v-3.4c0-0.1,0-0.2,0-0.4c0-0.1,0-0.2,0-0.4h1l1.7,3.4c0,0.1,0,0.1,0.1,0.2
				c0,0.1,0.1,0.1,0.1,0.2v-3c0-0.1,0-0.2,0-0.4c0-0.1,0-0.2,0-0.4h0.7c0,0.1,0,0.3,0,0.4s0,0.3,0,0.4V30c0,0.1,0,0.1,0,0.2
				s0,0.1,0,0.2h-0.9C224,29.8,223.8,29.2,223.5,28.6z"/>
			<path class="st3" d="M229.4,26.4c-0.2-0.1-0.3-0.2-0.5-0.2c-0.1-0.1-0.3-0.1-0.5-0.1c-0.2,0-0.5,0-0.6,0.1
				c-0.2,0.1-0.4,0.2-0.5,0.4c-0.1,0.2-0.2,0.4-0.3,0.6c-0.1,0.2-0.1,0.5-0.1,0.7c0,0.2,0,0.5,0.1,0.7c0.1,0.2,0.2,0.4,0.3,0.6
				c0.1,0.2,0.3,0.3,0.5,0.4c0.2,0.1,0.4,0.1,0.7,0.1c0.1,0,0.3,0,0.5-0.1c0.2,0,0.4-0.1,0.5-0.2l0,0.8c-0.2,0.1-0.4,0.1-0.6,0.2
				c-0.2,0-0.4,0-0.5,0c-0.3,0-0.6-0.1-0.9-0.2c-0.3-0.1-0.5-0.3-0.7-0.5c-0.2-0.2-0.4-0.5-0.5-0.8c-0.1-0.3-0.2-0.7-0.2-1.1
				c0-0.4,0-0.7,0.1-1c0.1-0.3,0.2-0.6,0.5-0.8c0.2-0.2,0.4-0.4,0.7-0.5c0.3-0.1,0.6-0.2,1-0.2c0.2,0,0.4,0,0.5,0s0.3,0.1,0.5,0.2
				L229.4,26.4z"/>
			<path class="st3" d="M231.1,29.7h1.6c0.1,0,0.1,0,0.2,0s0.1,0,0.2,0v0.7c-0.2,0-0.4,0-0.6,0h-2.1c0-0.1,0-0.2,0-0.4
				c0-0.1,0-0.3,0-0.4V26c0-0.1,0-0.2,0-0.3s0-0.2,0-0.3h2.4c0,0,0.1,0,0.2,0c0.1,0,0.1,0,0.2,0v0.7c-0.1,0-0.2,0-0.3,0
				c-0.1,0-0.2,0-0.3,0H231v1.4h1.5c0,0,0.1,0,0.2,0s0.1,0,0.2,0v0.7c-0.2,0-0.4,0-0.6,0h-1.2V29.7z"/>
			<path class="st3" d="M237.8,29c0,0.1,0,0.1,0.1,0.2c0,0.1,0,0.1,0,0.2c0-0.1,0.1-0.2,0.1-0.3c0-0.1,0.1-0.2,0.1-0.3l1-3.3h1.1
				c0,0.1,0,0.2,0,0.2c0,0.1,0,0.2,0,0.2v3.9c0,0.1,0,0.2,0,0.2c0,0.1,0,0.2,0,0.2h-0.7c0-0.1,0-0.2,0-0.4s0-0.2,0-0.4v-3.1
				l-0.1,0.4l-1.1,3.6h-0.7l-1.2-3.9v3.4c0,0.1,0,0.2,0,0.2c0,0.1,0,0.2,0,0.2h-0.7c0-0.1,0-0.2,0-0.4c0-0.1,0-0.2,0-0.4v-3.4
				c0-0.1,0-0.2,0-0.4s0-0.2,0-0.4h1.1L237.8,29z"/>
			<path class="st3" d="M242,28.9c0,0.2,0.1,0.4,0.2,0.5s0.2,0.2,0.3,0.3c0.1,0.1,0.3,0.1,0.5,0.1c0.2,0,0.4,0,0.5-0.1
				s0.2-0.2,0.3-0.3c0.1-0.1,0.1-0.3,0.2-0.5c0-0.2,0-0.4,0-0.7v-2c0-0.1,0-0.2,0-0.4s0-0.2,0-0.4h0.7c0,0.1,0,0.3,0,0.4
				c0,0.1,0,0.3,0,0.4v2c0,0.7-0.1,1.2-0.4,1.6c-0.3,0.4-0.7,0.5-1.3,0.5s-1-0.2-1.3-0.5c-0.3-0.4-0.4-0.9-0.4-1.6v-2.1
				c0-0.1,0-0.2,0-0.4s0-0.2,0-0.4h0.7c0,0.1,0,0.2,0,0.3s0,0.2,0,0.3v2.2C241.9,28.5,241.9,28.7,242,28.9z"/>
			<path class="st3" d="M248.1,26.3c-0.2-0.1-0.4-0.1-0.5-0.2c-0.1,0-0.3-0.1-0.4-0.1c-0.1,0-0.2,0-0.3,0s-0.2,0.1-0.3,0.1
				c-0.1,0-0.1,0.1-0.2,0.2c0,0.1-0.1,0.2-0.1,0.3s0,0.2,0.1,0.2c0.1,0.1,0.1,0.1,0.2,0.2c0.1,0.1,0.2,0.1,0.3,0.2
				c0.1,0.1,0.2,0.1,0.4,0.2c0.1,0.1,0.2,0.1,0.4,0.2c0.1,0.1,0.2,0.2,0.4,0.3c0.1,0.1,0.2,0.2,0.2,0.4c0.1,0.1,0.1,0.3,0.1,0.5
				c0,0.2,0,0.5-0.1,0.7c-0.1,0.2-0.2,0.4-0.4,0.5c-0.2,0.1-0.4,0.2-0.6,0.2s-0.4,0.1-0.7,0.1c-0.1,0-0.3,0-0.5-0.1
				c-0.2,0-0.4-0.1-0.5-0.2l0.1-0.7c0.1,0,0.1,0.1,0.2,0.1c0.1,0,0.2,0.1,0.2,0.1c0.1,0,0.2,0.1,0.3,0.1s0.2,0,0.2,0
				c0.1,0,0.2,0,0.3,0c0.1,0,0.2-0.1,0.3-0.1c0.1-0.1,0.2-0.1,0.2-0.2c0.1-0.1,0.1-0.2,0.1-0.4c0-0.1,0-0.2-0.1-0.3
				c-0.1-0.1-0.1-0.2-0.2-0.2c-0.1-0.1-0.2-0.1-0.3-0.2c-0.1-0.1-0.2-0.1-0.3-0.2c-0.1-0.1-0.3-0.1-0.4-0.2s-0.2-0.2-0.4-0.3
				c-0.1-0.1-0.2-0.2-0.3-0.4c-0.1-0.1-0.1-0.3-0.1-0.5c0-0.2,0-0.4,0.1-0.6c0.1-0.2,0.2-0.3,0.3-0.4c0.1-0.1,0.3-0.2,0.5-0.2
				c0.2-0.1,0.4-0.1,0.6-0.1c0.1,0,0.3,0,0.5,0c0.2,0,0.4,0.1,0.5,0.1L248.1,26.3z"/>
			<path class="st3" d="M250.1,29.7h1.7c0,0,0.1,0,0.2,0c0.1,0,0.1,0,0.2,0v0.7c-0.2,0-0.4,0-0.6,0h-2.1c0-0.1,0-0.2,0-0.4
				c0-0.1,0-0.3,0-0.4V26c0-0.1,0-0.2,0-0.3s0-0.2,0-0.3h2.4c0,0,0.1,0,0.2,0s0.1,0,0.2,0v0.7c-0.1,0-0.2,0-0.3,0
				c-0.1,0-0.2,0-0.3,0h-1.3v1.4h1.5c0,0,0.1,0,0.2,0s0.1,0,0.2,0v0.7c-0.2,0-0.4,0-0.6,0h-1.2L250.1,29.7L250.1,29.7z"/>
			<path class="st3" d="M253.7,28.9c0,0.2,0.1,0.4,0.2,0.5c0.1,0.1,0.2,0.2,0.3,0.3c0.1,0.1,0.3,0.1,0.5,0.1c0.2,0,0.4,0,0.5-0.1
				c0.1-0.1,0.2-0.2,0.3-0.3c0.1-0.1,0.1-0.3,0.2-0.5c0-0.2,0-0.4,0-0.7v-2c0-0.1,0-0.2,0-0.4s0-0.2,0-0.4h0.7c0,0.1,0,0.3,0,0.4
				c0,0.1,0,0.3,0,0.4v2c0,0.7-0.1,1.2-0.4,1.6c-0.3,0.4-0.7,0.5-1.3,0.5c-0.6,0-1-0.2-1.3-0.5c-0.3-0.4-0.4-0.9-0.4-1.6v-2.1
				c0-0.1,0-0.2,0-0.4s0-0.2,0-0.4h0.7c0,0.1,0,0.2,0,0.3s0,0.2,0,0.3v2.2C253.7,28.5,253.7,28.7,253.7,28.9z"/>
			<path class="st3" d="M259.7,29c0,0.1,0,0.1,0.1,0.2c0,0.1,0,0.1,0.1,0.2c0-0.1,0-0.2,0.1-0.3c0-0.1,0-0.2,0.1-0.3l1-3.3h1.1
				c0,0.1,0,0.2,0,0.2c0,0.1,0,0.2,0,0.2v3.9c0,0.1,0,0.2,0,0.2c0,0.1,0,0.2,0,0.2h-0.7c0-0.1,0-0.2,0-0.4s0-0.2,0-0.4v-3.1
				l-0.1,0.4l-1.1,3.6h-0.7l-1.2-3.9v3.4c0,0.1,0,0.2,0,0.2c0,0.1,0,0.2,0,0.2h-0.7c0-0.1,0-0.2,0-0.4c0-0.1,0-0.2,0-0.4v-3.4
				c0-0.1,0-0.2,0-0.4c0-0.1,0-0.2,0-0.4h1.1L259.7,29z"/>
		</g>
		<g>
			<path class="st3" d="M161.6,11.4c0.4-1.4,0.7-2.9,0.7-4.4c0-0.5,0-1,0-1.5V5.4h-10V7h7.9v0.1c0,1.5-0.1,3-0.6,4.4v0h-9.9V13h6.5
				v2.7h-4v1.6h7.8v4.2h2.2v-5.8h-3.8V13h6.5v-1.6h-3.3L161.6,11.4z"/>
			<polygon class="st3" points="175.5,11.6 168.9,11.6 168.9,10 174.2,10 174.2,5.4 166.7,5.4 166.7,7 172,7 172,8.4 166.7,8.4 
				166.7,13.2 175.5,13.2 			"/>
			<path class="st3" d="M177.4,16.4h-5V15h-2.2v6.2h9.4v-6.3h-2.2L177.4,16.4L177.4,16.4z M172.3,19.6v-1.7h5v1.7H172.3z"/>
			<rect x="177.4" y="4.8" class="st3" width="2.2" height="8.4"/>
			<rect x="183.9" y="5.1" class="st3" width="4.6" height="1.6"/>
			<path class="st3" d="M182,9.2h2.1L184,9.3c-0.9,0.7-1.4,1.8-1.4,2.9c0,2.1,1.7,3.8,3.8,3.8c2.1,0,3.8-1.7,3.8-3.8
				c0-1.1-0.5-2.2-1.4-2.9l-0.2-0.1h1.6V7.7h-8.1L182,9.2L182,9.2z M186.4,14.1c-1,0-1.8-0.8-1.8-1.9s0.8-1.9,1.8-1.9
				c1,0,1.9,0.8,1.9,1.9C188.2,13.3,187.4,14.1,186.4,14.1z"/>
			<polygon class="st3" points="211.4,5.1 209.3,5.1 209.3,14.6 211.4,14.6 211.4,12.1 213.6,12.1 213.6,10.5 211.4,10.5 211.4,8.7 
				213.6,8.7 213.6,7.1 211.4,7.1 			"/>
			<polygon class="st3" points="194.4,10 193.1,10 193.1,5.1 191,5.1 191,18.7 193.1,18.7 193.1,11.6 194.4,11.6 194.4,19 196.5,19 
				196.5,4.8 194.4,4.8 			"/>
			<path class="st3" d="M206.8,9.4c0-2.3-1.9-4.2-4.2-4.2c-2.3,0-4.2,1.9-4.2,4.2s1.9,4.2,4.2,4.2S206.8,11.7,206.8,9.4z
				 M202.6,11.5c-1.2,0-2.2-1-2.2-2.2s1-2.2,2.2-2.2c1.2,0,2.2,1,2.2,2.2S203.8,11.5,202.6,11.5z"/>
			<path class="st3" d="M206.8,14.2c-2.2,0-4.1,1.7-4.1,3.8s1.8,3.8,4.1,3.8c2.2,0,4.1-1.7,4.1-3.8S209,14.2,206.8,14.2z M206.8,20
				c-1.1,0-2-0.9-2-1.9c0-1.1,0.9-1.9,2-1.9s2,0.9,2,1.9C208.8,19.1,207.9,20,206.8,20z"/>
			<polygon class="st3" points="235.6,17.3 243,17.3 243,21.5 245.2,21.5 245.2,15.7 235.6,15.7 			"/>
			<polygon class="st3" points="228.2,4.8 226.2,4.8 226.2,19.1 228.2,19.1 228.2,12.1 230.5,12.1 230.5,10.6 228.2,10.6 			"/>
			<polygon class="st3" points="220,10.3 217.9,10.3 217.9,14.5 215.1,14.5 215.1,16 225.3,16 225.3,14.5 220,14.5 			"/>
			<polygon class="st3" points="262,10 262,4.8 260,4.8 260,16.3 262,16.3 262,11.6 264.3,11.6 264.3,10 			"/>
			<polygon class="st3" points="258.9,13.2 253.4,13.2 253.4,9.5 251.3,9.5 251.3,13.2 248.6,13.2 248.6,14.8 258.9,14.8 			"/>
			<rect x="234.5" y="4.8" class="st3" width="4.6" height="1.6"/>
			<polygon class="st3" points="245.2,4.8 243.2,4.8 243.2,14.6 245.2,14.6 245.2,10.2 247.6,10.2 247.6,8.6 245.2,8.6 			"/>
			<path class="st3" d="M240.9,11c0-0.8-0.2-1.5-0.7-2.1l-0.1-0.1h1.6V7.2h-9.9v1.6h2.1l-0.1,0.1c-0.5,0.6-0.7,1.3-0.7,2.1
				c0,2,1.7,3.7,3.9,3.7C239.1,14.7,240.9,13,240.9,11z M237,12.8c-1.1,0-1.9-0.8-1.9-1.8c0-1,0.8-1.8,1.9-1.8s1.9,0.8,1.9,1.8
				C238.9,12,238,12.8,237,12.8z"/>
			<path class="st3" d="M221.9,7.3c-0.1,1.8-0.3,3.5-0.6,5.3l0,0.1h2l0-0.1c0.3-1.8,0.6-3.5,0.7-5.3c0-0.5,0.1-1,0.1-1.5V5.7h-7.7
				v1.6h5.5V7.3z"/>
			<polygon class="st3" points="254.7,16.4 252.5,16.4 252.5,21.2 262.1,21.2 262.1,19.6 254.7,19.6 			"/>
			<path class="st3" d="M255.4,7.1c0,1.6-0.2,3.1-0.5,4.7l0,0.1h1.9l0-0.1c0.4-1.6,0.6-3.1,0.7-4.7c0,0,0-0.3,0-0.4
				c0-0.4,0-0.7,0-1.1V5.4H250v1.6h5.5L255.4,7.1z"/>
		</g>
	</g>
</g>
</svg>
