<?xml version="1.0" encoding="utf-8"?>
<!-- Generator: Adobe Illustrator 28.0.0, SVG Export Plug-In . SVG Version: 6.00 Build 0)  -->
<svg version="1.1" id="Layer_1" xmlns="http://www.w3.org/2000/svg" xmlns:xlink="http://www.w3.org/1999/xlink" x="0px" y="0px"
	 viewBox="0 0 314 32" style="enable-background:new 0 0 314 32;" xml:space="preserve">
<style type="text/css">
	.st0{fill:#003863;}
	.st1{fill:#E4032E;}
	.st2{fill:#575756;}
</style>
<g>
	<g>
		<g>
			<g>
				<g>
					<g>
						<path class="st0" d="M113.1,15.3c-2.8-1.9-6.4-1.1-8.2,1.7c-1.6,2.4-3.9,2.7-4.8,2.7c-3,0-5-2.1-5.6-4.3l0,0c0,0,0,0,0-0.1
							c0,0,0,0,0-0.1c-0.2-0.9-0.3-1.3-0.3-2.3C94.1,7.8,99.4,2,107.1,2c7.8,0,12.3,6,13.5,9.3c0-0.1,0-0.1-0.1-0.2
							C118.2,4.7,112.1,0,104.9,0c-9.1,0-16.5,7.4-16.5,16.5c0,8.1,5.9,15.1,14,15.1c6.5,0,10.9-3.6,12.9-8.7
							C116.4,20.2,115.6,17,113.1,15.3z"/>
					</g>
					<g>
						<path class="st1" d="M120.6,11.6c-1-3.2-5.5-9.6-13.6-9.6C99.4,2,94.1,7.8,94.1,13c0,1,0.1,1.4,0.3,2.3
							c-0.1-0.4-0.1-0.8-0.1-1.2c0-5.4,5.4-9.1,10.9-9.1c7.5,0,13.6,6.1,13.6,13.6c0,5.9-3.4,11-8.3,13.4l0,0
							c6.4-2.3,10.9-8.4,10.9-15.5C121.3,14.8,121.1,13.3,120.6,11.6z"/>
					</g>
				</g>
			</g>
		</g>
	</g>
	<g>
		<g>
			<path class="st2" d="M135.1,18.2v-1.9h-5.3v-1.5h12.3v1.5h-5.3v1.9h4.3v4.7h-1.7v-3.2h-8.8v-1.4H135.1z M141.1,9.7v4h-1.7v-2.5
				h-8.6V9.7H141.1z"/>
			<path class="st2" d="M151.5,16.7h-7.2v-4.1h5.4v-1.3h-5.4V9.8h7.1v4.1h-5.4v1.3h5.6L151.5,16.7L151.5,16.7z M145.1,17.4h1.6v1.1
				h7.2v-1.1h1.6v5.2h-10.5V17.4z M153.9,19.8h-7.2v1.3h7.2V19.8z M153.9,9.4h1.7v7.5h-1.7V9.4z"/>
			<path class="st2" d="M157.8,19.2v-1.5h12.3v1.5h-5.3v3.6h-1.7v-3.6H157.8z M164,9.3l5.7,5.9l-1.2,1.1l-4.5-4.6l-4.4,4.6l-1.2-1.1
				L164,9.3z"/>
			<path class="st2" d="M175.5,9.3l4.1,6.8l-1.3,0.8l-2.8-4.8l-2.7,4.9l-1.4-0.8L175.5,9.3z M174,18.1v3h9v1.5h-10.7v-4.5H174z
				 M182.7,18H181V9.4h1.7v3.1h1.9v1.6h-1.9V18z"/>
			<path class="st2" d="M194.3,20v1.5h-8.7V20h2.7v-4.4h1.7V20H194.3z M191.8,18.4v-6.8h-5.7v-1.5h7.3v8.3
				C193.5,18.4,191.8,18.4,191.8,18.4z M197,22.8h-1.7V9.4h1.7v5.6h1.7v1.6H197V22.8z"/>
			<path class="st2" d="M207.4,10.3v1.4h-7.8v-1.4h3.1V9.2h1.8v1.1H207.4z M200.2,18.2h10.5v4.4h-1.7v-3h-8.9L200.2,18.2L200.2,18.2
				z M206.7,14.8c0,0.4-0.1,0.8-0.2,1.1c-0.2,0.4-0.4,0.7-0.6,0.9c-0.3,0.2-0.6,0.5-1,0.6s-0.8,0.2-1.2,0.2c-0.4,0-0.8-0.1-1.2-0.2
				c-0.4-0.1-0.7-0.4-1-0.6c-0.3-0.2-0.5-0.6-0.7-0.9c-0.2-0.4-0.2-0.7-0.2-1.1s0.1-0.7,0.2-1.1c0.2-0.4,0.4-0.6,0.7-0.9
				c0.3-0.2,0.6-0.5,1-0.6c0.4-0.1,0.8-0.2,1.2-0.2s0.8,0.1,1.2,0.2c0.4,0.1,0.7,0.4,1,0.6s0.5,0.6,0.6,0.9
				C206.6,14,206.7,14.4,206.7,14.8z M205.1,14.8c0-0.4-0.1-0.7-0.5-1c-0.3-0.3-0.6-0.4-1.1-0.4c-0.4,0-0.8,0.1-1.1,0.4
				c-0.3,0.3-0.4,0.6-0.4,1c0,0.4,0.1,0.7,0.4,1c0.3,0.3,0.6,0.4,1.1,0.4c0.4,0,0.8-0.1,1.1-0.4C204.9,15.6,205.1,15.2,205.1,14.8z
				 M210.7,17.5h-1.7V9.4h1.7v3.1h1.9v1.6h-1.9V17.5z"/>
			<path class="st2" d="M222.7,17.5h-3.5v2h-1.7v-2h-3.7V16h8.9V17.5z M214.7,22.6v-3.8h1.7v2.4h9.2v1.4H214.7z M221.5,12.4
				c0,0.4-0.1,0.8-0.3,1.2c-0.2,0.4-0.4,0.7-0.7,1c-0.3,0.3-0.7,0.5-1.1,0.7c-0.4,0.2-0.8,0.2-1.3,0.2c-0.5,0-0.9-0.1-1.3-0.2
				c-0.4-0.2-0.8-0.4-1.1-0.7c-0.3-0.3-0.5-0.6-0.7-1c-0.2-0.4-0.3-0.8-0.3-1.2s0.1-0.8,0.3-1.2c0.2-0.4,0.4-0.7,0.7-1
				c0.3-0.3,0.7-0.5,1.1-0.7c0.4-0.2,0.8-0.2,1.3-0.2c0.5,0,0.9,0.1,1.3,0.2c0.4,0.2,0.8,0.4,1.1,0.7c0.3,0.3,0.5,0.6,0.7,1
				C221.4,11.5,221.5,11.9,221.5,12.4z M219.9,12.4c0-0.5-0.2-0.9-0.5-1.2c-0.4-0.3-0.7-0.5-1.2-0.5c-0.5,0-0.9,0.2-1.2,0.5
				c-0.4,0.3-0.5,0.7-0.5,1.2s0.2,0.9,0.5,1.2c0.4,0.3,0.7,0.5,1.2,0.5c0.5,0,0.9-0.2,1.2-0.5C219.7,13.2,219.9,12.8,219.9,12.4z
				 M223.8,9.4h1.7v10.2h-1.7v-4.9h-1.9v-1.4h1.9V9.4z"/>
		</g>
	</g>
</g>
</svg>
