<?xml version="1.0" encoding="utf-8"?>
<!-- Generator: Adobe Illustrator 28.0.0, SVG Export Plug-In . SVG Version: 6.00 Build 0)  -->
<svg version="1.1" id="Layer_1" xmlns="http://www.w3.org/2000/svg" xmlns:xlink="http://www.w3.org/1999/xlink" x="0px" y="0px"
	 viewBox="0 0 314 32" style="enable-background:new 0 0 314 32;" xml:space="preserve">
<style type="text/css">
	.st0{fill:#004A92;}
	.st1{fill:#84CFE9;}
	.st2{fill:#004A93;}
	.st3{fill:url(#SVGID_1_);}
	.st4{fill:url(#SVGID_00000033348437289795967390000006470605010306770586_);}
	.st5{fill:url(#SVGID_00000091711270742674872360000002121721080647398836_);}
	.st6{fill:url(#SVGID_00000147216072920160471120000000862241545354391187_);}
	.st7{fill:url(#SVGID_00000052808608581798476330000014685443550588512407_);}
</style>
<g>
	<g>
		<g>
			<g>
				<g>
					<path class="st0" d="M143.5,4.5c0.3,0.5,0.6,1.1,0.8,1.8c0.2,0.6,0.3,1.3,0.3,2c0,1.7-0.4,3.1-1.1,4.3c-0.9,1.3-2,2-3.5,2
						c-1.5,0-2.7-0.7-3.5-2c-0.8-1.2-1.1-2.6-1.1-4.3c0-0.7,0.1-1.3,0.2-2c0.2-0.7,0.4-1.2,0.7-1.8H135V2h3.3V0.3h3.1V2h3.4v2.6
						H143.5z M138.4,5.9c-0.3,0.7-0.5,1.4-0.5,2.4c0,0.9,0.2,1.7,0.5,2.4c0.4,0.7,0.9,1.1,1.5,1.1c0.6,0,1.1-0.4,1.5-1.1
						c0.3-0.6,0.5-1.4,0.5-2.4c0-0.9-0.2-1.7-0.5-2.4c-0.4-0.7-0.9-1.1-1.5-1.1C139.2,4.8,138.7,5.2,138.4,5.9z M149.8,9.6h-1.2v9.8
						h-2.8V1.3h2.8v5.6h1.2V1.3h2.8v18.1h-2.8V9.6z"/>
					<path class="st0" d="M164.4,2c1.1,1,1.7,2.2,1.7,3.6c0,1.4-0.6,2.6-1.7,3.6c-1,0.9-2.2,1.4-3.6,1.4c-1.4,0-2.6-0.5-3.6-1.4
						c-1.1-0.9-1.6-2.1-1.6-3.6c0-1.5,0.5-2.7,1.6-3.6c1-0.9,2.3-1.3,3.6-1.3C162.2,0.7,163.4,1.2,164.4,2z M159.2,4
						c-0.5,0.5-0.7,1-0.7,1.7c0,0.6,0.2,1.2,0.7,1.6c0.5,0.4,1,0.6,1.7,0.6c0.6,0,1.2-0.2,1.6-0.6c0.5-0.5,0.7-1,0.7-1.6
						c0-0.6-0.2-1.2-0.7-1.7c-0.5-0.4-1-0.6-1.6-0.6C160.2,3.4,159.6,3.6,159.2,4z M171.1,11.2c1.3,1.1,1.9,2.4,1.9,4
						c0,1.6-0.6,3-1.9,4.1c-1.2,1-2.5,1.5-4.1,1.5c-1.6,0-3-0.5-4.1-1.5c-1.2-1.1-1.8-2.4-1.8-4.1c0-1.6,0.6-3,1.8-4
						c1.2-1,2.5-1.5,4.1-1.5C168.6,9.6,170,10.2,171.1,11.2z M165,13.2c-0.6,0.6-0.9,1.2-0.9,2c0,0.8,0.3,1.5,0.9,2
						c0.6,0.5,1.3,0.8,2.1,0.8c0.8,0,1.5-0.3,2-0.8c0.6-0.6,0.9-1.2,0.9-2c0-0.8-0.3-1.5-0.9-2c-0.6-0.5-1.3-0.8-2-0.8
						C166.3,12.4,165.6,12.6,165,13.2z M173,2.6h2.4V5H173v1.1h2.4v2.5H173v1.2h-3V1.3h3V2.6z"/>
					<path class="st0" d="M187.1,1.3v2.1c0,4.5-1.2,7.8-3.6,9.9c-1.7,1.5-3.9,2.3-6.7,2.4v-2.9c2.5-0.1,4.3-0.9,5.6-2.6
						c1.1-1.5,1.7-3.6,1.7-6.3h-7V1.3H187.1z M190.5,1.3h3v18.3h-3V1.3z"/>
					<path class="st0" d="M204,19.5v-4.7h-7.4v-2.7h17.8v2.7H207v4.7H204z M209.9,4.3c0.3,0.3,0.5,0.7,0.6,1
						c0.2,0.4,0.2,0.8,0.2,1.2c0,1.4-0.6,2.6-1.7,3.5c-1,0.9-2.2,1.3-3.6,1.3c-1.4,0-2.7-0.4-3.7-1.3c-1.1-0.9-1.6-2.1-1.6-3.5
						c0-0.4,0.1-0.8,0.2-1.2c0.1-0.4,0.3-0.7,0.6-1.1h-3.7V1.7h6.7V0h3.2v1.7h6.8v2.6H209.9z M203.7,5c-0.5,0.4-0.7,1-0.7,1.6
						c0,0.6,0.2,1.1,0.7,1.6c0.5,0.5,1.1,0.7,1.8,0.7c0.6,0,1.2-0.2,1.6-0.7c0.5-0.5,0.7-1,0.7-1.6c0-0.6-0.2-1.2-0.7-1.6
						c-0.5-0.4-1-0.6-1.6-0.6C204.8,4.4,204.2,4.6,203.7,5z"/>
					<path class="st0" d="M225.3,3.3c0.8,1.2,1.3,2.6,1.3,4.4c0,1.7-0.4,3.1-1.3,4.3c-0.9,1.3-2.2,2-3.8,2c-1.6,0-2.9-0.7-3.8-2
						c-0.8-1.2-1.3-2.6-1.3-4.3c0-1.7,0.4-3.2,1.3-4.4c0.9-1.3,2.2-2,3.8-2C223.1,1.3,224.4,2,225.3,3.3z M219.8,5.1
						c-0.4,0.7-0.6,1.6-0.6,2.6c0,1,0.2,1.8,0.6,2.5c0.4,0.8,1,1.1,1.7,1.1c0.7,0,1.3-0.4,1.7-1.1c0.4-0.7,0.6-1.5,0.6-2.5
						c0-1-0.2-1.9-0.6-2.6c-0.4-0.8-1-1.2-1.7-1.2C220.8,3.9,220.2,4.3,219.8,5.1z M227.7,3.7V1.3h2.7v18.1h-2.7v-7.3H226V9.4h1.6
						V6.4H226V3.7H227.7z M231.4,1.3h2.8v18.1h-2.8V1.3z"/>
					<path class="st0" d="M255.3,9.1v2.6h-17.8V9.1H255.3z M244.7,1.7V0h3.3v1.7h6.6v2.4h-6.4c0,0.4,0.6,0.7,1.8,1
						c1.2,0.3,2.8,0.4,4.6,0.4V8c-1.8,0-3.4-0.2-4.7-0.4c-1.9-0.3-3.1-0.8-3.6-1.4c-0.5,0.6-1.8,1.1-3.7,1.4
						c-1.3,0.2-2.9,0.3-4.6,0.4V5.5c1.9,0,3.4-0.2,4.6-0.4c1.2-0.3,1.9-0.6,1.9-1H238V1.7H244.7z M251.7,15.5H238V13h16.6v6.4h-3
						V15.5z"/>
					<path class="st0" d="M264,1.3c0,2.3,0.3,4,0.9,5c0.5,0.9,1.3,1.4,2.5,1.6v3c-1-0.1-1.9-0.3-2.7-0.8c-1-0.6-1.7-1.4-2.1-2.4
						c-0.5,1-1.2,1.8-2.2,2.4c-0.8,0.5-1.7,0.8-2.6,0.8V8c1.1-0.2,1.9-0.7,2.4-1.6c0.6-1,0.9-2.7,0.9-5H264z M259.4,12.7h3v3.9h12.8
						v2.7h-14.3c-0.5,0-0.8-0.1-1.1-0.3c-0.3-0.3-0.4-0.7-0.4-1.3V12.7z M268.4,3.4V1.3h2.7v12.4h-2.7V6.1h-2.1V3.4H268.4z
						 M272.2,1.3h2.8v12.4h-2.8V1.3z"/>
					<path class="st0" d="M281.8,9.4v3.4h8.8v2.7h-10.3c-0.5,0-0.8-0.1-1-0.3c-0.2-0.3-0.4-0.7-0.4-1.3V1.3h10.4v2.7h-7.4v2.9h6v2.5
						H281.8z M292.5,6.8V1.3h3v18.1h-3v-10h-3.6V6.8H292.5z"/>
				</g>
			</g>
		</g>
		<g>
			<g>
				<path class="st0" d="M135.3,26.7c0.2-0.5,0.4-0.9,0.8-1.2c0.3-0.3,0.7-0.6,1.1-0.8c0.4-0.2,0.9-0.3,1.3-0.3
					c0.5,0,0.9,0.1,1.3,0.3c0.4,0.2,0.8,0.4,1.1,0.8c0.3,0.4,0.6,0.8,0.8,1.2c0.2,0.5,0.3,0.9,0.3,1.5c0,0.5-0.1,1-0.2,1.4
					c-0.2,0.4-0.4,0.8-0.7,1.2c-0.4,0.4-0.8,0.7-1.2,0.9c-0.4,0.2-0.9,0.3-1.4,0.3s-1-0.1-1.4-0.3c-0.4-0.2-0.8-0.5-1.2-0.9
					c-0.3-0.4-0.5-0.7-0.7-1.2c-0.2-0.4-0.2-0.9-0.2-1.4C135,27.7,135.1,27.2,135.3,26.7z M136.4,29.1c0.1,0.3,0.3,0.6,0.5,0.8
					c0.2,0.2,0.5,0.4,0.7,0.5c0.3,0.1,0.5,0.2,0.8,0.2c0.6,0,1.2-0.2,1.6-0.7c0.4-0.5,0.6-1.1,0.6-1.8c0-0.3-0.1-0.6-0.2-0.9
					c-0.1-0.3-0.3-0.5-0.5-0.8c-0.2-0.3-0.5-0.5-0.7-0.6c-0.3-0.1-0.6-0.2-0.9-0.2c-0.3,0-0.6,0.1-0.8,0.2c-0.3,0.1-0.5,0.3-0.7,0.5
					c-0.2,0.2-0.4,0.5-0.5,0.8c-0.1,0.3-0.2,0.6-0.2,0.9C136.3,28.5,136.3,28.8,136.4,29.1z"/>
				<path class="st0" d="M148,31.5c-0.5,0.4-1.1,0.5-1.8,0.5c-0.5,0-1-0.1-1.4-0.3c-0.4-0.2-0.8-0.5-1.2-0.9
					c-0.3-0.4-0.5-0.7-0.7-1.2c-0.2-0.4-0.2-0.9-0.2-1.4c0-0.5,0.1-1,0.3-1.4c0.2-0.5,0.4-0.9,0.8-1.2c0.3-0.3,0.7-0.6,1.1-0.8
					c0.4-0.2,0.9-0.3,1.3-0.3c0.7,0,1.3,0.2,1.9,0.6c0.6,0.4,1,1,1.3,1.7H148c-0.2-0.3-0.5-0.6-0.8-0.7c-0.3-0.1-0.6-0.2-1-0.2
					c-0.3,0-0.6,0.1-0.8,0.2c-0.3,0.1-0.5,0.3-0.7,0.5c-0.2,0.2-0.4,0.5-0.5,0.8c-0.1,0.3-0.2,0.6-0.2,0.9c0,0.3,0.1,0.7,0.2,1
					c0.1,0.3,0.3,0.6,0.5,0.8c0.2,0.2,0.4,0.4,0.7,0.5c0.3,0.1,0.6,0.2,0.9,0.2c0.4,0,0.7-0.1,1-0.2c0.3-0.1,0.5-0.4,0.7-0.7h1.5
					C149.1,30.5,148.6,31.1,148,31.5z"/>
				<path class="st0" d="M150.2,31.9v-7.3h3.8v1.3h-2.5v1.8h2.5v1.2h-2.5v1.8h2.5v1.3H150.2z"/>
				<path class="st0" d="M155.4,31.9h-1.4l2.7-7.3h1.1l2.7,7.3h-1.4l-0.7-2h-2.3L155.4,31.9z M157.4,26.5l-0.7,2h1.4L157.4,26.5z"/>
				<path class="st0" d="M161.1,31.9v-7.3h1.2l3,4.8v-4.8h1.3v7.3h-1.2l-3-4.9v4.9H161.1z"/>
				<path class="st0" d="M175.4,31.5c-0.5,0.4-1.1,0.5-1.8,0.5c-0.5,0-1-0.1-1.4-0.3c-0.4-0.2-0.8-0.5-1.2-0.9
					c-0.3-0.4-0.5-0.7-0.7-1.2c-0.2-0.4-0.2-0.9-0.2-1.4c0-0.5,0.1-1,0.3-1.4c0.2-0.5,0.4-0.9,0.8-1.2c0.3-0.3,0.7-0.6,1.1-0.8
					c0.4-0.2,0.9-0.3,1.3-0.3c0.7,0,1.3,0.2,1.9,0.6c0.6,0.4,1,1,1.3,1.7h-1.4c-0.2-0.3-0.5-0.6-0.8-0.7c-0.3-0.1-0.6-0.2-1-0.2
					c-0.3,0-0.6,0.1-0.8,0.2c-0.3,0.1-0.5,0.3-0.7,0.5c-0.2,0.2-0.4,0.5-0.5,0.8c-0.1,0.3-0.2,0.6-0.2,0.9c0,0.3,0.1,0.7,0.2,1
					c0.1,0.3,0.3,0.6,0.5,0.8c0.2,0.2,0.4,0.4,0.7,0.5c0.3,0.1,0.6,0.2,0.9,0.2c0.4,0,0.7-0.1,1-0.2c0.3-0.1,0.5-0.4,0.7-0.7h1.5
					C176.4,30.5,176,31.1,175.4,31.5z"/>
				<path class="st0" d="M177.6,31.9v-7.3h1.3v6h2.2v1.3H177.6z"/>
				<path class="st0" d="M181.7,31.9v-7.3h1.3v7.3H181.7z"/>
				<path class="st0" d="M184,31.9v-7.3h1.7l1.8,5.1l1.8-5.1h1.7v7.3h-1.2v-5.1l-1.8,5.1h-0.9l-1.8-5.1v5.1H184z"/>
				<path class="st0" d="M192.8,31.9h-1.4l2.7-7.3h1.1l2.7,7.3h-1.4l-0.7-2h-2.3L192.8,31.9z M194.7,26.5l-0.7,2h1.4L194.7,26.5z"/>
				<path class="st0" d="M199.4,31.9v-6h-1.3v-1.3h4v1.3h-1.4v6H199.4z"/>
				<path class="st0" d="M202.7,31.9v-7.3h3.8v1.3H204v1.8h2.5v1.2H204v1.8h2.5v1.3H202.7z"/>
				<path class="st0" d="M209.8,31.9v-7.3h1.7c0.4,0,0.7,0,0.9,0c0.3,0,0.5,0.1,0.8,0.3c0.3,0.2,0.5,0.4,0.7,0.8
					c0.2,0.3,0.3,0.7,0.3,1.1c0,0.7-0.2,1.2-0.7,1.6c-0.4,0.4-1,0.7-1.8,0.7h-0.6v2.8H209.8z M211.6,27.8c0.4,0,0.8-0.1,1-0.2
					c0.2-0.1,0.3-0.4,0.3-0.8c0-0.4-0.1-0.6-0.3-0.8c-0.2-0.1-0.5-0.2-0.9-0.2h-0.6v2H211.6z"/>
				<path class="st0" d="M218.9,28.1c-0.3,0.4-0.7,0.7-1.2,0.8l2.1,2.9h-1.6l-1.9-2.8h-0.1v2.8H215v-7.3h1.7c0.4,0,0.7,0,0.9,0
					c0.3,0,0.5,0.1,0.8,0.3c0.3,0.2,0.5,0.4,0.7,0.8c0.2,0.3,0.3,0.7,0.3,1.1C219.3,27.3,219.2,27.7,218.9,28.1z M217.7,26
					c-0.2-0.1-0.5-0.2-0.9-0.2h-0.6v2h0.5c0.4,0,0.8-0.1,1-0.2c0.2-0.1,0.3-0.4,0.3-0.8C218,26.5,217.9,26.2,217.7,26z"/>
				<path class="st0" d="M220.2,31.9v-7.3h3.8v1.3h-2.5v1.8h2.5v1.2h-2.5v1.8h2.5v1.3H220.2z"/>
				<path class="st0" d="M224.7,31.9v-7.3h2.3c1,0,1.9,0.3,2.5,1c0.6,0.7,1,1.6,1,2.6c0,0.6-0.1,1.2-0.4,1.7c-0.2,0.5-0.6,0.9-1,1.3
					c-0.3,0.3-0.7,0.4-1.1,0.5c-0.3,0.1-0.7,0.1-1.2,0.1H224.7z M226.9,30.6c0.7,0,1.3-0.2,1.6-0.6c0.4-0.4,0.6-1,0.6-1.7
					c0-0.8-0.2-1.4-0.6-1.8c-0.4-0.4-1-0.6-1.8-0.6h-0.8v4.8H226.9z"/>
				<path class="st0" d="M231.3,31.9v-7.3h1.3v7.3H231.3z"/>
				<path class="st0" d="M238.7,31.5c-0.5,0.4-1.1,0.5-1.8,0.5c-0.5,0-1-0.1-1.4-0.3c-0.4-0.2-0.8-0.5-1.2-0.9
					c-0.3-0.4-0.5-0.7-0.7-1.2c-0.2-0.4-0.2-0.9-0.2-1.4c0-0.5,0.1-1,0.3-1.4c0.2-0.5,0.4-0.9,0.8-1.2c0.3-0.3,0.7-0.6,1.1-0.8
					c0.4-0.2,0.9-0.3,1.3-0.3c0.7,0,1.3,0.2,1.9,0.6c0.6,0.4,1,1,1.3,1.7h-1.4c-0.2-0.3-0.5-0.6-0.8-0.7c-0.3-0.1-0.6-0.2-1-0.2
					c-0.3,0-0.6,0.1-0.8,0.2c-0.3,0.1-0.5,0.3-0.7,0.5c-0.2,0.2-0.4,0.5-0.5,0.8c-0.1,0.3-0.2,0.6-0.2,0.9c0,0.3,0.1,0.7,0.2,1
					c0.1,0.3,0.3,0.6,0.5,0.8c0.2,0.2,0.4,0.4,0.7,0.5c0.3,0.1,0.6,0.2,0.9,0.2c0.4,0,0.7-0.1,1-0.2c0.3-0.1,0.5-0.4,0.7-0.7h1.5
					C239.7,30.5,239.3,31.1,238.7,31.5z"/>
				<path class="st0" d="M241.9,31.9v-6h-1.3v-1.3h4v1.3h-1.4v6H241.9z"/>
				<path class="st0" d="M245.1,31.9v-7.3h1.3v7.3H245.1z"/>
				<path class="st0" d="M247.5,26.7c0.2-0.5,0.4-0.9,0.8-1.2c0.3-0.3,0.7-0.6,1.1-0.8c0.4-0.2,0.9-0.3,1.3-0.3
					c0.5,0,0.9,0.1,1.3,0.3c0.4,0.2,0.8,0.4,1.1,0.8c0.3,0.4,0.6,0.8,0.8,1.2c0.2,0.5,0.3,0.9,0.3,1.5c0,0.5-0.1,1-0.2,1.4
					c-0.2,0.4-0.4,0.8-0.7,1.2c-0.4,0.4-0.8,0.7-1.2,0.9c-0.4,0.2-0.9,0.3-1.4,0.3c-0.5,0-1-0.1-1.4-0.3c-0.4-0.2-0.8-0.5-1.2-0.9
					c-0.3-0.4-0.5-0.7-0.7-1.2c-0.2-0.4-0.2-0.9-0.2-1.4C247.3,27.7,247.4,27.2,247.5,26.7z M248.7,29.1c0.1,0.3,0.3,0.6,0.5,0.8
					c0.2,0.2,0.5,0.4,0.7,0.5c0.3,0.1,0.5,0.2,0.8,0.2c0.6,0,1.2-0.2,1.6-0.7c0.4-0.5,0.6-1.1,0.6-1.8c0-0.3-0.1-0.6-0.2-0.9
					c-0.1-0.3-0.3-0.5-0.5-0.8c-0.2-0.3-0.5-0.5-0.7-0.6c-0.3-0.1-0.6-0.2-0.9-0.2c-0.3,0-0.6,0.1-0.8,0.2c-0.3,0.1-0.5,0.3-0.7,0.5
					c-0.2,0.2-0.4,0.5-0.5,0.8c-0.1,0.3-0.2,0.6-0.2,0.9C248.6,28.5,248.6,28.8,248.7,29.1z"/>
				<path class="st0" d="M255.2,31.9v-7.3h1.2l3,4.8v-4.8h1.3v7.3h-1.2l-3-4.9v4.9H255.2z"/>
				<path class="st0" d="M269.5,31.5c-0.5,0.4-1.1,0.5-1.8,0.5c-0.5,0-1-0.1-1.4-0.3c-0.4-0.2-0.8-0.5-1.2-0.9
					c-0.3-0.4-0.5-0.7-0.7-1.2c-0.2-0.4-0.2-0.9-0.2-1.4c0-0.5,0.1-1,0.3-1.4c0.2-0.5,0.4-0.9,0.8-1.2c0.3-0.3,0.7-0.6,1.1-0.8
					c0.4-0.2,0.9-0.3,1.3-0.3c0.7,0,1.3,0.2,1.9,0.6c0.6,0.4,1,1,1.3,1.7h-1.4c-0.2-0.3-0.5-0.6-0.8-0.7c-0.3-0.1-0.6-0.2-1-0.2
					c-0.3,0-0.6,0.1-0.8,0.2c-0.3,0.1-0.5,0.3-0.7,0.5c-0.2,0.2-0.4,0.5-0.5,0.8c-0.1,0.3-0.2,0.6-0.2,0.9c0,0.3,0.1,0.7,0.2,1
					c0.1,0.3,0.3,0.6,0.5,0.8c0.2,0.2,0.4,0.4,0.7,0.5c0.3,0.1,0.6,0.2,0.9,0.2c0.4,0,0.7-0.1,1-0.2c0.3-0.1,0.5-0.4,0.7-0.7h1.5
					C270.5,30.5,270,31.1,269.5,31.5z"/>
				<path class="st0" d="M271.6,31.9v-7.3h3.8v1.3h-2.5v1.8h2.5v1.2h-2.5v1.8h2.5v1.3H271.6z"/>
				<path class="st0" d="M276.1,31.9v-7.3h1.2l3,4.8v-4.8h1.3v7.3h-1.2l-3-4.9v4.9H276.1z"/>
				<path class="st0" d="M283.5,31.9v-6h-1.3v-1.3h4v1.3h-1.4v6H283.5z"/>
				<path class="st0" d="M286.8,31.9v-7.3h3.8v1.3h-2.5v1.8h2.5v1.2h-2.5v1.8h2.5v1.3H286.8z"/>
				<path class="st0" d="M295.2,28.1c-0.3,0.4-0.7,0.7-1.2,0.8l2.1,2.9h-1.6l-1.9-2.8h-0.1v2.8h-1.3v-7.3h1.7c0.4,0,0.7,0,0.9,0
					c0.3,0,0.5,0.1,0.8,0.3c0.3,0.2,0.5,0.4,0.7,0.8c0.2,0.3,0.3,0.7,0.3,1.1C295.6,27.3,295.5,27.7,295.2,28.1z M294,26
					c-0.2-0.1-0.5-0.2-0.9-0.2h-0.6v2h0.5c0.4,0,0.8-0.1,1-0.2c0.2-0.1,0.3-0.4,0.3-0.8C294.3,26.5,294.2,26.2,294,26z"/>
			</g>
		</g>
	</g>
	<g>
		<path class="st1" d="M23.6,17.5c0.4,1.2,1.8,1.7,2.9,1.5c1.6-0.4,2.6-1.7,4.5-1.7c2,0,2.5,0.8,3.7,1.3c1.5,0.7,2.8,0.7,4.2-0.1
			c0.3-0.2,2.1-1.1,2-1.5l1.6,6.9l-7.9,4.5L28.5,26c0,0-2-1.4-2.5-1.9c-0.6-0.6-0.8-1.8-1.1-2.6C24.5,20.2,24,18.8,23.6,17.5z"/>
		<path class="st2" d="M23.6,21.2c0.4,1.2,1.8,1.7,2.9,1.5c1.6-0.4,2.6-1.7,4.5-1.7c2,0,2.5,0.8,3.7,1.3c1.5,0.7,2.8,0.7,4.2-0.1
			c0.3-0.2,2.1-1.1,2-1.5l0.3,4.5l-7.9,4.5h-4.8c0,0-2-1.4-2.5-1.9c-0.6-0.6-0.8-1.8-1.1-2.6C24.5,23.9,24,22.5,23.6,21.2z"/>
		<g>
			<linearGradient id="SVGID_1_" gradientUnits="userSpaceOnUse" x1="33.023" y1="0.2876" x2="33.023" y2="33.5857">
				<stop  offset="0" style="stop-color:#1AB9DE"/>
				<stop  offset="5.647377e-02" style="stop-color:#1EBADF"/>
				<stop  offset="0.1176" style="stop-color:#2BBEE1"/>
				<stop  offset="0.181" style="stop-color:#41C5E4"/>
				<stop  offset="0.2459" style="stop-color:#5FCEE8"/>
				<stop  offset="0.3121" style="stop-color:#87DAEE"/>
				<stop  offset="0.3792" style="stop-color:#B6E9F5"/>
				<stop  offset="0.4458" style="stop-color:#EEFAFD"/>
				<stop  offset="0.4647" style="stop-color:#FFFFFF"/>
				<stop  offset="0.482" style="stop-color:#E0E9F2"/>
				<stop  offset="0.5173" style="stop-color:#A5BFD9"/>
				<stop  offset="0.5526" style="stop-color:#739BC4"/>
				<stop  offset="0.5871" style="stop-color:#497EB2"/>
				<stop  offset="0.6205" style="stop-color:#2967A5"/>
				<stop  offset="0.6527" style="stop-color:#13579B"/>
				<stop  offset="0.683" style="stop-color:#054D95"/>
				<stop  offset="0.7095" style="stop-color:#004A93"/>
			</linearGradient>
			<path class="st3" d="M32.9,31.9c-4.4,0-8-1.4-10.8-4.3c-2.8-2.9-4.2-6.6-4.2-11.2c0-4.9,1.4-8.8,4.2-11.8C25,1.5,28.7,0,33.4,0
				c4.4,0,8,1.4,10.7,4.3c2.7,2.9,4.1,6.7,4.1,11.4c0,4.8-1.4,8.8-4.2,11.7C41.1,30.4,37.4,31.9,32.9,31.9z M33.2,6
				c-2.4,0-4.4,0.9-5.8,2.7c-1.4,1.8-2.2,4.2-2.2,7.3c0,3.1,0.7,5.5,2.2,7.3c1.4,1.8,3.3,2.7,5.6,2.7c2.4,0,4.3-0.9,5.7-2.6
				c1.4-1.7,2.1-4.1,2.1-7.2c0-3.2-0.7-5.7-2-7.5C37.4,6.9,35.6,6,33.2,6z"/>
			
				<linearGradient id="SVGID_00000006691815793783965020000013552459513114307989_" gradientUnits="userSpaceOnUse" x1="63.3535" y1="0.2876" x2="63.3535" y2="33.5857">
				<stop  offset="0" style="stop-color:#1AB9DE"/>
				<stop  offset="5.647377e-02" style="stop-color:#1EBADF"/>
				<stop  offset="0.1176" style="stop-color:#2BBEE1"/>
				<stop  offset="0.181" style="stop-color:#41C5E4"/>
				<stop  offset="0.2459" style="stop-color:#5FCEE8"/>
				<stop  offset="0.3121" style="stop-color:#87DAEE"/>
				<stop  offset="0.3792" style="stop-color:#B6E9F5"/>
				<stop  offset="0.4458" style="stop-color:#EEFAFD"/>
				<stop  offset="0.4647" style="stop-color:#FFFFFF"/>
				<stop  offset="0.482" style="stop-color:#E0E9F2"/>
				<stop  offset="0.5173" style="stop-color:#A5BFD9"/>
				<stop  offset="0.5526" style="stop-color:#739BC4"/>
				<stop  offset="0.5871" style="stop-color:#497EB2"/>
				<stop  offset="0.6205" style="stop-color:#2967A5"/>
				<stop  offset="0.6527" style="stop-color:#13579B"/>
				<stop  offset="0.683" style="stop-color:#054D95"/>
				<stop  offset="0.7095" style="stop-color:#004A93"/>
			</linearGradient>
			<path style="fill:url(#SVGID_00000006691815793783965020000013552459513114307989_);" d="M75.4,30.3c-2.3,1.1-5.2,1.6-8.8,1.6
				c-4.7,0-8.5-1.4-11.2-4.2c-2.7-2.8-4.1-6.5-4.1-11.1c0-4.9,1.5-8.9,4.6-12c3-3.1,7-4.6,11.9-4.6c3,0,5.6,0.4,7.6,1.1v6.7
				C73.3,6.6,71,6,68.3,6c-2.9,0-5.2,0.9-7,2.7c-1.8,1.8-2.7,4.3-2.7,7.4c0,3,0.8,5.4,2.5,7.1c1.7,1.8,3.9,2.7,6.8,2.7
				c2.7,0,5.2-0.7,7.4-2V30.3z"/>
			
				<linearGradient id="SVGID_00000173142973175930590630000017425465465602200216_" gradientUnits="userSpaceOnUse" x1="92.0373" y1="0.2839" x2="92.0373" y2="34.2559">
				<stop  offset="0" style="stop-color:#1AB9DE"/>
				<stop  offset="5.647377e-02" style="stop-color:#1EBADF"/>
				<stop  offset="0.1176" style="stop-color:#2BBEE1"/>
				<stop  offset="0.181" style="stop-color:#41C5E4"/>
				<stop  offset="0.2459" style="stop-color:#5FCEE8"/>
				<stop  offset="0.3121" style="stop-color:#87DAEE"/>
				<stop  offset="0.3792" style="stop-color:#B6E9F5"/>
				<stop  offset="0.4458" style="stop-color:#EEFAFD"/>
				<stop  offset="0.4647" style="stop-color:#FFFFFF"/>
				<stop  offset="0.482" style="stop-color:#E0E9F2"/>
				<stop  offset="0.5173" style="stop-color:#A5BFD9"/>
				<stop  offset="0.5526" style="stop-color:#739BC4"/>
				<stop  offset="0.5871" style="stop-color:#497EB2"/>
				<stop  offset="0.6205" style="stop-color:#2967A5"/>
				<stop  offset="0.6527" style="stop-color:#13579B"/>
				<stop  offset="0.683" style="stop-color:#054D95"/>
				<stop  offset="0.7095" style="stop-color:#004A93"/>
			</linearGradient>
			<path style="fill:url(#SVGID_00000173142973175930590630000017425465465602200216_);" d="M87.7,20.7V32h-7V0.5h10.9
				c7.8,0,11.7,3.3,11.7,9.8c0,3.1-1.1,5.6-3.3,7.5c-2.2,1.9-5.2,2.9-8.9,2.9H87.7z M87.7,5.9v9.6h2.7c3.7,0,5.6-1.6,5.6-4.9
				c0-3.2-1.9-4.8-5.6-4.8H87.7z"/>
			
				<linearGradient id="SVGID_00000036942955135221347640000015067011560643599798_" gradientUnits="userSpaceOnUse" x1="117.9242" y1="0.2876" x2="117.9242" y2="33.5857">
				<stop  offset="0" style="stop-color:#1AB9DE"/>
				<stop  offset="5.647377e-02" style="stop-color:#1EBADF"/>
				<stop  offset="0.1176" style="stop-color:#2BBEE1"/>
				<stop  offset="0.181" style="stop-color:#41C5E4"/>
				<stop  offset="0.2459" style="stop-color:#5FCEE8"/>
				<stop  offset="0.3121" style="stop-color:#87DAEE"/>
				<stop  offset="0.3792" style="stop-color:#B6E9F5"/>
				<stop  offset="0.4458" style="stop-color:#EEFAFD"/>
				<stop  offset="0.4647" style="stop-color:#FFFFFF"/>
				<stop  offset="0.482" style="stop-color:#E0E9F2"/>
				<stop  offset="0.5173" style="stop-color:#A5BFD9"/>
				<stop  offset="0.5526" style="stop-color:#739BC4"/>
				<stop  offset="0.5871" style="stop-color:#497EB2"/>
				<stop  offset="0.6205" style="stop-color:#2967A5"/>
				<stop  offset="0.6527" style="stop-color:#13579B"/>
				<stop  offset="0.683" style="stop-color:#054D95"/>
				<stop  offset="0.7095" style="stop-color:#004A93"/>
			</linearGradient>
			<path style="fill:url(#SVGID_00000036942955135221347640000015067011560643599798_);" d="M130,30.3c-2.3,1.1-5.2,1.6-8.8,1.6
				c-4.7,0-8.5-1.4-11.2-4.2c-2.7-2.8-4.1-6.5-4.1-11.1c0-4.9,1.5-8.9,4.6-12c3-3.1,7-4.6,11.9-4.6c3,0,5.6,0.4,7.6,1.1v6.7
				c-2.1-1.2-4.4-1.9-7.1-1.9c-2.9,0-5.2,0.9-7,2.7c-1.8,1.8-2.7,4.3-2.7,7.4c0,3,0.8,5.4,2.5,7.1c1.7,1.8,3.9,2.7,6.8,2.7
				c2.7,0,5.2-0.7,7.4-2V30.3z"/>
		</g>
		<g>
			
				<linearGradient id="SVGID_00000087403810258182529470000011713201666066800533_" gradientUnits="userSpaceOnUse" x1="33.023" y1="0.2876" x2="33.023" y2="33.5857">
				<stop  offset="0" style="stop-color:#1AB9DE"/>
				<stop  offset="5.647377e-02" style="stop-color:#1EBADF"/>
				<stop  offset="0.1176" style="stop-color:#2BBEE1"/>
				<stop  offset="0.181" style="stop-color:#41C5E4"/>
				<stop  offset="0.2459" style="stop-color:#5FCEE8"/>
				<stop  offset="0.3121" style="stop-color:#87DAEE"/>
				<stop  offset="0.3792" style="stop-color:#B6E9F5"/>
				<stop  offset="0.4458" style="stop-color:#EEFAFD"/>
				<stop  offset="0.4647" style="stop-color:#FFFFFF"/>
				<stop  offset="0.482" style="stop-color:#E0E9F2"/>
				<stop  offset="0.5173" style="stop-color:#A5BFD9"/>
				<stop  offset="0.5526" style="stop-color:#739BC4"/>
				<stop  offset="0.5871" style="stop-color:#497EB2"/>
				<stop  offset="0.6205" style="stop-color:#2967A5"/>
				<stop  offset="0.6527" style="stop-color:#13579B"/>
				<stop  offset="0.683" style="stop-color:#054D95"/>
				<stop  offset="0.7095" style="stop-color:#004A93"/>
			</linearGradient>
			<path style="fill:url(#SVGID_00000087403810258182529470000011713201666066800533_);" d="M32.9,31.9c-4.4,0-8-1.4-10.8-4.3
				c-2.8-2.9-4.2-6.6-4.2-11.2c0-4.9,1.4-8.8,4.2-11.8C25,1.5,28.7,0,33.4,0c4.4,0,8,1.4,10.7,4.3c2.7,2.9,4.1,6.7,4.1,11.4
				c0,4.8-1.4,8.8-4.2,11.7C41.1,30.4,37.4,31.9,32.9,31.9z M33.2,6c-2.4,0-4.4,0.9-5.8,2.7c-1.4,1.8-2.2,4.2-2.2,7.3
				c0,3.1,0.7,5.5,2.2,7.3c1.4,1.8,3.3,2.7,5.6,2.7c2.4,0,4.3-0.9,5.7-2.6c1.4-1.7,2.1-4.1,2.1-7.2c0-3.2-0.7-5.7-2-7.5
				C37.4,6.9,35.6,6,33.2,6z"/>
		</g>
	</g>
</g>
</svg>
