<?xml version="1.0" encoding="utf-8"?>
<!-- Generator: Adobe Illustrator 28.0.0, SVG Export Plug-In . SVG Version: 6.00 Build 0)  -->
<svg version="1.1" id="Layer_1" xmlns="http://www.w3.org/2000/svg" xmlns:xlink="http://www.w3.org/1999/xlink" x="0px" y="0px"
	 viewBox="0 0 24 24" style="enable-background:new 0 0 24 24;" xml:space="preserve">
<style type="text/css">
	.st0{stroke:#000000;stroke-width:0.4874;}
</style>
<g>
	<path class="st0" d="M22.4,10.7l-0.2-0.2c-0.5-0.4-1-0.7-1.6-0.9l-0.1,0V2.6H1.9v14h7.9v0.1c0,1.7,0.5,3.3,1.6,4.7l0.2,0.2H4.7
		v-1.9h4.7v-1.3H0.9l0,0L0,17.6l0,0V1.7l0,0l0.8-0.8l0,0h20.7l0,0l0.8,0.8l0,0V10.7z"/>
	<path class="st0" d="M17.5,10.3c0.6,0,1.2,0.1,1.7,0.2l0.2,0.1c0.5,0.1,0.9,0.3,1.3,0.6h0c0.4,0.2,0.8,0.5,1.2,0.9l0.2,0.1
		c0.3,0.3,0.6,0.7,0.9,1.1l0.1,0.2v0c0.4,0.7,0.7,1.6,0.8,2.4c0.1,0.9,0.1,1.7-0.2,2.6c-0.2,0.6-0.4,1.1-0.7,1.5
		c-0.3,0.5-0.6,0.9-1,1.3c-0.4,0.4-0.8,0.7-1.3,1h0c-0.7,0.4-1.6,0.7-2.4,0.8c-0.9,0.1-1.7,0.1-2.6-0.2h0c-0.5-0.1-1.1-0.4-1.5-0.7
		v0c-0.5-0.3-0.9-0.6-1.3-1v0c-0.4-0.4-0.7-0.8-1-1.3c-0.4-0.7-0.7-1.6-0.8-2.4c-0.1-0.9-0.1-1.7,0.2-2.6v0c0.2-0.6,0.4-1.1,0.7-1.5
		c0.3-0.5,0.6-0.9,1-1.3l0.1-0.1c0.4-0.3,0.7-0.6,1.2-0.9v0C15.3,10.6,16.4,10.3,17.5,10.3L17.5,10.3z M16.1,19.7l4.4-2.9l-4.4-2.9
		V19.7z"/>
</g>
</svg>
