<?xml version="1.0" encoding="utf-8"?>
<!-- Generator: Adobe Illustrator 28.0.0, SVG Export Plug-In . SVG Version: 6.00 Build 0)  -->
<svg version="1.1" id="Layer_1" xmlns="http://www.w3.org/2000/svg" xmlns:xlink="http://www.w3.org/1999/xlink" x="0px" y="0px"
	 viewBox="0 0 24 24" style="enable-background:new 0 0 24 24;" xml:space="preserve">
<g>
	<path d="M10.2,16.2h3.6v-3h3V9.6h-3v-3h-3.6v3h-3v3.6h3V16.2z M12,24c-2.8-0.7-5.1-2.3-7-4.8c-1.8-2.5-2.7-5.3-2.7-8.3V3.6L12,0
		l9.7,3.6v7.3c0,3-0.9,5.8-2.7,8.3C17.1,21.7,14.8,23.3,12,24z M12,21.5c2.1-0.7,3.8-2,5.2-4c1.4-2,2.1-4.2,2.1-6.6V5.2L12,2.5
		L4.7,5.2v5.7c0,2.4,0.7,4.6,2.1,6.6C8.2,19.5,9.9,20.8,12,21.5z"/>
</g>
</svg>
