<?xml version="1.0" encoding="utf-8"?>
<!-- Generator: Adobe Illustrator 28.0.0, SVG Export Plug-In . SVG Version: 6.00 Build 0)  -->
<svg version="1.1" id="Layer_1" xmlns="http://www.w3.org/2000/svg" xmlns:xlink="http://www.w3.org/1999/xlink" x="0px" y="0px"
	 viewBox="0 0 24 24" style="enable-background:new 0 0 24 24;" xml:space="preserve">
<path d="M19.6,8.7c-1,0-1.9-0.3-2.7-0.9c-0.8-0.6-1.3-1.4-1.5-2.3H8.6C8.4,6.2,8,6.9,7.4,7.4C6.9,8,6.2,8.4,5.5,8.6v6.8
	c0.9,0.3,1.7,0.8,2.3,1.5c0.6,0.8,0.9,1.7,0.9,2.7c0,1.2-0.4,2.2-1.3,3.1C6.6,23.6,5.6,24,4.4,24c-1.2,0-2.2-0.4-3.1-1.3
	S0,20.8,0,19.6c0-1,0.3-1.9,0.9-2.7c0.6-0.8,1.4-1.3,2.3-1.5V8.6C2.3,8.3,1.5,7.8,0.9,7C0.3,6.3,0,5.4,0,4.4c0-1.2,0.4-2.2,1.3-3.1
	S3.2,0,4.4,0c1,0,1.9,0.3,2.7,0.9c0.8,0.6,1.3,1.4,1.5,2.3h6.8c0.3-0.9,0.8-1.7,1.5-2.3C17.7,0.3,18.6,0,19.6,0
	c1.2,0,2.2,0.4,3.1,1.3C23.6,2.1,24,3.2,24,4.4c0,1.2-0.4,2.2-1.3,3.1C21.9,8.3,20.8,8.7,19.6,8.7z M4.4,21.8c0.6,0,1.1-0.2,1.5-0.7
	c0.4-0.4,0.6-0.9,0.6-1.5c0-0.6-0.2-1.1-0.6-1.5c-0.4-0.4-0.9-0.6-1.5-0.6c-0.6,0-1.1,0.2-1.5,0.6c-0.4,0.4-0.7,0.9-0.7,1.5
	c0,0.6,0.2,1.1,0.7,1.5C3.3,21.6,3.8,21.8,4.4,21.8z M4.4,6.5c0.6,0,1.1-0.2,1.5-0.6C6.3,5.5,6.5,5,6.5,4.4c0-0.6-0.2-1.1-0.6-1.5
	C5.5,2.4,5,2.2,4.4,2.2c-0.6,0-1.1,0.2-1.5,0.6C2.4,3.3,2.2,3.8,2.2,4.4s0.2,1.1,0.7,1.5C3.3,6.3,3.8,6.5,4.4,6.5z M19.6,24
	c-1.2,0-2.2-0.4-3.1-1.3c-0.9-0.9-1.3-1.9-1.3-3.1c0-1.2,0.4-2.2,1.3-3.1c0.9-0.9,1.9-1.3,3.1-1.3c1.2,0,2.2,0.4,3.1,1.3
	c0.9,0.9,1.3,1.9,1.3,3.1c0,1.2-0.4,2.2-1.3,3.1C21.9,23.6,20.8,24,19.6,24z M19.6,21.8c0.6,0,1.1-0.2,1.5-0.7
	c0.4-0.4,0.6-0.9,0.6-1.5c0-0.6-0.2-1.1-0.6-1.5c-0.4-0.4-0.9-0.6-1.5-0.6c-0.6,0-1.1,0.2-1.5,0.6c-0.4,0.4-0.6,0.9-0.6,1.5
	c0,0.6,0.2,1.1,0.6,1.5C18.5,21.6,19,21.8,19.6,21.8z M19.6,6.5c0.6,0,1.1-0.2,1.5-0.6c0.4-0.4,0.6-0.9,0.6-1.5
	c0-0.6-0.2-1.1-0.6-1.5c-0.4-0.4-0.9-0.6-1.5-0.6c-0.6,0-1.1,0.2-1.5,0.6c-0.4,0.4-0.6,0.9-0.6,1.5c0,0.6,0.2,1.1,0.6,1.5
	C18.5,6.3,19,6.5,19.6,6.5z"/>
</svg>
