<?xml version="1.0" encoding="utf-8"?>
<!-- Generator: Adobe Illustrator 28.0.0, SVG Export Plug-In . SVG Version: 6.00 Build 0)  -->
<svg version="1.1" id="Layer_1" xmlns="http://www.w3.org/2000/svg" xmlns:xlink="http://www.w3.org/1999/xlink" x="0px" y="0px"
	 viewBox="0 0 24 24" style="enable-background:new 0 0 24 24;" xml:space="preserve">
<style type="text/css">
	.st0{fill-rule:evenodd;clip-rule:evenodd;}
</style>
<g>
	<path class="st0" d="M17.6,1.3H5.1c-0.7,0-1.3,0-1.7,0C1.5,1.5,0.2,2.9,0,4.6c0,0.5,0,1.1,0,1.7v11.2c0,0.7,0,1.3,0,1.7
		c0,0.5,0.1,1,0.3,1.4c0.3,0.7,0.9,1.2,1.6,1.6c0.4,0.2,0.9,0.3,1.4,0.3c0.5,0,1,0,1.7,0h12.5c0.7,0,1.3,0,1.7,0
		c0.5,0,1-0.1,1.4-0.3c0.2-0.1,0.4-0.3,0.5-0.6c0.1-0.2,0.1-0.5-0.1-0.7c-0.1-0.2-0.3-0.4-0.5-0.5c-0.2-0.1-0.5-0.1-0.7,0
		c-0.1,0.1-0.3,0.1-0.7,0.1c-0.4,0-0.9,0-1.6,0H5.1c-0.7,0-1.2,0-1.6,0c-0.4,0-0.5-0.1-0.7-0.1c-0.3-0.2-0.6-0.4-0.7-0.7
		C2.1,19.7,2,19.6,2,19.2c0-0.4,0-0.9,0-1.6V7.1h18.8c0,0.5,0,1.1,0,1.6c0,0.3,0.1,0.5,0.3,0.7c0.2,0.2,0.4,0.3,0.7,0.3
		c0.3,0,0.5-0.1,0.7-0.3c0.2-0.2,0.3-0.4,0.3-0.7c0-0.2,0-0.5,0-0.7c0-0.9,0-2.3-0.1-3.4c-0.1-1.8-1.4-3.1-3.2-3.3
		C18.9,1.3,18.3,1.3,17.6,1.3z M20.6,5.2c-0.1-1-0.4-1.8-1.5-1.9c-0.4,0-0.9,0-1.6,0H5.1c-0.7,0-1.2,0-1.6,0C2.4,3.4,2,4.2,2,5.2
		H20.6z"/>
	<path d="M4.9,8.4c-0.3,0-0.5,0.1-0.7,0.3C4,8.9,3.9,9.2,3.9,9.4S4,9.9,4.2,10.1c0.2,0.2,0.4,0.3,0.7,0.3h7.8c0.3,0,0.5-0.1,0.7-0.3
		c0.2-0.2,0.3-0.4,0.3-0.7s-0.1-0.5-0.3-0.7c-0.2-0.2-0.4-0.3-0.7-0.3H4.9z"/>
	<path class="st0" d="M18.5,9.7c-0.7,0-1.3,0.2-1.9,0.4c-0.6,0.3-1.1,0.7-1.5,1.2c-0.4,0.5-0.7,1.1-0.8,1.8
		c-0.1,0.6-0.1,1.3,0.1,1.9c0.2,0.6,0.5,1.2,0.9,1.7s1,0.9,1.6,1.1c0.6,0.2,1.3,0.3,1.9,0.3c0.6-0.1,1.3-0.3,1.8-0.6l1.6,1.6
		c0.1,0.1,0.2,0.2,0.3,0.2s0.2,0.1,0.4,0.1c0.1,0,0.3,0,0.4-0.1c0.1,0,0.2-0.1,0.3-0.2c0.1-0.1,0.2-0.2,0.2-0.3
		c0-0.1,0.1-0.3,0.1-0.4s0-0.3-0.1-0.4c-0.1-0.1-0.1-0.2-0.2-0.3l-1.6-1.6c0.4-0.6,0.6-1.4,0.6-2.1c0-0.7-0.2-1.5-0.5-2.1
		c-0.4-0.7-0.9-1.2-1.5-1.6C20,9.9,19.2,9.7,18.5,9.7z M16.2,13.9c0-0.6,0.2-1.2,0.7-1.6c0.4-0.4,1-0.7,1.6-0.7
		c0.6,0,1.2,0.2,1.6,0.7c0.4,0.4,0.7,1,0.7,1.6c0,0.6-0.2,1.2-0.7,1.6c-0.4,0.4-1,0.7-1.6,0.7c-0.6,0-1.2-0.2-1.6-0.7
		C16.4,15.1,16.2,14.5,16.2,13.9z"/>
	<path d="M4.9,11c-0.3,0-0.5,0.1-0.7,0.3C4,11.5,3.9,11.7,3.9,12s0.1,0.5,0.3,0.7C4.4,12.9,4.6,13,4.9,13h3.9c0.3,0,0.5-0.1,0.7-0.3
		c0.2-0.2,0.3-0.4,0.3-0.7s-0.1-0.5-0.3-0.7C9.3,11.1,9,11,8.7,11H4.9z M4.9,14.9c-0.3,0-0.5,0.1-0.7,0.3c-0.2,0.2-0.3,0.4-0.3,0.7
		c0,0.3,0.1,0.5,0.3,0.7c0.2,0.2,0.4,0.3,0.7,0.3h6.5c0.3,0,0.5-0.1,0.7-0.3c0.2-0.2,0.3-0.4,0.3-0.7c0-0.3-0.1-0.5-0.3-0.7
		c-0.2-0.2-0.4-0.3-0.7-0.3H4.9z M4.9,17.5c-0.3,0-0.5,0.1-0.7,0.3C4,18,3.9,18.2,3.9,18.5c0,0.3,0.1,0.5,0.3,0.7
		c0.2,0.2,0.4,0.3,0.7,0.3h3.9c0.3,0,0.5-0.1,0.7-0.3c0.2-0.2,0.3-0.4,0.3-0.7c0-0.3-0.1-0.5-0.3-0.7c-0.2-0.2-0.4-0.3-0.7-0.3H4.9z
		"/>
</g>
</svg>
