<?xml version="1.0" encoding="utf-8"?>
<!-- Generator: Adobe Illustrator 28.0.0, SVG Export Plug-In . SVG Version: 6.00 Build 0)  -->
<svg version="1.1" id="Layer_1" xmlns="http://www.w3.org/2000/svg" xmlns:xlink="http://www.w3.org/1999/xlink" x="0px" y="0px"
	 viewBox="0 0 24 24" style="enable-background:new 0 0 24 24;" xml:space="preserve">
<path d="M3.6,24c-0.7,0-1.2-0.2-1.7-0.7c-0.5-0.5-0.7-1-0.7-1.7V8.1C0.8,7.8,0.5,7.6,0.3,7.2C0.1,6.9,0,6.5,0,6V2.4
	c0-0.7,0.2-1.2,0.7-1.7C1.2,0.2,1.7,0,2.4,0h19.2c0.7,0,1.2,0.2,1.7,0.7c0.5,0.5,0.7,1,0.7,1.7V6c0,0.5-0.1,0.9-0.3,1.2
	c-0.2,0.4-0.5,0.6-0.9,0.9v13.5c0,0.7-0.2,1.2-0.7,1.7c-0.5,0.5-1,0.7-1.7,0.7H3.6z M3.6,8.4v13.2h16.8V8.4H3.6z M2.4,6h19.2V2.4
	H2.4V6z M8.4,14.4h7.2V12H8.4V14.4z"/>
</svg>
