<?xml version="1.0" encoding="utf-8"?>
<!-- Generator: Adobe Illustrator 28.0.0, SVG Export Plug-In . SVG Version: 6.00 Build 0)  -->
<svg version="1.1" id="Layer_1" xmlns="http://www.w3.org/2000/svg" xmlns:xlink="http://www.w3.org/1999/xlink" x="0px" y="0px"
	 viewBox="0 0 24 24" style="enable-background:new 0 0 24 24;" xml:space="preserve">
<path d="M2.7,24c-0.7,0-1.4-0.3-1.9-0.8C0.3,22.7,0,22.1,0,21.3V2.7c0-0.7,0.3-1.4,0.8-1.9C1.3,0.3,1.9,0,2.7,0h18.7
	c0.7,0,1.4,0.3,1.9,0.8C23.7,1.3,24,1.9,24,2.7v18.7c0,0.7-0.3,1.4-0.8,1.9c-0.5,0.5-1.1,0.8-1.9,0.8H2.7z M2.7,21.3h8V2.7h-8V21.3z
	 M13.3,21.3h8V12h-8V21.3z M13.3,9.3h8V2.7h-8V9.3z"/>
</svg>
