<?xml version="1.0" encoding="utf-8"?>
<!-- Generator: Adobe Illustrator 28.0.0, SVG Export Plug-In . SVG Version: 6.00 Build 0)  -->
<svg version="1.1" id="Layer_1" xmlns="http://www.w3.org/2000/svg" xmlns:xlink="http://www.w3.org/1999/xlink" x="0px" y="0px"
	 viewBox="0 0 24 24" style="enable-background:new 0 0 24 24;" xml:space="preserve">
<g>
	<path d="M12,24c-0.6,0-1,0-1.4-0.2c-0.5-0.2-0.9-0.6-1.2-1.2c-0.2-0.4-0.2-0.8-0.2-1.4c0-0.6,0-1,0.2-1.4c0.2-0.5,0.6-0.9,1.2-1.2
		c0.1,0,0.2-0.1,0.3-0.1V13h-0.4C9,13,8,13,7.3,12.3c-0.5-0.5-0.7-1.1-0.7-2H5.4c-0.6,0-1-0.5-1-1s0.5-1,1-1h1.1V7H5.4
		c-0.6,0-1-0.5-1-1s0.5-1,1-1h1.2c0-0.9,0.2-1.5,0.7-2c0.5-0.5,1.1-0.7,2-0.7V1c0-0.6,0.5-1,1-1s1,0.5,1,1v1.1h1.2V1
		c0-0.6,0.5-1,1-1c0.6,0,1,0.5,1,1v1.2c0.9,0,1.5,0.2,2,0.7c0.5,0.5,0.7,1.1,0.7,2h1.2c0.6,0,1,0.5,1,1s-0.5,1-1,1h-1.1v1.2h1.1
		c0.6,0,1,0.5,1,1s-0.5,1-1,1h-1.2c0,0.9-0.2,1.5-0.7,2C16,13,15,13,13.5,13H13v5.6c0.1,0,0.2,0.1,0.3,0.1c0.5,0.2,0.9,0.6,1.2,1.2
		c0.2,0.4,0.2,0.8,0.2,1.4c0,0.6,0,1-0.2,1.4c-0.2,0.5-0.6,0.9-1.2,1.2C13,24,12.6,24,12,24z M12.6,20.7c-0.1,0-1,0-1.2,0
		c0,0.1,0,0.3,0,0.6c0,0.3,0,0.5,0,0.6c0.1,0,1,0,1.2,0c0-0.1,0-0.3,0-0.6C12.6,21.1,12.6,20.8,12.6,20.7z M12,11h1.4
		c0.8,0,1.6,0,1.8-0.1c0.1-0.1,0.1-1,0.1-1.8V6.2c0-0.7,0-1.6-0.1-1.8c-0.1-0.1-1-0.1-1.8-0.1h-2.9c-0.7,0-1.6,0-1.8,0.1
		c-0.1,0.1-0.1,1-0.1,1.8v2.9c0,0.8,0,1.6,0.1,1.8c0.1,0.1,1,0.1,1.8,0.1H12C12,11,12,11,12,11z M3.8,24c-0.6,0-1,0-1.4-0.2
		c-0.5-0.2-0.9-0.6-1.2-1.2c-0.2-0.4-0.2-0.8-0.2-1.4c0-0.6,0-1,0.2-1.4c0.2-0.5,0.6-0.9,1.2-1.2c0.4-0.2,0.8-0.2,1.4-0.2
		c0.6,0,1,0,1.4,0.2c0.5,0.2,0.9,0.6,1.2,1.2c0.2,0.4,0.2,0.8,0.2,1.4c0,0.6,0,1-0.2,1.4c-0.2,0.5-0.6,0.9-1.2,1.2
		C4.8,24,4.4,24,3.8,24z M3.2,21.9C3.2,21.9,3.2,21.9,3.2,21.9L3.2,21.9C3.2,21.9,3.2,21.9,3.2,21.9L3.2,21.9
		C3.2,21.9,3.2,21.9,3.2,21.9z M3.2,21.9c0.2,0,1,0,1.2,0c0-0.1,0-0.3,0-0.6c0-0.3,0-0.5,0-0.6c-0.1,0-1,0-1.2,0c0,0.1,0,0.3,0,0.6
		C3.2,21.6,3.2,21.8,3.2,21.9z"/>
	<path d="M20.2,24c-0.6,0-1,0-1.4-0.2c-0.5-0.2-0.9-0.6-1.2-1.2c-0.2-0.4-0.2-0.8-0.2-1.4c0-0.6,0-1,0.2-1.4
		c0.2-0.5,0.6-0.9,1.2-1.2c0.1,0,0.2-0.1,0.3-0.1c0-0.7-0.1-1.1-0.2-1.3c-0.1-0.1-0.2-0.2-0.3-0.3c-0.3-0.2-1.1-0.2-2.3-0.2H7.6
		c-1.2,0-2,0-2.3,0.2c-0.1,0.1-0.2,0.2-0.3,0.3c-0.2,0.3-0.2,1.1-0.2,2.3c0,0.6-0.5,1-1,1s-1-0.5-1-1c0-1.7,0-2.6,0.5-3.4
		c0.2-0.4,0.5-0.7,0.9-0.9c0.8-0.5,1.7-0.5,3.4-0.5h8.8c1.7,0,2.6,0,3.4,0.5c0.4,0.2,0.7,0.5,0.9,0.9c0.4,0.6,0.5,1.4,0.5,2.5
		c0.1,0,0.2,0.1,0.3,0.1c0.5,0.2,0.9,0.6,1.2,1.2c0.2,0.4,0.2,0.8,0.2,1.4c0,0.6,0,1-0.2,1.4c-0.2,0.5-0.6,0.9-1.2,1.2
		C21.2,24,20.8,24,20.2,24z M20.2,20.7c-0.3,0-0.5,0-0.6,0c0,0.1,0,0.3,0,0.6c0,0.3,0,0.5,0,0.6c0.1,0,1,0,1.2,0c0-0.1,0-0.3,0-0.6
		c0-0.3,0-0.5,0-0.6C20.7,20.7,20.5,20.7,20.2,20.7z"/>
</g>
</svg>
