<?xml version="1.0" encoding="utf-8"?>
<!-- Generator: Adobe Illustrator 28.0.0, SVG Export Plug-In . SVG Version: 6.00 Build 0)  -->
<svg version="1.1" id="Layer_1" xmlns="http://www.w3.org/2000/svg" xmlns:xlink="http://www.w3.org/1999/xlink" x="0px" y="0px"
	 viewBox="0 0 24 24" style="enable-background:new 0 0 24 24;" xml:space="preserve">
<path d="M19.2,22.3l-4.8-4.9l4.8-4.9l1.7,1.7L19,16.2h5v2.4h-5l1.9,1.9L19.2,22.3z M2.4,21.7c-0.7,0-1.2-0.2-1.7-0.7
	C0.2,20.5,0,20,0,19.3v-3.6c0-0.7,0.2-1.2,0.7-1.7c0.5-0.5,1-0.7,1.7-0.7h7.2c0.7,0,1.2,0.2,1.7,0.7c0.5,0.5,0.7,1,0.7,1.7v3.6
	c0,0.7-0.2,1.2-0.7,1.7c-0.5,0.5-1,0.7-1.7,0.7H2.4z M2.4,19.3h7.2v-3.6H2.4V19.3z M4.8,11.4L3.1,9.7L5,7.8H0V5.3h5L3.1,3.4l1.7-1.7
	l4.8,4.9L4.8,11.4z M14.4,10.8c-0.7,0-1.2-0.2-1.7-0.7C12.2,9.6,12,9,12,8.4V4.7C12,4,12.2,3.5,12.7,3c0.5-0.5,1-0.7,1.7-0.7h7.2
	c0.7,0,1.2,0.2,1.7,0.7C23.8,3.5,24,4,24,4.7v3.6c0,0.7-0.2,1.2-0.7,1.7c-0.5,0.5-1,0.7-1.7,0.7H14.4z M14.4,8.4h7.2V4.7h-7.2V8.4z"
	/>
</svg>
