<?xml version="1.0" encoding="utf-8"?>
<!-- Generator: Adobe Illustrator 28.0.0, SVG Export Plug-In . SVG Version: 6.00 Build 0)  -->
<svg version="1.1" id="Layer_1" xmlns="http://www.w3.org/2000/svg" xmlns:xlink="http://www.w3.org/1999/xlink" x="0px" y="0px"
	 viewBox="0 0 800 800" style="enable-background:new 0 0 800 800;" xml:space="preserve">
<style type="text/css">
	.st0{fill:none;stroke:#FFFFFF;stroke-width:33.3333;stroke-linejoin:round;stroke-miterlimit:133.3333;}
</style>
<path class="st0" d="M686.5,148.7c31.6,8.5,56.4,33.3,64.8,64.8c15.3,57.2,15.3,176.5,15.3,176.5s0,119.3-15.3,176.5
	c-8.4,31.6-33.3,56.4-64.8,64.8C629.3,646.7,400,646.7,400,646.7s-229.3,0-286.5-15.3c-31.6-8.5-56.4-33.3-64.8-64.8
	C33.3,509.4,33.3,390,33.3,390s0-119.3,15.3-176.5c8.5-31.6,33.3-56.4,64.8-64.8c57.2-15.3,286.5-15.3,286.5-15.3
	S629.3,133.3,686.5,148.7z M517.1,390L326.6,500V280L517.1,390z"/>
</svg>
