<?xml version="1.0" encoding="utf-8"?>
<!-- Generator: Adobe Illustrator 28.0.0, SVG Export Plug-In . SVG Version: 6.00 Build 0)  -->
<svg version="1.1" id="Layer_1" xmlns="http://www.w3.org/2000/svg" xmlns:xlink="http://www.w3.org/1999/xlink" x="0px" y="0px"
	 viewBox="0 0 24 24" style="enable-background:new 0 0 24 24;" xml:space="preserve">
<path d="M2.2,21.5c-0.6,0-1.1-0.2-1.5-0.6c-0.5-0.5-0.7-1-0.7-1.5v-2.1c0-0.6,0.2-1.1,0.6-1.5s0.9-0.6,1.5-0.6h6.5
	c0.6,0,1.1,0.2,1.5,0.6c0.4,0.4,0.6,0.9,0.6,1.5v2.1c0,0.6-0.2,1.1-0.6,1.5c-0.4,0.4-0.9,0.6-1.5,0.6H2.2z M15.3,21.5
	c-0.6,0-1.1-0.2-1.5-0.6s-0.6-0.9-0.6-1.5V4.6c0-0.6,0.2-1.1,0.6-1.5c0.4-0.4,0.9-0.6,1.5-0.6h6.5c0.6,0,1.1,0.2,1.5,0.6
	c0.5,0.5,0.7,1,0.7,1.5v14.8c0,0.6-0.2,1.1-0.6,1.5s-0.9,0.6-1.5,0.6H15.3z M2.2,19.4h6.5v-2.1H2.2V19.4z M15.3,19.4h6.5V4.6h-6.5
	C15.3,4.6,15.3,19.4,15.3,19.4z M18.5,18.3c0.3,0,0.6-0.1,0.8-0.3c0.2-0.2,0.3-0.5,0.3-0.7c0-0.3-0.1-0.5-0.3-0.7
	c-0.2-0.2-0.5-0.3-0.8-0.3s-0.6,0.1-0.8,0.3c-0.2,0.2-0.3,0.5-0.3,0.7c0,0.3,0.1,0.5,0.3,0.7C18,18.2,18.2,18.3,18.5,18.3z
	 M2.2,13.1c-0.6,0-1.1-0.2-1.5-0.6C0.2,12,0,11.5,0,10.9V4.6C0,4,0.2,3.5,0.6,3.1s0.9-0.6,1.5-0.6h6.5c0.6,0,1.1,0.2,1.5,0.6
	s0.6,0.9,0.6,1.5v6.3c0,0.6-0.2,1.1-0.6,1.5C9.7,12.8,9.2,13,8.6,13L2.2,13.1L2.2,13.1z M6.5,7.8c0.3,0,0.6-0.1,0.8-0.3
	C7.5,7.3,7.6,7,7.6,6.8c0-0.3-0.1-0.5-0.3-0.7C7.1,5.8,6.9,5.7,6.5,5.7C6.2,5.7,6,5.8,5.8,6C5.6,6.2,5.5,6.5,5.5,6.7
	c0,0.3,0.1,0.5,0.3,0.7C6,7.7,6.2,7.8,6.5,7.8z M8.7,10.9V4.6H2.2v6l1.7-2.2C4,8.2,4.2,8.1,4.4,8.1c0.2,0,0.3,0.1,0.4,0.2l2,2.6H8.7
	z"/>
</svg>
