<?xml version="1.0" encoding="utf-8"?>
<!-- Generator: Adobe Illustrator 28.0.0, SVG Export Plug-In . SVG Version: 6.00 Build 0)  -->
<svg version="1.1" id="Layer_1" xmlns="http://www.w3.org/2000/svg" xmlns:xlink="http://www.w3.org/1999/xlink" x="0px" y="0px"
	 viewBox="0 0 24 24" style="enable-background:new 0 0 24 24;" xml:space="preserve">
<path d="M21.3,3.2C21,3,20.7,2.9,20.4,2.9c-0.3,0-0.6,0-0.9,0.1l-9.2,3.6c-0.2,0.1-0.5,0.1-0.7,0.1H3.7c-0.5,0-1,0.2-1.3,0.5
	C2.1,7.7,1.9,8.2,1.9,8.7v0.1H0v4.5h1.9v0.2c0,0.5,0.2,1,0.6,1.3s0.8,0.5,1.3,0.5L6,20c0.2,0.3,0.4,0.6,0.7,0.8
	c0.3,0.2,0.6,0.3,1,0.3h0.9c0.5,0,1-0.2,1.3-0.6c0.3-0.3,0.5-0.8,0.5-1.3v-3.8l9.1,3.6c0.2,0.1,0.5,0.1,0.7,0.1c0.4,0,0.7-0.1,1-0.3
	c0.2-0.2,0.4-0.4,0.6-0.6c0.1-0.3,0.2-0.5,0.2-0.8V4.7c0-0.3-0.1-0.6-0.2-0.9C21.7,3.6,21.5,3.3,21.3,3.2z M8.6,8.7v4.8H3.7V8.7H8.6
	z M8.6,19.3H7.6l-1.8-4h2.8V19.3z M11,13.7c-0.2-0.1-0.4-0.2-0.6-0.2V8.6c0.2,0,0.4-0.1,0.6-0.2l9.2-3.7v12.7L11,13.7z M22.1,9.2
	v3.7c0.5,0,1-0.2,1.3-0.5C23.8,12,24,11.5,24,11c0-0.5-0.2-1-0.5-1.3C23.1,9.4,22.6,9.2,22.1,9.2z"/>
</svg>
