<?xml version="1.0" encoding="utf-8"?>
<!-- Generator: Adobe Illustrator 28.0.0, SVG Export Plug-In . SVG Version: 6.00 Build 0)  -->
<svg version="1.1" id="Layer_1" xmlns="http://www.w3.org/2000/svg" xmlns:xlink="http://www.w3.org/1999/xlink" x="0px" y="0px"
	 viewBox="0 0 24 24" style="enable-background:new 0 0 24 24;" xml:space="preserve">
<style type="text/css">
	.st0{fill:#181A1D;}
</style>
<path class="st0" d="M7.2,22.8v-1.2l2.4-2.4H2.4c-0.7,0-1.2-0.2-1.7-0.7C0.2,18,0,17.5,0,16.8V3.6c0-0.7,0.2-1.2,0.7-1.7
	c0.5-0.5,1-0.7,1.7-0.7h19.2c0.7,0,1.2,0.2,1.7,0.7c0.5,0.5,0.7,1,0.7,1.7v13.2c0,0.7-0.2,1.2-0.7,1.7c-0.5,0.5-1,0.7-1.7,0.7h-7.2
	l2.4,2.4v1.2H7.2z M2.4,13.2h19.2V3.6H2.4V13.2z"/>
</svg>
