<?xml version="1.0" encoding="utf-8"?>
<!-- Generator: Adobe Illustrator 28.0.0, SVG Export Plug-In . SVG Version: 6.00 Build 0)  -->
<svg version="1.1" id="Layer_1" xmlns="http://www.w3.org/2000/svg" xmlns:xlink="http://www.w3.org/1999/xlink" x="0px" y="0px"
	 viewBox="0 0 24 24" style="enable-background:new 0 0 24 24;" xml:space="preserve">
<path d="M10,15.6c-0.8,0-1.5-0.1-2.2-0.2c-0.7-0.1-1.4-0.2-2-0.4c0.6,0.2,1.3,0.3,2,0.4S9.2,15.6,10,15.6z M10.8,7.2
	c1.8,0,3.6-0.3,5.4-0.8c1.8-0.5,2.8-1.1,3-1.6c-0.2-0.6-1.2-1.1-3-1.6c-1.8-0.5-3.6-0.8-5.4-0.8C9,2.4,7.2,2.7,5.4,3.2
	c-1.7,0.5-2.8,1.1-3,1.7c0.3,0.5,1.3,1.1,3,1.6C7.2,7,9,7.2,10.8,7.2z M17.4,21.6h1.2v-4.9l2.2,2.2l0.8-0.8L18,14.4L14.4,18l0.8,0.8
	l2.2-2.2V21.6z M18,24c-1.7,0-3.1-0.6-4.2-1.8C12.6,21.1,12,19.7,12,18c0-1.7,0.6-3.1,1.8-4.2c1.2-1.2,2.6-1.8,4.2-1.8
	s3.1,0.6,4.2,1.8c1.2,1.2,1.8,2.6,1.8,4.2c0,1.7-0.6,3.1-1.8,4.2C21.1,23.4,19.7,24,18,24z M9.7,19.2c0.1,0.4,0.1,0.9,0.3,1.3
	c0.1,0.4,0.3,0.8,0.4,1.2c-1.5,0-2.8-0.2-4.1-0.4c-1.3-0.3-2.4-0.6-3.3-1c-0.9-0.4-1.7-0.9-2.2-1.5C0.3,18.1,0,17.5,0,16.8v-12
	c0-1.3,1.1-2.5,3.2-3.4C5.3,0.5,7.8,0,10.8,0c3,0,5.5,0.5,7.6,1.4c2.1,0.9,3.2,2.1,3.2,3.4v5.6c-0.4-0.2-0.8-0.3-1.2-0.4
	c-0.4-0.1-0.8-0.2-1.2-0.3V7.8c-1,0.6-2.3,1-3.7,1.3c-1.4,0.3-3,0.4-4.7,0.4c-1.7,0-3.3-0.1-4.7-0.4C4.6,8.8,3.4,8.4,2.4,7.8v3
	c1,0.9,2.3,1.6,3.9,1.9c1.6,0.3,3.1,0.5,4.5,0.5h0.3c-0.3,0.4-0.5,0.7-0.7,1.1c-0.2,0.4-0.4,0.8-0.5,1.3C8.4,15.5,7,15.3,5.7,15
	c-1.3-0.3-2.4-0.7-3.3-1.2v3c0.1,0.3,0.4,0.5,0.9,0.8s1,0.5,1.7,0.7c0.7,0.2,1.4,0.4,2.2,0.5C8,19,8.8,19.1,9.7,19.2z"/>
</svg>
