<?xml version="1.0" encoding="utf-8"?>
<!-- Generator: Adobe Illustrator 28.0.0, SVG Export Plug-In . SVG Version: 6.00 Build 0)  -->
<svg version="1.1" id="Layer_1" xmlns="http://www.w3.org/2000/svg" xmlns:xlink="http://www.w3.org/1999/xlink" x="0px" y="0px"
	 viewBox="0 0 24 24" style="enable-background:new 0 0 24 24;" xml:space="preserve">
<path d="M14.6,24v-2.1c2,0,3.8-0.7,5.2-2.1c1.4-1.4,2.1-3.1,2.1-5.2H24c0,1.3-0.2,2.5-0.7,3.7c-0.5,1.1-1.2,2.1-2,3
	c-0.8,0.8-1.8,1.5-3,2C17.1,23.8,15.9,24,14.6,24z M14.6,19.8v-2.1c0.9,0,1.6-0.3,2.2-0.9c0.6-0.6,0.9-1.3,0.9-2.2h2.1
	c0,1.4-0.5,2.7-1.5,3.7C17.3,19.3,16.1,19.8,14.6,19.8z M5.8,23.3c-0.3,0-0.5-0.1-0.8-0.2c-0.3-0.1-0.5-0.3-0.7-0.4L0.6,19
	c-0.2-0.2-0.3-0.4-0.4-0.7C0.1,18.1,0,17.8,0,17.6c0-0.3,0.1-0.5,0.2-0.8c0.1-0.3,0.3-0.5,0.4-0.7l3.3-3.3c0.4-0.4,0.9-0.6,1.5-0.6
	c0.6,0,1.1,0.2,1.5,0.6l1.3,1.3l0.7-0.7L7.6,12C7.2,11.6,7,11.1,7,10.6C7,10,7.2,9.5,7.6,9.1l1.5-1.5C9.5,7.2,10,7,10.6,7
	c0.6,0,1.1,0.2,1.5,0.6l1.3,1.3l0.7-0.7l-1.3-1.3c-0.4-0.4-0.6-0.9-0.6-1.5c0-0.6,0.2-1.1,0.6-1.5l3.3-3.3c0.2-0.2,0.4-0.4,0.7-0.5
	C17.1,0.1,17.3,0,17.6,0c0.3,0,0.5,0.1,0.8,0.2c0.3,0.1,0.5,0.3,0.7,0.5l3.7,3.7C23,4.5,23.1,4.7,23.2,5c0.1,0.3,0.1,0.5,0.1,0.8
	c0,0.3,0,0.5-0.1,0.8c-0.1,0.3-0.2,0.5-0.5,0.7l-3.3,3.3C19,11,18.5,11.2,18,11.2c-0.6,0-1.1-0.2-1.5-0.6l-1.3-1.3L14.5,10l1.3,1.3
	c0.4,0.4,0.6,0.9,0.6,1.5c0,0.6-0.2,1.1-0.6,1.5l-1.5,1.5c-0.4,0.4-0.9,0.6-1.5,0.6c-0.6,0-1.1-0.2-1.5-0.6L10,14.4l-0.7,0.7
	l1.3,1.3c0.4,0.4,0.6,0.9,0.6,1.5c0,0.6-0.2,1.1-0.6,1.5l-3.3,3.3c-0.2,0.2-0.4,0.3-0.7,0.4C6.3,23.3,6.1,23.3,5.8,23.3z M5.8,21.3
	l1.1-1.1l-3.7-3.7l-1.1,1.1L5.8,21.3z M8,19.1L9.1,18l-3.7-3.7l-1.1,1.1L8,19.1z M12.8,14.3l1.5-1.5l-3.7-3.7l-1.5,1.5L12.8,14.3z
	 M18,9.1L19.1,8l-3.7-3.7l-1.1,1.1L18,9.1z M20.2,6.9l1.1-1.1l-3.7-3.7l-1.1,1.1L20.2,6.9z"/>
</svg>
