<?xml version="1.0" encoding="utf-8"?>
<!-- Generator: Adobe Illustrator 28.0.0, SVG Export Plug-In . SVG Version: 6.00 Build 0)  -->
<svg version="1.1" id="Layer_1" xmlns="http://www.w3.org/2000/svg" xmlns:xlink="http://www.w3.org/1999/xlink" x="0px" y="0px"
	 viewBox="0 0 24 24" style="enable-background:new 0 0 24 24;" xml:space="preserve">
<g>
	<path d="M2.8,2.3v6.9v0v11.4V2.3z M0.5,22.9V0H12l6.9,6.9v2.9c-0.4-0.2-0.7-0.3-1.1-0.4c-0.4-0.1-0.8-0.1-1.2-0.2V8h-5.7V2.3h-8
		v18.3h6.9c0.3,0.5,0.7,0.9,1,1.3c0.4,0.4,0.8,0.7,1.3,1H0.5z M16,19.4c0.8,0,1.5-0.3,2-0.8c0.6-0.6,0.8-1.2,0.8-2
		c0-0.8-0.3-1.5-0.8-2c-0.6-0.6-1.2-0.8-2-0.8c-0.8,0-1.5,0.3-2,0.8c-0.6,0.6-0.8,1.2-0.8,2c0,0.8,0.3,1.5,0.8,2
		C14.5,19.2,15.2,19.4,16,19.4z M21.9,24l-3.1-3.1c-0.4,0.3-0.8,0.5-1.3,0.6c-0.5,0.1-1,0.2-1.4,0.2c-1.4,0-2.7-0.5-3.7-1.5
		c-1-1-1.5-2.2-1.5-3.6c0-1.4,0.5-2.6,1.5-3.6c1-1,2.2-1.5,3.7-1.5c1.4,0,2.7,0.5,3.7,1.5c1,1,1.5,2.2,1.5,3.6c0,0.5-0.1,1-0.2,1.4
		c-0.1,0.5-0.3,0.9-0.6,1.3l3.1,3.1L21.9,24z"/>
</g>
</svg>
