<?xml version="1.0" encoding="utf-8"?>
<!-- Generator: Adobe Illustrator 28.0.0, SVG Export Plug-In . SVG Version: 6.00 Build 0)  -->
<svg version="1.1" id="Layer_1" xmlns="http://www.w3.org/2000/svg" xmlns:xlink="http://www.w3.org/1999/xlink" x="0px" y="0px"
	 viewBox="0 0 24 24" style="enable-background:new 0 0 24 24;" xml:space="preserve">
<path d="M13,24H0v-5c0-2.7,1.4-4.4,3.3-5.3c-0.8-0.8-1.3-2-1.3-3.2c0-1.2,0.5-2.3,1.3-3.2C4.2,6.4,5.3,6,6.5,6
	c1.2,0,2.3,0.5,3.2,1.3c0.9,0.9,1.3,2,1.3,3.2c0,0.6-0.1,1.1-0.3,1.6c4.5-1.7,7.3-5.7,7.4-5.7l1.7,1.2c-0.1,0.1-0.5,0.7-1.3,1.5
	l1.7,1.7l-0.4,0.7c-2.4,4.2-4.6,5.6-5.9,6.4c-1,0.6-1,0.7-1,1.1V24z M2.1,21.9H11V19c0-1.6,1-2.3,2-2.9c1.1-0.7,2.8-1.7,4.7-4.9
	l-0.6-0.6c-2.3,2.1-6,4.5-10.6,4.5c-0.5,0-4.4,0.1-4.4,3.9V21.9z M6.5,8.1c-0.7,0-1.3,0.3-1.7,0.7c-0.5,0.5-0.7,1.1-0.7,1.7
	s0.3,1.3,0.7,1.7C5.3,12.7,5.9,13,6.5,13s1.3-0.3,1.7-0.7C8.7,11.8,9,11.2,9,10.5S8.7,9.2,8.3,8.8C7.8,8.3,7.2,8.1,6.5,8.1z M24,17
	h-4v-2.1h1.9V3.1H16v1H10v-1H4.1V5H2V1h8V0H16v1h8V17z"/>
</svg>
