<?xml version="1.0" encoding="utf-8"?>
<!-- Generator: Adobe Illustrator 28.0.0, SVG Export Plug-In . SVG Version: 6.00 Build 0)  -->
<svg version="1.1" id="Layer_1" xmlns="http://www.w3.org/2000/svg" xmlns:xlink="http://www.w3.org/1999/xlink" x="0px" y="0px"
	 viewBox="0 0 24 24" style="enable-background:new 0 0 24 24;" xml:space="preserve">
<path d="M2.8,20.6h8v2.3h-8c-1.3,0-2.3-1-2.3-2.3V2.3c0-0.6,0.2-1.2,0.7-1.6C1.6,0.2,2.2,0,2.8,0h13.8c0.6,0,1.2,0.2,1.6,0.7
	c0.4,0.4,0.7,1,0.7,1.6V12l-1.7-0.9l-0.6,0.3V2.3h-5.7v9.1L8,8.9l-2.9,2.6V2.3H2.8V20.6z M23.5,17.1l-6.3-3.4l-6.3,3.4l6.3,3.4
	L23.5,17.1z M13.1,19.5v2.3l4,2.2l4-2.2v-2.3l-4,2.2L13.1,19.5z"/>
</svg>
