<?xml version="1.0" encoding="utf-8"?>
<!-- Generator: Adobe Illustrator 28.0.0, SVG Export Plug-In . SVG Version: 6.00 Build 0)  -->
<svg version="1.1" id="Layer_1" xmlns="http://www.w3.org/2000/svg" xmlns:xlink="http://www.w3.org/1999/xlink" x="0px" y="0px"
	 viewBox="0 0 24 24" style="enable-background:new 0 0 24 24;" xml:space="preserve">
<path d="M11.3,8.4h9.6c-0.5-1.4-1.4-2.6-2.5-3.6c-1.1-1-2.4-1.7-3.8-2.1L11.3,8.4z M8.5,10.8l4.8-8.3c-0.2,0-0.4-0.1-0.7-0.1
	c-0.2,0-0.4,0-0.7,0c-1.3,0-2.5,0.2-3.7,0.8s-2.2,1.2-3,2L8.5,10.8z M2.7,14.4h6.5L4.4,6.1C3.8,6.9,3.3,7.8,2.9,8.8
	c-0.4,1-0.5,2-0.5,3.2c0,0.4,0,0.8,0.1,1.2C2.5,13.6,2.6,14,2.7,14.4z M9.4,21.2l3.2-5.6H3.1c0.5,1.4,1.4,2.6,2.5,3.6
	C6.7,20.1,8,20.8,9.4,21.2z M12,21.6c1.3,0,2.6-0.2,3.7-0.7c1.1-0.5,2.2-1.2,3-2l-3.2-5.6l-4.8,8.3c0.2,0,0.4,0.1,0.6,0.1
	C11.5,21.6,11.8,21.6,12,21.6z M19.6,17.9c0.6-0.8,1.1-1.7,1.5-2.7c0.4-1,0.5-2,0.5-3.2c0-0.4,0-0.8-0.1-1.2s-0.1-0.8-0.2-1.2h-6.5
	L19.6,17.9z M12,24c-1.6,0-3.2-0.3-4.6-0.9c-1.5-0.6-2.7-1.5-3.8-2.6c-1.1-1.1-1.9-2.4-2.6-3.8C0.3,15.2,0,13.6,0,12
	c0-1.7,0.3-3.2,0.9-4.7c0.6-1.4,1.5-2.7,2.6-3.8c1.1-1.1,2.4-2,3.8-2.6C8.8,0.3,10.4,0,12,0c1.7,0,3.2,0.3,4.7,0.9
	c1.5,0.6,2.7,1.5,3.8,2.6c1.1,1.1,1.9,2.4,2.6,3.8c0.6,1.5,0.9,3,0.9,4.7c0,1.6-0.3,3.2-0.9,4.7c-0.6,1.5-1.5,2.7-2.6,3.8
	c-1.1,1.1-2.4,2-3.8,2.6C15.2,23.7,13.7,24,12,24z"/>
</svg>
